<svg id="Layer_1" data-name="Layer 1" xmlns="http://www.w3.org/2000/svg" viewBox="0 0 89.84 70.17"><path d="M89.84,9.68a7.59,7.59,0,1,0-7.59,7.59,7.59,7.59,0,0,0,7.59-7.59" style="fill:#2a7a33"/><path d="M26.62,4.67A4.67,4.67,0,1,0,22,9.34a4.67,4.67,0,0,0,4.67-4.67" style="fill:#2a7a33"/><path d="M46.93,70.17C46.83,70.05,59.37,64,68,54.38c2.51-2.81,6-6.79,7.51-11.93,5.12-18-8-20-11.09-20-10.68,0-20.73,14.33-22.2,14.33s-12-15.88-24.38-17.51C5.85,17.71.19,31.4,0,31.4s.77-3.64,1.34-5.19c1.8-4.83,4.89-13.65,15.78-13.41,14,.32,20.88,11.69,25.08,11.69s11.25-8.91,19.08-9.82A18.89,18.89,0,0,1,71,16c3.8,1.68,12.58,7.12,12.9,20.07a29.33,29.33,0,0,1-1.28,8.82c-1.17,4-5.25,11.75-17.41,17.85a161.83,161.83,0,0,1-18.24,7.45" style="fill:#2a7a33"/><path d="M24.44,60.9a2,2,0,0,0,.28-.37.37.37,0,0,0-.08-.52.85.85,0,0,0-.54-.25l-.42,0a.26.26,0,0,1-.22-.13,1.49,1.49,0,0,0-.12-.14,3.67,3.67,0,0,1-.42.07c-.13,0-.27.07-.41,0,.21-.41.21-.47-.05-.72-.06.1-.13.19-.2.29l-.52,0c0-.28-.07-.55-.11-.82a1.77,1.77,0,0,0-.22-.16.37.37,0,0,1-.21-.5l0-.06a.36.36,0,0,1-.32,0,.88.88,0,0,0-.15,0,2.53,2.53,0,0,0-1.19-.14c-.34,0-.66.1-.8.47l0,.06c-.08.11-.14.14-.26.09a.71.71,0,0,0-.37-.06.76.76,0,0,1-.58-.15.22.22,0,0,1-.13-.28,3.43,3.43,0,0,0,.06-.34.24.24,0,0,0-.17-.3c-.11-.06-.24-.08-.35-.15-.33-.19-.43-.37-.26-.72a1.42,1.42,0,0,0,.1-.29c0-.14-.06-.24-.21-.25a.39.39,0,0,0-.3.14c-.06.08-.11.17-.17.26l-.17.27c-.15,0-.28,0-.41.06a.34.34,0,0,1-.36-.15,2.18,2.18,0,0,1-.28-1s0,0,0,0c0-.19.07-.38.12-.57a.75.75,0,0,1,.11-.28,1.08,1.08,0,0,1,.47-.31.51.51,0,0,1,.4.07.36.36,0,0,0,.4,0,.65.65,0,0,1,.62,0,1.17,1.17,0,0,0,.25.07.5.5,0,0,1,.41.41,1.67,1.67,0,0,0,.08.3.27.27,0,0,0,.11.1,1.23,1.23,0,0,0,.17,0c-.05-.48-.1-.93-.14-1.37l.51-.45a.27.27,0,0,1,.12-.09.55.55,0,0,0,.35-.51.8.8,0,0,1,0-.15.94.94,0,0,1,.51-.72c.18-.1.37-.17.55-.26a3.5,3.5,0,0,0,.47-.25c.27-.19.53-.4.79-.61a1.36,1.36,0,0,0,.24-.24.17.17,0,0,0,0-.24,1.75,1.75,0,0,0-.24-.11l-.19-.11a1,1,0,0,1,.55-.72c.16.25-.11.42-.08.65a1.2,1.2,0,0,1,.32.16,1.72,1.72,0,0,1,.24.34,2,2,0,0,0,.6-.24c0-.45-.39-.55-.61-.79a.65.65,0,0,1,0-.2,1,1,0,0,0,0-.6.52.52,0,0,0-.27-.4,1.47,1.47,0,0,1-.61-.67,5.05,5.05,0,0,1-.24-.53c-.06-.13-.1-.26-.15-.39a.6.6,0,0,0-.27-.33l-.06,0-.15.22a1.18,1.18,0,0,1-.13.18.18.18,0,0,1-.29,0,.63.63,0,0,1-.09-.25.54.54,0,0,0-.29-.43.75.75,0,0,1-.34-.34.24.24,0,0,0-.17-.13,1.4,1.4,0,0,0-.61,0,4.43,4.43,0,0,0-.13,1,.37.37,0,0,0,.05.18l.14.23a.51.51,0,0,1,0,.48,1.14,1.14,0,0,1-.26.42A.62.62,0,0,0,18,48a.63.63,0,0,1,0,.19.14.14,0,0,1-.21.09.38.38,0,0,1-.17-.24l-.09-.5a.36.36,0,0,0-.16-.28,1.36,1.36,0,0,1-.4-.46l-.26-.39a.79.79,0,0,0-.49-.32c-.24.22-.38.51-.61.69a.28.28,0,0,1-.24-.24,2,2,0,0,1,0-.88.44.44,0,0,1,.11-.2c.21-.26.42-.51.64-.76a1.06,1.06,0,0,1,.53-.39c.07.19.1.42.36.45.07-.1.14-.2.21-.32l.48.22a.76.76,0,0,0,0-.17c-.07-.25-.35-.28-.49-.45s.09-.25.14-.36a.76.76,0,0,0,.11-.44c0-.16,0-.33,0-.51l-.16-.13-.15-.2c.16-.18.12-.17.63,0l.32-.13c.13.17.24.34.37.5.27.31.45.72.86.92-.16.12-.29,0-.43,0s-.11.18-.17.26-.3-.07-.4.07a.59.59,0,0,0-.14.43l.12,0a.38.38,0,0,1,.55.05,2.24,2.24,0,0,1,.43.44.35.35,0,0,0,.2.16,1.24,1.24,0,0,0,.87.05s0-.08.05-.12a.56.56,0,0,0-.18-.49,2.48,2.48,0,0,1-.28-.36c-.09-.14-.08-.25,0-.32s.19,0,.28.18.08.25.24.3a1,1,0,0,0,.16-.66L20,43.29l-.28-.19a.51.51,0,0,1-.19-.6l-.57-.32c0-.09-.05-.17-.08-.27l-.3.05c-.28-.22-.28-.65-.63-.8,0,0,0,.06,0,.08s.09.18,0,.29-.19.11-.3.11l-.16,0c0-.11,0-.21-.05-.31s0-.21-.12-.28a.52.52,0,0,0-.16.06l-.19.13c0,.13,0,.24,0,.35s.06.23,0,.34-.24-.11-.3-.24-.13-.33.05-.64a.59.59,0,0,0-.39,0,5.52,5.52,0,0,0-.17.53.19.19,0,0,0,.13.27s.06,0,.08.07l0,.17c.18.16.41.19.56.35a1,1,0,0,1-.14.64.22.22,0,0,1-.2.14c-.16-.1-.1-.29-.18-.41s0,0,0-.05l-.22.13c-.13-.36-.13-.36-.46-.33a2.67,2.67,0,0,1-.46.67l-.2-.24a1.6,1.6,0,0,1-1.16,0,.42.42,0,0,0-.22,0,.2.2,0,0,0-.16.29s0,.07,0,.1a.14.14,0,0,1-.06.12.16.16,0,0,1-.14,0,.2.2,0,0,1-.08-.08.45.45,0,0,0-.46-.2h-.5s-.06,0-.09-.05l0-.31c-.21,0-.42,0-.61-.11a.42.42,0,0,0-.5,0,.14.14,0,0,1-.14,0c-.12-.13-.23,0-.35,0l-.15-.11-.57.26c-.08.08-.07.27-.26.34l-.2-.17c-.14.06-.11.26-.31.26-.14-.23-.4-.22-.66-.22l-.76,0a5.23,5.23,0,0,1-.68,0,.66.66,0,0,0-.62.23l-.68.72a1.59,1.59,0,0,0-.15.21c.12.18.3.32.16.57L5.48,45A1,1,0,0,0,5.3,45c-.14.07-.16.19-.08.4l.26,0a.14.14,0,0,1,.16.09.39.39,0,0,1-.18.27c-.09.08-.2.16-.29.25a.57.57,0,0,0-.18.62l.06.1.19,0,.09.27c.15,0,.28-.12.42,0a.37.37,0,0,1-.06.35l-.17.21s-.07.08,0,.13a.86.86,0,0,0,.32-.36c.13-.21.24-.43.36-.64a1.74,1.74,0,0,1,.35-.5l.21-.1c0,.14-.09.21-.11.29a.08.08,0,0,0,0,.07.22.22,0,0,0,.11,0,.53.53,0,0,0,.13-.13,2.13,2.13,0,0,0,.16-.25,5.13,5.13,0,0,1,1.47.45.47.47,0,0,1,0,.16.59.59,0,0,0,.24.54l.53.44a1.37,1.37,0,0,1,.2.22c.11.17.19.34.28.51a.3.3,0,0,1,0,.29.35.35,0,0,0,0,.13s0,0,0,.05l.11.11a1.32,1.32,0,0,1,.39,1.4c0,.15-.08.3-.12.45a.73.73,0,0,0,.05.56c.16.32.31.64.46,1a.72.72,0,0,0,.46.47.6.6,0,0,1,.37.42,1.05,1.05,0,0,1,.05.19.63.63,0,0,0,.16.34.53.53,0,0,1,.18.51l.3.19c0,.11.08.23.13.32a1.44,1.44,0,0,0,.22.27s.1.07.18,0l-.19-.32c-.16-.25-.33-.49-.48-.75a2.19,2.19,0,0,1-.17-.38.11.11,0,0,1,0-.1.29.29,0,0,1,.13,0c.13.05.16.17.19.28a1.54,1.54,0,0,0,.47.73l.31.28c.08.09.16.17.23.26l.27.43a.45.45,0,0,1,0,.11c-.06.27,0,.35.23.45l.18.08,1.15.53.28-.2.78.48a.51.51,0,0,0,.35.13.21.21,0,0,1,.21.14.56.56,0,0,1,.09.17.93.93,0,0,0,.31.42c.43.37.4.41,1,.35.23,0,.32.07.36.3a.63.63,0,0,1-.24.61,1.08,1.08,0,0,0-.38.77,1.12,1.12,0,0,1-.09.41.3.3,0,0,0,.06.38,1.47,1.47,0,0,1,.42.77l.05.14a1.19,1.19,0,0,0,.65.72,2.36,2.36,0,0,1,.28.12.34.34,0,0,1,.19.31,5.21,5.21,0,0,1-.05.69c-.07.41-.17.81-.26,1.21-.21,1-.63,2-.8,3,0,.29-.06.3.17.48a.81.81,0,0,0,.72.14c0-.22-.13-.39-.13-.61s.29-.19.36-.32a1.22,1.22,0,0,0,.08-.45,2.39,2.39,0,0,1,.39-.39c.12-.08.08-.18.11-.29.24,0,.28-.29.42-.45a.68.68,0,0,0,.72-.46.5.5,0,0,1,.33-.3,1,1,0,0,0,.46-.39,3.79,3.79,0,0,1,.3-.4,1.23,1.23,0,0,0,.31-.61.46.46,0,0,1,.26-.35,2.69,2.69,0,0,1,.38-.19,1,1,0,0,0,.62-.52,1.47,1.47,0,0,0,.24-.69A1.27,1.27,0,0,1,24.44,60.9Z" style="fill:#253166"/><path d="M24,67.77h0s0,0,0,0Z" style="fill:#253166"/><path d="M30.66,50.28a17.55,17.55,0,0,0-1.45-4.2,16.49,16.49,0,0,0-2.55-3.74,15.5,15.5,0,0,0-4.52-3.48,14.54,14.54,0,0,0-3.51-1.25,13.83,13.83,0,0,0-3.21-.32c-.37,0-.74,0-1.1.06a13.62,13.62,0,0,0-2.11.33,14.8,14.8,0,0,0-4.35,1.81,15.92,15.92,0,0,0-5.19,5.23A17.08,17.08,0,0,0,.73,49.14a7.07,7.07,0,0,0-.29,1.35,2.44,2.44,0,0,0,.1-.24c.19-.55.36-1.1.59-1.63a16.5,16.5,0,0,1,2.74-4.34A2,2,0,0,0,4.09,44a16,16,0,0,1,1.48-1.7,13.42,13.42,0,0,1,2.77-2.16,16.42,16.42,0,0,1,4.19-1.71,7.8,7.8,0,0,1,1.92-.27l2.1,0a1.6,1.6,0,0,1,.29.05l0,.2h.38c.06,0,.12,0,.08.13a2.21,2.21,0,0,0-.5.19l.2.32c-.25.18-.25.22-.06.39,0,0,0,0,0,.08-.25.12-.57,0-.8.25.07,0,.11.08.16.08h.46a1.54,1.54,0,0,1,.64.07.23.23,0,0,0,.18,0s.06-.09.09-.15l-.34-.18c.26-.1.55-.1.59-.42a1.33,1.33,0,0,1-.21-.09.1.1,0,0,1,0-.09.13.13,0,0,1,.08-.07.48.48,0,0,0,.46-.11,1.83,1.83,0,0,1,.71-.25.51.51,0,0,1,.46.15,1.06,1.06,0,0,0-.2.24c0,.08.07.2,0,.29s-.37,0-.57.08l.18.22.16.2-.14.24a1,1,0,0,0,.67.29,3.52,3.52,0,0,1,.64.09,1.08,1.08,0,0,1,.67.53,2,2,0,0,0,.1.21,4.15,4.15,0,0,0,.24.34.64.64,0,0,1,.19.52.25.25,0,0,0,0,.13c.44.06.48.09.45.4-.08,0-.19-.09-.24,0s-.14.13-.24.14-.31,0-.46.09a4.51,4.51,0,0,0,0,.52c0,.18,0,.36.06.53l.19,0h.5a.26.26,0,0,1,.27.17,1.18,1.18,0,0,0,.31.43l.15.21-.11.29a3.91,3.91,0,0,1,.61.81,1.14,1.14,0,0,0,.51.46.6.6,0,0,0,.09-.18c.09-.35.21-.69.31-1a.81.81,0,0,1,.35-.48.84.84,0,0,0,.26-.27.57.57,0,0,1,.41-.31,1.1,1.1,0,0,0,.64-.5l-.53-.64a.45.45,0,0,0,0-.51,4.77,4.77,0,0,0-.42-.73c-.05-.07-.13-.14-.07-.26a1.5,1.5,0,0,1,.24.18l1,.86a7.66,7.66,0,0,1,.57.57c.28.34.54.68.79,1a10,10,0,0,1,1.28,2,.15.15,0,0,0,0,.07,1.41,1.41,0,0,1,.16.7,3.72,3.72,0,0,0,0,.58,1,1,0,0,0,.37.81.41.41,0,0,1,.16.34,2.22,2.22,0,0,1,0,.45,3.66,3.66,0,0,0-.14.72.38.38,0,0,1-.25.36,1.76,1.76,0,0,0-.23.15l.19.3a.88.88,0,0,1,.18.46.3.3,0,0,1-.1.3L28,51.12a1.73,1.73,0,0,0,0,.93.68.68,0,0,0,.34.44.21.21,0,0,0,.32-.08,1.46,1.46,0,0,0,.12-.33c0-.16.07-.33.12-.48s.08-.19.28-.2l.15,0,.2.38c.06.12.13.25.18.36l.09,0c.23,0,.24,0,.27.24s.08.56.12.84,0,.33-.31.25a.38.38,0,0,1-.27-.25c-.05-.15-.08-.3-.13-.45a.43.43,0,0,0-.16-.3,1.91,1.91,0,0,0-.53.16c-.49.18-.5.18-.69.68a4.59,4.59,0,0,1-.42.9,2.35,2.35,0,0,0-.36,1.32,2.2,2.2,0,0,1-.09.76.75.75,0,0,0,0,.53,6.13,6.13,0,0,0,.5,1,.8.8,0,0,0,.89-.3l0,0a.23.23,0,0,1,.25-.05.29.29,0,0,1,.22.23,1,1,0,0,1,0,.53.53.53,0,0,0,0,.41.64.64,0,0,1,0,.49.8.8,0,0,0-.07.34A1,1,0,0,1,29,60a.54.54,0,0,0-.08.51c0,.05,0,.15,0,.22-.14.38-.28.77-.44,1.15a15.33,15.33,0,0,1-2.13,3.59,14.68,14.68,0,0,1-2.05,2.12c-.07.06-.16.11-.17.21a1,1,0,0,0,.18-.09c.48-.39,1-.77,1.45-1.19a16.62,16.62,0,0,0,4.15-6.16A17.29,17.29,0,0,0,31,54.73,18.45,18.45,0,0,0,30.66,50.28Z" style="fill:#253166"/><path d="M10.72,62.92a5.94,5.94,0,0,0-.48-1.38A10.89,10.89,0,0,0,9,59.46c-.24-.33-.52-.63-.77-1a3.6,3.6,0,0,0-1.59-1.16L5.53,57c-.08,0-.18,0-.21-.16l.49-.07a1.63,1.63,0,0,0,.74-.28,1.75,1.75,0,0,0,.68-1.29,1.86,1.86,0,0,0-1-1.83,1.73,1.73,0,0,0-2.48,1.06,1.94,1.94,0,0,0,.12,1.32,1.51,1.51,0,0,0,.47.59l.31.23a1.36,1.36,0,0,1,.1.14.76.76,0,0,1-.43,0,2,2,0,0,1-1.12-.82C2.79,55.19,2.39,54.58,2,54a8.92,8.92,0,0,0-.88-1.21,1.74,1.74,0,0,0-.32-.28c-.12-.08-.25,0-.25.16a.74.74,0,0,0,0,.26c.07.24.13.47.22.7a28.2,28.2,0,0,0,1.25,2.6,12,12,0,0,0,1.28,2,4.52,4.52,0,0,1,.34.51A3.69,3.69,0,0,1,4.14,60c.11.58.22,1.16.32,1.74.06.3.11.61.15.91a27.16,27.16,0,0,1,.15,3.12c0,.8,0,1.59.06,2.39a1.27,1.27,0,0,0,.31.73.2.2,0,0,0,.28,0,.62.62,0,0,0,.3-.42,7.81,7.81,0,0,0,.15-1,41.45,41.45,0,0,0,.08-4.17q0-.41,0-.81a.57.57,0,0,1,.11-.38h0a.74.74,0,0,1,.12.13A12.26,12.26,0,0,1,7,63.78c.53,1.18,1.07,2.35,1.61,3.53l.38.84a2.78,2.78,0,0,0,.58.81,1,1,0,0,0,.28.2A.22.22,0,0,0,10.2,69a1,1,0,0,0-.11-.52c-.22-.51-.43-1-.66-1.52a33.45,33.45,0,0,1-1.9-5.24,9.31,9.31,0,0,1-.35-1.73.57.57,0,0,1,.12-.44.58.58,0,0,1,.43.23l.36.46a18.4,18.4,0,0,1,1.09,1.67,8.45,8.45,0,0,0,1.13,1.4.35.35,0,0,0,.46.05C10.75,63.17,10.74,63,10.72,62.92Z" style="fill:#253166"/><path d="M17.41,63.15c-.47.19-.49.21-.48.72-.25.12-.47.21-.68.33a8.45,8.45,0,0,0-.82.49,1.21,1.21,0,0,1-.9.21l-.19,0a2.06,2.06,0,0,0-1.56.36,1.19,1.19,0,0,1-.33.18.52.52,0,0,1-.72-.23,2.71,2.71,0,0,1-.18-.34l-.17-.25a.12.12,0,0,0-.21.05.62.62,0,0,0,0,.38,2.77,2.77,0,0,0,.48.74.88.88,0,0,0,1,.29.54.54,0,0,1,.42,0,.71.71,0,0,1,0,.25.77.77,0,0,1-.12.24l-1.05,1.7c-.2.32-.4.66-.59,1a.68.68,0,0,0-.1.21.28.28,0,0,0,0,.18c.06.07.14,0,.21,0a1.44,1.44,0,0,0,.25-.18,1.22,1.22,0,0,0,.15-.17l.93-1.13a3,3,0,0,1,.54-.51.6.6,0,0,1,.06.23c0,.44-.06.88-.13,1.31a2.68,2.68,0,0,0,0,.8s0,.08,0,.11a.28.28,0,0,0,.14.12s.1,0,.12-.07a2.11,2.11,0,0,0,.16-.34l.36-1.38a9.67,9.67,0,0,1,.47-1.5,4.26,4.26,0,0,0,.22-.66.79.79,0,0,1,.48-.56,4.24,4.24,0,0,0,1.43-1.06,1.31,1.31,0,0,0,.4-.62l.32-.07a.38.38,0,0,0,.14-.66A.61.61,0,0,0,17.41,63.15Z" style="fill:#253166"/><path d="M15.72,63.19a1.53,1.53,0,0,0-1.44-1.58A1.4,1.4,0,0,0,12.84,63a1.5,1.5,0,0,0,1.48,1.5A1.37,1.37,0,0,0,15.72,63.19Z" style="fill:#253166"/><path d="M27.8,49.36a.36.36,0,0,0,.18-.29,1.11,1.11,0,0,1,0-.19c0-.06,0-.11.09-.1a.17.17,0,0,1,.09.1,1.78,1.78,0,0,0,0,.65s0,0,0,.08h.28a.93.93,0,0,0-.14-.86,1.19,1.19,0,0,1-.24-.64,1.21,1.21,0,0,0-.16-.42c0-.06-.16,0-.19,0a.19.19,0,0,0,0,.14,2.53,2.53,0,0,0,.12.36,2.33,2.33,0,0,0,.11.28l-.08,0s-.08,0-.11,0-.16.12-.12.2a.77.77,0,0,1,0,.45Z" style="fill:#253166"/><path d="M11.28,64a.6.6,0,0,0-.36-.49.31.31,0,0,0-.34.11.26.26,0,0,0,0,.31.71.71,0,0,0,.31.33A.27.27,0,0,0,11.28,64Z" style="fill:#253166"/><path d="M.75,52a.66.66,0,0,0-.32-.46.24.24,0,0,0-.28,0,.31.31,0,0,0-.15.33.54.54,0,0,0,.49.45A.25.25,0,0,0,.75,52Z" style="fill:#253166"/><path d="M23.6,68.05s0,0,0,0l0,0v0Z" style="fill:#253166"/><path d="M23.88,67.89a.25.25,0,0,0,.09,0l.05-.07C24,67.77,23.9,67.79,23.88,67.89Z" style="fill:#253166"/></svg>