<svg id="Layer_1" data-name="Layer 1" xmlns="http://www.w3.org/2000/svg" viewBox="0 0 109.8 102.26"><path d="M44.28,30.7V41.48a8.07,8.07,0,0,0,4.58,7.25l6,2.88,6-2.88a8.06,8.06,0,0,0,4.57-7.25V30.7A19.89,19.89,0,0,1,54.89,26,19.85,19.85,0,0,1,44.28,30.7ZM54.89,54.05a1.25,1.25,0,0,1-.5-.11l-6.53-3.12A10.4,10.4,0,0,1,42,41.48V29.68a1.16,1.16,0,0,1,1-1.15c7.59-.79,11-4.84,11-4.88a1.2,1.2,0,0,1,1.8,0c.05.06,3.47,4.11,11,4.89a1.16,1.16,0,0,1,1,1.15v11.8a10.4,10.4,0,0,1-5.89,9.34l-6.53,3.12A1.25,1.25,0,0,1,54.89,54.05Z" style="fill:#717171"/><path d="M39,26.08V42.76a12.26,12.26,0,0,0,6.94,11l9,4.29,9-4.29a12.24,12.24,0,0,0,6.94-11V26.08c-8.9-1.17-14-5.19-15.92-7C53,20.89,47.87,24.91,39,26.08Zm15.92,34.4a1.25,1.25,0,0,1-.5-.11l-9.47-4.53a14.55,14.55,0,0,1-8.25-13.08V25.06a1.15,1.15,0,0,1,1-1.15C48.87,22.75,54,16.69,54,16.63a1.26,1.26,0,0,1,.89-.43,1.2,1.2,0,0,1,.9.43c.07.08,5.14,6.12,16.29,7.28a1.16,1.16,0,0,1,1,1.15v17.7a14.57,14.57,0,0,1-8.25,13.08l-9.48,4.53A1.25,1.25,0,0,1,54.89,60.48Z" style="fill:#717171"/><path d="M33.29,42.44a1.15,1.15,0,0,1-1.15-1.15V27a1.16,1.16,0,0,1,2.31,0V41.29A1.16,1.16,0,0,1,33.29,42.44Z" style="fill:#717171"/><path d="M33.29,59.66a1.17,1.17,0,0,1-1.15-1.09,5.1,5.1,0,0,0-1.91-3.8,11.13,11.13,0,0,1-4.31-8.62v-6a1.16,1.16,0,0,1,2.31,0v6A8.82,8.82,0,0,0,31.68,53a7.39,7.39,0,0,1,2.76,5.46,1.15,1.15,0,0,1-1.08,1.22Z" style="fill:#717171"/><path d="M49.28,86.06H27.07a1.16,1.16,0,0,1-1.15-1.16V69.39A10.75,10.75,0,0,0,23,62l-2.24-2.41a10.65,10.65,0,0,1-2.86-7.27v-12A5.29,5.29,0,0,1,22.62,35a5.19,5.19,0,0,1,3.3.84V27.13a4.35,4.35,0,0,1,3.5-4.37,4.26,4.26,0,0,1,2.79.45,4.27,4.27,0,0,1,3.69-3.45,1.16,1.16,0,0,1,.27,2.3A2,2,0,0,0,34.45,24v3a1.16,1.16,0,0,1-2.31,0,2,2,0,0,0-.7-1.5A1.93,1.93,0,0,0,29.82,25a2.06,2.06,0,0,0-1.59,2.09v13a1.16,1.16,0,1,1-2.31,0A2.89,2.89,0,0,0,25,38a2.85,2.85,0,0,0-2.18-.73,3,3,0,0,0-2.59,3v12a8.36,8.36,0,0,0,2.24,5.7l2.24,2.4a13.08,13.08,0,0,1,3.52,8.94V83.75h19.9V69.39a32.37,32.37,0,0,1,.57-6,1.16,1.16,0,1,1,2.27.43,30.3,30.3,0,0,0-.53,5.62V84.9A1.16,1.16,0,0,1,49.28,86.06Z" style="fill:#717171"/><path d="M76.51,42.44a1.15,1.15,0,0,1-1.15-1.15V27a1.16,1.16,0,0,1,2.31,0V41.29A1.16,1.16,0,0,1,76.51,42.44Z" style="fill:#717171"/><path d="M76.51,59.66a1.18,1.18,0,0,1-1.15-1.23A7.39,7.39,0,0,1,78.12,53a8.8,8.8,0,0,0,3.46-6.82v-6a1.16,1.16,0,0,1,2.31,0v6a11.14,11.14,0,0,1-4.32,8.62,5.1,5.1,0,0,0-1.91,3.8A1.15,1.15,0,0,1,76.51,59.66Z" style="fill:#717171"/><path d="M82.73,86.06H60.52a1.16,1.16,0,0,1-1.16-1.16V69.39a29.47,29.47,0,0,0-.53-5.62,1.16,1.16,0,0,1,2.27-.43,32.29,32.29,0,0,1,.57,6V83.75H81.58V69.39a13.11,13.11,0,0,1,3.51-8.94l2.24-2.4a8.32,8.32,0,0,0,2.24-5.7v-12a3,3,0,0,0-2.58-3,2.83,2.83,0,0,0-3.1,2.83,1.16,1.16,0,1,1-2.31,0v-13A2.07,2.07,0,0,0,80,25,1.94,1.94,0,0,0,77.67,27a1.16,1.16,0,0,1-2.31,0V24a2,2,0,0,0-1.86-1.95,1.16,1.16,0,0,1,.12-2.31,4.25,4.25,0,0,1,4,3.47,4.27,4.27,0,0,1,6.3,3.92v8.68a5.16,5.16,0,0,1,3.3-.84,5.29,5.29,0,0,1,4.69,5.34v12A10.6,10.6,0,0,1,89,59.62L86.78,62a10.74,10.74,0,0,0-2.89,7.36V84.9A1.16,1.16,0,0,1,82.73,86.06Z" style="fill:#717171"/><path d="M54.89,44.9a1.15,1.15,0,0,1-.88-.41l-5.55-6.58a1.16,1.16,0,1,1,1.77-1.49l4.62,5.48,6.16-8a1.16,1.16,0,1,1,1.83,1.41l-7,9.12a1.2,1.2,0,0,1-.89.45Z" style="fill:#717171"/><path d="M32.42,80.56a1.16,1.16,0,0,1-1.16-1.16V71.33a1.16,1.16,0,1,1,2.31,0V79.4A1.16,1.16,0,0,1,32.42,80.56Z" style="fill:#717171"/><path d="M77.39,80.55a1.16,1.16,0,0,1-1.16-1.16V71.31a1.16,1.16,0,0,1,2.31,0v8.08A1.16,1.16,0,0,1,77.39,80.55Z" style="fill:#717171"/></svg>