<svg id="Layer_1" data-name="Layer 1" xmlns="http://www.w3.org/2000/svg" viewBox="0 0 109.8 102.26"><path d="M52.52,80.1H39.71l0-.76a32.85,32.85,0,0,0-1.93-11.68c-.87-2.43-2.31-3.54-4.13-5a21.33,21.33,0,0,1-6.47-7.33C23.74,49,23.33,34.08,23.79,31.52c.51-2.88,1.92-3.36,2.72-3.39,1.86-.06,3.76,2.12,4.53,5.19.37,1.45.68,3.06,1,4.77.79,4.08,1.69,8.72,3.43,10.92a19.43,19.43,0,0,0,4.8,4.38c-.72-1.25-2.42-3.55-3.53-5s-2.08-2.82-2.52-3.58a2.33,2.33,0,0,1,.72-3.2,2.88,2.88,0,0,1,3.89.46c.31.36,1,1.09,1.94,2,3.75,3.8,10.72,10.88,11.36,14.63,1.26,7.27.46,20.21.43,20.76ZM41.2,78.67h10c.14-2.79.62-13.58-.45-19.76-.57-3.31-7.59-10.44-11-13.87-1-1-1.67-1.69-2-2.09a1.46,1.46,0,0,0-2-.23A1,1,0,0,0,35.46,44c.41.69,1.4,2,2.45,3.45,2.89,3.92,4.11,5.7,4.15,6.59a1,1,0,0,1-.62,1c-1.5.57-5.41-3.07-7.08-5.19-2-2.48-2.85-7.09-3.72-11.54-.32-1.69-.63-3.28-1-4.69-.63-2.5-2.13-4.13-3.1-4.11-.62,0-1.12.83-1.36,2.21h0c-.39,2.19,0,16.82,3.28,22.92a20,20,0,0,0,6.09,6.88c1.84,1.44,3.58,2.79,4.59,5.61A34.67,34.67,0,0,1,41.2,78.67Z" style="fill:#717171"/><path d="M53.8,85.06H38V77H53.8ZM39.45,83.63H52.36V78.44H39.45Z" style="fill:#717171"/><path d="M55.08,86.35H36.73V75.72H55.08ZM38.16,84.92H53.65V77.16H38.16Zm14.35-1.15H39.3V78.3H52.51ZM40.73,82.34H51.08V79.73H40.73Z" style="fill:#717171"/><path d="M70.1,80.1H57.28l0-.67c0-.55-.84-13.49.42-20.76C58.31,54.92,65.28,47.84,69,44c.91-.93,1.63-1.66,1.94-2a2.87,2.87,0,0,1,3.89-.46,2.33,2.33,0,0,1,.72,3.2c-.44.76-1.4,2.07-2.52,3.58s-2.8,3.79-3.53,5A19.46,19.46,0,0,0,74.32,49c1.75-2.2,2.64-6.84,3.43-10.92.33-1.71.64-3.32,1-4.77.77-3.07,2.67-5.25,4.53-5.19.8,0,2.21.51,2.73,3.39h0c.45,2.56,0,17.46-3.44,23.85a21.23,21.23,0,0,1-6.47,7.33c-1.82,1.42-3.25,2.53-4.12,5a33.05,33.05,0,0,0-1.94,11.68ZM58.63,78.67h10a35.23,35.23,0,0,1,2-11.49c1-2.82,2.75-4.17,4.59-5.61a20,20,0,0,0,6.1-6.88C84.65,48.59,85,34,84.61,31.77h0c-.25-1.38-.75-2.18-1.37-2.21-.92,0-2.47,1.61-3.09,4.11-.36,1.41-.66,3-1,4.69-.86,4.45-1.75,9.06-3.72,11.54-1.67,2.12-5.58,5.77-7.08,5.19a1,1,0,0,1-.62-1c.05-.89,1.27-2.67,4.16-6.59,1-1.42,2-2.76,2.44-3.45A.94.94,0,0,0,74,42.72a1.45,1.45,0,0,0-2,.23c-.34.4-1,1.11-2,2.09-3.38,3.43-10.4,10.56-11,13.87C58,65.1,58.48,75.88,58.63,78.67Z" style="fill:#717171"/><path d="M71.79,85.06H56V77H71.79ZM57.44,83.63H70.36V78.44H57.44Z" style="fill:#717171"/><path d="M73.08,86.35H54.72V75.72H73.08ZM56.15,84.92H71.64V77.16H56.15ZM70.5,83.77H57.29V78.3H70.5ZM58.73,82.34H69.07V79.73H58.73Z" style="fill:#717171"/><path d="M55.3,48.75h-.82l-.21-.19C42.4,37.84,40.82,31,40.69,28.51q0-.37,0-.78c0-5.1,3.56-9.24,7.93-9.24a7.59,7.59,0,0,1,6.31,3.65,7.61,7.61,0,0,1,6.32-3.65c4.37,0,7.92,4.14,7.92,9.24a10.71,10.71,0,0,1-.53,3.34c-1,3.51-4.16,9.42-13.11,17.49ZM48.59,19.92c-3.58,0-6.5,3.5-6.5,7.81q0,.35,0,.69c.09,1.77,1.29,8.3,12.77,18.77C63.32,39.5,66.26,34,67.24,30.64a9.24,9.24,0,0,0,.47-2.91c0-4.31-2.91-7.81-6.49-7.81a6.42,6.42,0,0,0-5.67,4l-.65,1.39-.65-1.39A6.42,6.42,0,0,0,48.59,19.92Z" style="fill:#717171"/><path d="M55,51.32h-.28a3.26,3.26,0,0,1-2.2-.85C47.19,45.63,43.24,41,40.82,36.66a18.8,18.8,0,0,1-2.7-8c0-.31,0-.63,0-.94A12.54,12.54,0,0,1,41,19.58a9.66,9.66,0,0,1,13.92-1.3,9.68,9.68,0,0,1,13.93,1.3,12.59,12.59,0,0,1,2.88,8.15,13,13,0,0,1-.65,4.11C69,38.78,62.4,45.8,57.23,50.47A3.28,3.28,0,0,1,55,51.32Zm-6.44-34a8.46,8.46,0,0,0-6.52,3.16,11.2,11.2,0,0,0-2.55,7.23c0,.28,0,.56,0,.85A17.39,17.39,0,0,0,42.06,36c2.36,4.19,6.21,8.72,11.45,13.45a1.84,1.84,0,0,0,1.24.48H55a1.84,1.84,0,0,0,1.24-.48c5-4.55,11.45-11.36,13.43-18a11.75,11.75,0,0,0,.58-3.68,11.15,11.15,0,0,0-2.55-7.23,8.25,8.25,0,0,0-12.33-.74l-.5.47-.49-.47A8.42,8.42,0,0,0,48.59,17.34Zm6.3,28.3-.5-.47a49.46,49.46,0,0,1-9.09-11,14,14,0,0,1-2-5.77c0-.24,0-.44,0-.64a7.45,7.45,0,0,1,1.67-4.83,4.81,4.81,0,0,1,3.68-1.84,5.31,5.31,0,0,1,4.63,3.34,1.86,1.86,0,0,0,1.68,1.08,1.89,1.89,0,0,0,1.69-1.08,5.29,5.29,0,0,1,4.63-3.34,4.79,4.79,0,0,1,3.67,1.84,7.46,7.46,0,0,1,1.68,4.83,8.27,8.27,0,0,1-.4,2.53c-1.59,5.34-6.74,11.05-10.79,14.91Zm-6.3-23.15A3.47,3.47,0,0,0,46,23.82a6,6,0,0,0-1.33,3.91,4.26,4.26,0,0,0,0,.5,12.41,12.41,0,0,0,1.86,5.21,46.61,46.61,0,0,0,8.34,10.22c3.83-3.72,8.47-9,9.88-13.75a6.82,6.82,0,0,0,.36-2.18,6,6,0,0,0-1.33-3.91,3.4,3.4,0,0,0-2.58-1.33A3.92,3.92,0,0,0,57.88,25a3.29,3.29,0,0,1-6,0A3.9,3.9,0,0,0,48.59,22.49Z" style="fill:#717171"/></svg>