<svg id="Layer_1" data-name="Layer 1" xmlns="http://www.w3.org/2000/svg" viewBox="0 0 186 132"><path d="M0,3A3,3,0,1,1,3,6,3,3,0,0,1,0,3ZM18,3a3,3,0,1,1,3,3A3,3,0,0,1,18,3ZM36,3a3,3,0,1,1,3,3A3,3,0,0,1,36,3ZM54,3a3,3,0,1,1,3,3A3,3,0,0,1,54,3ZM72,3a3,3,0,1,1,3,3A3,3,0,0,1,72,3ZM90,3a3,3,0,1,1,3,3A3,3,0,0,1,90,3Zm18,0a3,3,0,1,1,3,3A3,3,0,0,1,108,3Zm18,0a3,3,0,1,1,3,3A3,3,0,0,1,126,3Zm18,0a3,3,0,1,1,3,3A3,3,0,0,1,144,3Zm18,0a3,3,0,1,1,3,3A3,3,0,0,1,162,3Zm18,0a3,3,0,1,1,3,3A3,3,0,0,1,180,3ZM0,21a3,3,0,1,1,3,3A3,3,0,0,1,0,21Zm18,0a3,3,0,1,1,3,3A3,3,0,0,1,18,21Zm18,0a3,3,0,1,1,3,3A3,3,0,0,1,36,21Zm18,0a3,3,0,1,1,3,3A3,3,0,0,1,54,21Zm18,0a3,3,0,1,1,3,3A3,3,0,0,1,72,21Zm18,0a3,3,0,1,1,3,3A3,3,0,0,1,90,21Zm18,0a3,3,0,1,1,3,3A3,3,0,0,1,108,21Zm18,0a3,3,0,1,1,3,3A3,3,0,0,1,126,21Zm18,0a3,3,0,1,1,3,3A3,3,0,0,1,144,21Zm18,0a3,3,0,1,1,3,3A3,3,0,0,1,162,21Zm18,0a3,3,0,1,1,3,3A3,3,0,0,1,180,21ZM0,39a3,3,0,1,1,3,3A3,3,0,0,1,0,39Zm18,0a3,3,0,1,1,3,3A3,3,0,0,1,18,39Zm18,0a3,3,0,1,1,3,3A3,3,0,0,1,36,39Zm18,0a3,3,0,1,1,3,3A3,3,0,0,1,54,39Zm18,0a3,3,0,1,1,3,3A3,3,0,0,1,72,39Zm18,0a3,3,0,1,1,3,3A3,3,0,0,1,90,39Zm18,0a3,3,0,1,1,3,3A3,3,0,0,1,108,39Zm18,0a3,3,0,1,1,3,3A3,3,0,0,1,126,39Zm18,0a3,3,0,1,1,3,3A3,3,0,0,1,144,39Zm18,0a3,3,0,1,1,3,3A3,3,0,0,1,162,39Zm18,0a3,3,0,1,1,3,3A3,3,0,0,1,180,39ZM0,57a3,3,0,1,1,3,3A3,3,0,0,1,0,57Zm18,0a3,3,0,1,1,3,3A3,3,0,0,1,18,57Zm18,0a3,3,0,1,1,3,3A3,3,0,0,1,36,57Zm18,0a3,3,0,1,1,3,3A3,3,0,0,1,54,57Zm18,0a3,3,0,1,1,3,3A3,3,0,0,1,72,57Zm18,0a3,3,0,1,1,3,3A3,3,0,0,1,90,57Zm18,0a3,3,0,1,1,3,3A3,3,0,0,1,108,57Zm18,0a3,3,0,1,1,3,3A3,3,0,0,1,126,57Zm18,0a3,3,0,1,1,3,3A3,3,0,0,1,144,57Zm18,0a3,3,0,1,1,3,3A3,3,0,0,1,162,57Zm18,0a3,3,0,1,1,3,3A3,3,0,0,1,180,57ZM0,75a3,3,0,1,1,3,3A3,3,0,0,1,0,75Zm18,0a3,3,0,1,1,3,3A3,3,0,0,1,18,75Zm18,0a3,3,0,1,1,3,3A3,3,0,0,1,36,75Zm18,0a3,3,0,1,1,3,3A3,3,0,0,1,54,75Zm18,0a3,3,0,1,1,3,3A3,3,0,0,1,72,75Zm18,0a3,3,0,1,1,3,3A3,3,0,0,1,90,75Zm18,0a3,3,0,1,1,3,3A3,3,0,0,1,108,75Zm18,0a3,3,0,1,1,3,3A3,3,0,0,1,126,75Zm18,0a3,3,0,1,1,3,3A3,3,0,0,1,144,75Zm18,0a3,3,0,1,1,3,3A3,3,0,0,1,162,75Zm18,0a3,3,0,1,1,3,3A3,3,0,0,1,180,75ZM0,93a3,3,0,1,1,3,3A3,3,0,0,1,0,93Zm18,0a3,3,0,1,1,3,3A3,3,0,0,1,18,93Zm18,0a3,3,0,1,1,3,3A3,3,0,0,1,36,93Zm18,0a3,3,0,1,1,3,3A3,3,0,0,1,54,93Zm18,0a3,3,0,1,1,3,3A3,3,0,0,1,72,93Zm18,0a3,3,0,1,1,3,3A3,3,0,0,1,90,93Zm18,0a3,3,0,1,1,3,3A3,3,0,0,1,108,93Zm18,0a3,3,0,1,1,3,3A3,3,0,0,1,126,93Zm18,0a3,3,0,1,1,3,3A3,3,0,0,1,144,93Zm18,0a3,3,0,1,1,3,3A3,3,0,0,1,162,93Zm18,0a3,3,0,1,1,3,3A3,3,0,0,1,180,93ZM0,111a3,3,0,1,1,3,3A3,3,0,0,1,0,111Zm18,0a3,3,0,1,1,3,3A3,3,0,0,1,18,111Zm18,0a3,3,0,1,1,3,3A3,3,0,0,1,36,111Zm18,0a3,3,0,1,1,3,3A3,3,0,0,1,54,111Zm18,0a3,3,0,1,1,3,3A3,3,0,0,1,72,111Zm18,0a3,3,0,1,1,3,3A3,3,0,0,1,90,111Zm18,0a3,3,0,1,1,3,3A3,3,0,0,1,108,111Zm18,0a3,3,0,1,1,3,3A3,3,0,0,1,126,111Zm18,0a3,3,0,1,1,3,3A3,3,0,0,1,144,111Zm18,0a3,3,0,1,1,3,3A3,3,0,0,1,162,111Zm18,0a3,3,0,1,1,3,3A3,3,0,0,1,180,111ZM0,129a3,3,0,1,1,3,3A3,3,0,0,1,0,129Zm18,0a3,3,0,1,1,3,3A3,3,0,0,1,18,129Zm18,0a3,3,0,1,1,3,3A3,3,0,0,1,36,129Zm18,0a3,3,0,1,1,3,3A3,3,0,0,1,54,129Zm18,0a3,3,0,1,1,3,3A3,3,0,0,1,72,129Zm18,0a3,3,0,1,1,3,3A3,3,0,0,1,90,129Zm18,0a3,3,0,1,1,3,3A3,3,0,0,1,108,129Zm18,0a3,3,0,1,1,3,3A3,3,0,0,1,126,129Zm18,0a3,3,0,1,1,3,3A3,3,0,0,1,144,129Zm18,0a3,3,0,1,1,3,3A3,3,0,0,1,162,129Zm18,0a3,3,0,1,1,3,3A3,3,0,0,1,180,129Z" style="fill:#1e1e1e;opacity:0.20000000298023224"/></svg>