<svg id="Layer_1" data-name="Layer 1" xmlns="http://www.w3.org/2000/svg" viewBox="0 0 101.51 101.49"><path d="M84.56,41.68A35,35,0,1,0,59.8,84.56,35,35,0,0,0,84.56,41.68v0M1.73,63.87A50.74,50.74,0,1,1,63.87,99.75h0A50.79,50.79,0,0,1,1.73,63.87" transform="translate(0.01 0.01)" style="fill:#2d3b8e"/><path d="M84.56,41.68c.1.34.17.68.25,1a3.39,3.39,0,0,0,.13.53L100.34,40s-.39-1.63-.59-2.4a59.51,59.51,0,0,0-3.49-9.3l-14.4,6.37a36.44,36.44,0,0,1,2.7,7" transform="translate(0.01 0.01)" style="fill:#4d4d4d"/><path d="M96.21,28.24l-2.81-5C89,25.92,84.32,28.6,79.67,31c2.12,3.44,2.15,3.64,2.17,3.77Z" transform="translate(0.01 0.01)"/></svg>