<svg id="Layer_1" data-name="Layer 1" xmlns="http://www.w3.org/2000/svg" xmlns:xlink="http://www.w3.org/1999/xlink" viewBox="0 0 85.66 47.04"><defs><clipPath id="clip-path"><rect x="19.35" width="46.97" height="46.97" style="fill:none"/></clipPath><clipPath id="clip-path-2"><rect x="19.23" y="-0.11" width="47.21" height="47.21" style="fill:none"/></clipPath></defs><g style="clip-path:url(#clip-path)"><g style="isolation:isolate"><g style="clip-path:url(#clip-path-2)"><path d="M39.84,5C39,6.49,39.5,6.83,37.4,7a6.2,6.2,0,0,0-2.53,1.92c-.23.27-1.1.56-1.45.17-.73-.8,0-1.66.59-2.24C33.76,5.29,33,6,31.89,5.61c1-1.35,8.28-2.64,8-.59"/><path d="M41.14,7.48c-.44.79-1.57.54-2.07.09.09,0,2.26-.44,2.07-.09"/><path d="M36.32,31.07c-.24,1.11-.47,2.23-.72,3.34s-.92,1.12-.77,2.73C34.94,38.31,34.09,39,34,40c-1.14.67,2,2.74,2,3.08-3.06.3-4.9-5.46-5.68-7.5-.85-2.25-3.94-3.32-3.89-6s-.62-3.11-2.32-4.87c-.6-.61-1.59-.8-2-1.31-.86-1.17-.84-3.08-1-4.47,0,.85.06,1.7.14,2.54-.93-2.54-.28-5.55.63-8C22.61,11.89,24,8.82,25.62,8c.18.07.21.19.08.37a12.57,12.57,0,0,1,3.31-1c0,.74-1.35,1.27-1.94,1.76-1.5,1.23-.28,1.6.07,2.84.39-.19,1.94-3.62,2.42-3,.17.22.4,1.88,1.08.59,2.19,2-.86,2.39-2,3.4,2.27-.74-1,1.66-1.36,2.18s-.6,1.13-1,1.62c-1,1.36-.68,2.11-.87,3.68-1-.2.29-2.15-1.51-1.6a1.75,1.75,0,0,0-1.1,1.57,5.34,5.34,0,0,0,.11,1.95c.25,1.05.82-.26,1.13-.63.36.38,0,1.42-.05,2,.71-.33.91.76,1.06,1.21.31,1,1,.5,1.25,1.35.3-2.31.91-1.14,2.66-1.2.83,0,1.13,1.6,2.1,1.53.77-.06.89.63,1.15,1.17A2.61,2.61,0,0,0,34,28.88c1.1.34,2.61.7,2.3,2.19"/><path d="M27.52,6.55a1.63,1.63,0,0,1-.56.31c-.07-.3.83-.55.56-.31"/><path d="M26.1,7.87c.22-.32.45-.64.68-1,.76-.08-1.12,1.27.64,0-.18.82-.55.78-1.32,1"/><path d="M31,5.61c-.33.73-1.4,1.14-1.23-.11.76-1,2-.9,3.1-1A12.23,12.23,0,0,0,31,5.61"/><path d="M31.35,8.17c-.51.81-2,.63-1.54,0,.53-.76.47-1-.59-.87-.9-1.55,3-.57,2.13.84"/><path d="M51.28,12.4c-.56.45-.18,1-.16,1.55-1.73-.24-.43.65-1,1.24.06-.06-2.13-2.62-2.8-2.55-.27.87,1.65,1,1.6,1.59-.46-.14-.62.5-.7,1a2.2,2.2,0,0,1-.69-.33c.2-.27,1.51-.14.45-.83a11.33,11.33,0,0,0-1.47-1.13c-1.32-.26-1.8,1.65-2.62,2.29-1.15.9-1.84-.23-1.76-1.36.15-2,3,.7,1-2,0,0,1.95-.92,2-.95,1.15-.78.66-.43.74-1.29a5.94,5.94,0,0,0,2.14.49c1-.11.37-.6,1.21-.66.09-.26,0-1.61.68-.75.4.49,1.63,3.47,1.35,3.69"/><path d="M42.87,10.18c-.12.5-1,1.3-.91.42,0-.4,1-.74.91-.42"/><path d="M44.56,10.59c-.53.41-.85.94-1.53.3.2-.32.13-.4.07-.78,0-.19-.44-.47-.44-.47,0-.43.89-.89.5-.34l.5,0-.28.47c.52-.29.75,1.13,1.18.78"/><path d="M46.82,14.44c0,.4-.8-.44-.07-.45a.77.77,0,0,0,.07.45"/><path d="M57.05,24.16c-.31,1.81-1.81,3.16-2.71,4.68-.52.88-.08,1.9-.25,2.84s-.94,1.29-1.56,1.9-.7,2.1-1.4,2.78-1.37,1.5-2.37,1.53-.28-1.07-.59-1.56a7.67,7.67,0,0,1-.5-4.08c.36-1.1.9-1.5.3-2.78a4.3,4.3,0,0,1-.55-2.8c.11-1.76-3.89-.8-4.54-.31a5.91,5.91,0,0,1-2.17-7c.36-.87,1.19-1.29,1.51-2.23s.71-1.42,1.72-1.49A11.39,11.39,0,0,0,47,15c.91.55-.4,1.31,1.18,1.67.29.06,1.42,1,1.5.3s.41-.6,1-.38c.91.35.58.66.89.88.83-.83,1.28-.05,1.59-1.31a3,3,0,0,1,0,2,1.62,1.62,0,0,1-.48-.64c.73,1.78,1.35,3.6,2.24,5.3.75,1.47.6,1.44,2.19.77,0,.21,0,.41,0,.62"/><path d="M63.46,20.61h0"/><path d="M65.22,17.06A24.13,24.13,0,0,0,58.56,6.33,7.05,7.05,0,0,0,56.8,5.12c0,.59-.88.52-.42,1-1.52-.39.18.26.1.88C56,7,55.14,5.38,54.8,5.79A5.69,5.69,0,0,0,55.66,7c-.91-.61-1.2-.26-2.14-.07s-.89-.42-1.68-.37c.72,1.21-1.19.9-1.69.3.5-.21.85.45,1.34.15-.55-1.89-4-.54-5.05,0C47,6.94,45,8.22,45,8.15c-.4,1.28.87.72,1.28.65a8.55,8.55,0,0,0,.76,1c.3-.14.41-.87.74-.87.6-.08-.45-.83-.19-1.2.14-.19,1.6-.91,1.29-.3-.19.35-1.11.22-.37,1,.39.38,1.16-.36,1.46.08a7.18,7.18,0,0,1,.87,2.21c.32,1.2.44,1,1.2,1.66,0,.25.07.88.6.31-.12-.2-.3-.08-.4-.31a1.82,1.82,0,0,1,.83-.33,1.77,1.77,0,0,0,1,1.76,1.16,1.16,0,0,0-.7.53c.75-1.24-2.95-.54-2.6.05.48.8,1.58,1.63,2.13.61a15.15,15.15,0,0,0,.39,2.88,16.15,16.15,0,0,0,1.44,3.41c.48,1.06.61,2.46,1.94,1.58a5.69,5.69,0,0,0,1.65-1.63c.7-1.07,0-1.45-.38-2.49-.68.27-.36,1.34-1.21.23-.22-.3-1-1.35-.52-1.72a1.68,1.68,0,0,1,.9.95c.16.36.56-.05.8.12.67.47,1.12.27,1.78.61s.24.85,1,.9c0,0,.15,1.4.25.45.38.43.32,2.23.4,2.59.53.74-.39,1.68.42,2.33.84-.7.58-2.34,1-3.26,1.1-2.39,1-1.16,1.39.82l.36-.33c.69,1.61-.18,3.71.08,5.44.54-1.37-.19-2.83.22-4.22.3.41.19,1.35.18,1.84a3.08,3.08,0,0,0,.41-2.14c-.21-1.33.23-2.09.29-3.35.09-1.66-.72-3.4-1.21-4.93.36.62.35,1.37.74,2m-8.76-4.42a.68.68,0,0,1-.83.35c.29.4,1,.67,1.09,1.09a.29.29,0,0,0-.31.07c.12.14,1.07,1.22.33,1.21-1.24,0-1-1.63-2.38-1.58.69-.21.79.4,1.35.51,0,0-1.91-2.31-1.34-2.85.05,0,2.09.79,2.09,1.2"/><path d="M53.67,13.94s0-.14,0,0"/><path d="M55.66,32.58c-.13.29-2.32,3.85-1.95,2.37a8.74,8.74,0,0,1,.77-2.19s1.6-1.47,1.32-1.4a2.45,2.45,0,0,1-.14,1.22"/><path d="M62.41,25.62c0-.11,0-1.11-.12-1.11s-.21,1.25-.14,1.37.26,0,.26-.26m-.15-1v0Z"/><path d="M64.17,30.11a17.59,17.59,0,0,1,0-3.77c.63-.05,0,3.62,0,3.77"/><path d="M64.36,31.17c0,.07,0-.47-.24-.43a0,0,0,0,1,0,.05s0-.57.12-.56a.79.79,0,0,1,.14.94"/><path d="M54.16,5.13c-.19-.25-2.58,0-.78,1-.48-.79,1.11-.55.78-1m-.76,1c-.14,0,.08,0,0,0m.14.07h0"/><path d="M46.76,4.36h0"/><path d="M46.58,4.3h0"/><path d="M47.55,4.35c.24-.54-4.19.11-1.31.69.38.07.21-.57.49-.68a.87.87,0,0,0,.73.52.72.72,0,0,0-.25-.27,1.7,1.7,0,0,0,.34-.26"/><path d="M56.43,4.92c.3.26-1.25-.63-1.12-.67s.94.5,1.12.67"/><path d="M60.56,38.57l.33-.4c-.76.92.53-.51.12-.24-.17.11-.73.76-.89.63C61.28,36.71,62.74,35,64,33.21c0,.1.07,0,.12-.19a20.77,20.77,0,0,1-3.51,5.55"/><path d="M32,12.69c-.1.29-1.23.07-1.59.06.24-.63,1.89-1,1.59-.06"/><path d="M26.63,22.08c.52-1.35-2-.84-1.59-.63s1.4,1.13,1.59.63m-.68.09c.16.26-.29-.52,0,0m0,0h0"/><path d="M27.82,22.43a1.76,1.76,0,0,0-.81.17c-1-1.59,1-.28.81-.17"/><path d="M28,7.19a3.83,3.83,0,0,0-.41,0c0-.11.54-.51.58-.51.3,0-.37.52-.17.46"/><path d="M28.89,6.65c.41-.44-.65.31-.68.36a1.29,1.29,0,0,0,.68-.36M28.2,7h0m.05,0h0"/><path d="M28.65,6.28a1,1,0,0,1-.41.29c-.08-.29.89-.79.41-.29"/><path d="M65.14,24.43A32.54,32.54,0,0,1,64.7,28a22.5,22.5,0,0,1-3.37,8l-.35.48c-.23.32-.47.66-.69.93s-.8,1-1.14,1.33a20.4,20.4,0,0,1-2.55,2.33l-.26.2c-.36.27-.78.58-1.12.81s-1.11.69-1.63,1a17.72,17.72,0,0,1-2.24,1.08l-.35.14c-.31.12-.65.26-.94.35a19.14,19.14,0,0,1-2.1.6c-.4.09-1.11.23-1.78.34-1.13.17-1.79.21-1.79.21h-.15l.07,1-.15-.95-.56,0h-.83c-.26,0-.5,0-.89,0s-.79,0-1.06-.07a35.79,35.79,0,0,1-4.8-1,22,22,0,0,1-3.35-1.38c-1-.53-2.18-1.3-2.92-1.79-.27-.19-.6-.46-.92-.72-.16-.13-.31-.26-.46-.37-.37-.3-.86-.77-1.24-1.15s-.69-.71-1.18-1.25a23.43,23.43,0,0,1-2.05-2.77,23.82,23.82,0,0,1-1.6-3,21.28,21.28,0,0,1-1.13-3.35,21.93,21.93,0,0,1-.65-4.71,13.14,13.14,0,0,1,0-1.79c0-.19,0-.4,0-.61,0-.42.06-.86.11-1.22a15.28,15.28,0,0,1,.3-1.74,19.09,19.09,0,0,1,1-3.4,20.75,20.75,0,0,1,1.49-3.1l.27-.45c.22-.35.45-.74.66-1s.72-1,1-1.4A22.06,22.06,0,0,1,27.84,7c.33-.3.87-.76,1.3-1.1s1.06-.78,1.48-1A21.46,21.46,0,0,1,33.87,3c.4-.18,1-.41,1.42-.57s.8-.28,1.62-.5C38,1.67,41,1.23,41.29,1.2l.94,0h.27s.47,0,1.28,0,1.37.1,1.66.13,1,.13,1.38.21a24.56,24.56,0,0,1,2.56.62c.62.2,1.13.38,1.48.51s1.06.42,1.55.67a21.76,21.76,0,0,1,3,1.71A26.81,26.81,0,0,1,58,7.15a21.59,21.59,0,0,1,2.34,2.54,22,22,0,0,1,1.93,2.87,23.7,23.7,0,0,1,1.46,3.16,30.08,30.08,0,0,1,1,3.44,22.72,22.72,0,0,1,.4,5.27m.72-5.53a32.25,32.25,0,0,0-1-3.57A23.47,23.47,0,0,0,63.3,12a22.63,22.63,0,0,0-2-3,24.47,24.47,0,0,0-2.47-2.69A30.57,30.57,0,0,0,56,4.07a24.18,24.18,0,0,0-3.1-1.79c-.53-.26-1.26-.55-1.65-.71s-.85-.31-1.55-.53A21.42,21.42,0,0,0,47,.38C46.38.27,45.91.2,45.56.16s-1-.11-1.73-.14l-1,0H42l-.73,0h0c-.32,0-3.47.5-4.61.8-.88.23-1.34.39-1.71.52s-1.07.4-1.52.61A22.76,22.76,0,0,0,30,3.84c-.45.29-1.06.72-1.55,1.11s-1,.82-1.37,1.15a22.82,22.82,0,0,0-2.5,2.65c-.34.42-.78,1-1.09,1.47-.19.27-.41.62-.61.95l-.35.56A23.85,23.85,0,0,0,20.93,15a20.91,20.91,0,0,0-1.05,3.53,17.83,17.83,0,0,0-.32,1.87c0,.36-.09.81-.12,1.28,0,0,0,.46-.05.6a16.06,16.06,0,0,0,0,1.95,24.13,24.13,0,0,0,.68,4.9,22.91,22.91,0,0,0,1.19,3.53,23.16,23.16,0,0,0,1.69,3.23,22.78,22.78,0,0,0,2.17,2.92c.5.57.91,1,1.22,1.31s.92.9,1.35,1.24c.1.07.43.35.43.35.29.23.69.56,1,.78.79.53,2,1.3,3,1.85a23.59,23.59,0,0,0,3.54,1.47,37.65,37.65,0,0,0,5,1c.28,0,.77.06,1.13.08l.92,0h.87l.79,0a18.54,18.54,0,0,0,1.93-.22c.71-.11,1.45-.25,1.88-.35.73-.18.86-.21,2.18-.63.3-.1.7-.25,1-.38l.34-.13A18.39,18.39,0,0,0,54.17,44c.48-.28,1.18-.7,1.68-1s.79-.56,1.18-.85l.26-.2A22.3,22.3,0,0,0,60,39.5c.38-.41.85-1,1.2-1.39.21-.26.46-.6.69-.93l.38-.52a23.29,23.29,0,0,0,2.53-4.86l0-.05a23.13,23.13,0,0,0,1-3.5,35.46,35.46,0,0,0,.46-3.73,24.14,24.14,0,0,0-.42-5.62"/></g></g></g></svg>