<svg id="Layer_1" data-name="Layer 1" xmlns="http://www.w3.org/2000/svg" viewBox="0 0 69.32 63.78"><path d="M7.39,19.11A1.71,1.71,0,0,1,8.88,21l-.22,1.35c.25.83.58,1.87,1,3.12s.84,2.58,1.32,4,1,2.82,1.48,4.25,1,2.7,1.53,3.83a29.36,29.36,0,0,0,1.4,2.85c.43.77.83,1.15,1.2,1.15s.58-.34.81-1A20.56,20.56,0,0,0,18,38c.17-1,.35-2.11.52-3.39s.33-2.57.47-3.9.25-2.61.37-3.87.21-2.39.29-3.4.16-2.14.26-3.39a1.55,1.55,0,0,1,.53-1.18,1.58,1.58,0,0,1,1.24-.44,1.64,1.64,0,0,1,1.19.59,14.69,14.69,0,0,1,1,1.26c-.33,0-.52.37-.56,1.12s-.11,1.74-.21,3-.23,2.63-.4,4.2-.37,3.18-.61,4.8-.52,3.22-.84,4.78a39.27,39.27,0,0,1-1.07,4.17,11.2,11.2,0,0,1-1.34,2.89,2,2,0,0,1-1.51,1,3.23,3.23,0,0,1-2.19-1.19,18,18,0,0,1-2.39-3.27,46,46,0,0,1-2.4-4.73c-.78-1.78-1.63-4-2.54-6.55L6.06,44.78a1.73,1.73,0,0,1-.65,1.16,1.6,1.6,0,0,1-1.27.33A1.65,1.65,0,0,1,3,45.64a1.71,1.71,0,0,1-.36-1.26l2.6-21.8c0-.13-.09-.25-.12-.35a2.1,2.1,0,0,1-.1-.4,1.61,1.61,0,0,1,0-.95,1.94,1.94,0,0,1,.59-.8,1.68,1.68,0,0,1,.73-.8,1.75,1.75,0,0,1,1-.17" style="fill:#283b8d"/><path d="M28.5,22.86a1.54,1.54,0,0,1-1.21-.45,1.75,1.75,0,0,1-.54-1.23A1.63,1.63,0,0,1,27.22,20a1.6,1.6,0,0,1,1.16-.53l1.05,0,.05-.58a1.66,1.66,0,0,1,.62-1.16,1.61,1.61,0,0,1,1.28-.33,1.67,1.67,0,0,1,1.1.55,1.94,1.94,0,0,1,.42,1.34l12.37-.42a1.5,1.5,0,0,1,.67.1,2,2,0,0,1,.56.35,1.85,1.85,0,0,1,.4.52,1.47,1.47,0,0,1,.15.65,1.78,1.78,0,0,1-.1.7,1.82,1.82,0,0,1-.35.57,1.58,1.58,0,0,1-.54.37,1.88,1.88,0,0,1-.66.16l-12.95.48L31.65,29l7.72-.25a1.7,1.7,0,0,1,1.23.46,1.67,1.67,0,0,1,.55,1.19,1.6,1.6,0,0,1-.48,1.24,1.75,1.75,0,0,1-1.22.54l-8.2.27L29.8,44.63a1.73,1.73,0,0,1-3.07.85,1.75,1.75,0,0,1-.35-1.28l1.45-11.64a2.26,2.26,0,0,1-1-.69,1.79,1.79,0,0,1-.33-1,1.54,1.54,0,0,1,.4-1.18,2,2,0,0,1,1.3-.6L29,22.86Z" style="fill:#283b8d"/><path d="M51.39,46.23a1.74,1.74,0,0,1-1.77-1.68,1.52,1.52,0,0,1,.44-1.21,1.7,1.7,0,0,1,1.21-.54L55,42.68l2.45-20.27-3.67,0A1.63,1.63,0,0,1,52.58,22,1.71,1.71,0,0,1,53.79,19L58.67,19a2.38,2.38,0,0,1,1-.17,2.21,2.21,0,0,1,.55.15L65,18.88a1.7,1.7,0,0,1,1.22.49,1.61,1.61,0,0,1,.5,1.21,1.67,1.67,0,0,1-.5,1.24,1.58,1.58,0,0,1-1.17.51L61,22.38l-2.5,20.15,3.27-.1a1.43,1.43,0,0,1,.69.1,1.53,1.53,0,0,1,.54.35,2.31,2.31,0,0,1,.38.53,1.36,1.36,0,0,1,.17.64,1.63,1.63,0,0,1-.45,1.26,1.71,1.71,0,0,1-1.2.57l-4.2.12a1.67,1.67,0,0,1-1.38.45,2.18,2.18,0,0,1-.9-.37Z" style="fill:#283b8d"/></svg>