<svg enable_background="new 0 0 1000 647" height="647px" pretty_print="False" viewBox="0 0 1000 647" width="1000px" xmlns="http://www.w3.org/2000/svg" xmlns:xlink="http://www.w3.org/1999/xlink" style="stroke-linejoin: round; stroke: rgb(0, 0, 0); fill: none;"><defs><style type="text/css"></style></defs><metadata><views><view h="647.825177808" padding="0" w="1000"><proj flip="auto" id="mercator" lon0="65.3146660706"></proj><bbox h="4064.12" w="6283.19" x="-3141.59" y="-2891.13"></bbox></view></views></metadata><g class="" id="countries"><path d="M553.540670,330.110215L553.727275,331.298434L553.727277,331.298446L553.581087,335.545473L553.822444,337.283016L555.414198,339.294452L555.885733,339.546622L557.175359,337.794017L557.341758,336.612640L558.243121,336.083697L558.298731,335.122411L557.148128,334.228055L556.754274,332.644773L557.106707,331.380914L557.106705,331.380897L556.920059,330.027374L556.256654,329.643620L555.665751,328.634798L554.919444,328.968091L554.743156,328.259226L553.540670,330.110215Z " data-id="AL" data-name="Albania" id="AL"></path><path>d="M653.759209,386.431356L649.790289,390.455790L643.650874,390.765421L643.548397,389.931799L643.054934,390.079584L643.160850,390.782445L644.223165,393.846511L652.560449,395.362890L653.119412,394.727848L653.191934,393.515431L654.999533,388.019845L656.415714,388.007913L655.511485,384.533579L653.759209,386.431356Z " data-id="AE" data-name="United Arab Emirates" id="AE"/</path><path d="M741.166901,378.559622L738.029544,377.838712L733.623200,375.830109L732.692456,374.305750L726.110457,370.779444L724.960714,371.547967L723.200842,373.000063L722.123908,375.973897L731.042943,380.469153L734.844748,380.873664L736.444384,382.456864L741.923937,383.474849L744.233598,383.423083L744.186158,380.215125L744.400570,378.866365L741.166901,378.559622Z " data-id="NP" data-name="Nepal" id="NP"></path><path d="M753.104907,378.351184L751.639565,378.274691L749.657398,377.546335L748.159665,378.344445L746.324835,380.672677L746.384171,381.297426L748.904948,382.477965L755.253329,382.108559L755.448106,380.193887L754.319145,379.195024L753.104907,378.351184Z " data-id="BT" data-name="Bhutan" id="BT"></path><path d="M598.605088,361.500439L598.349685,362.081106L597.421520,362.074948L597.344986,362.109245L596.948266,362.946020L596.385720,365.425679L595.034607,368.206573L595.034611,368.206585L596.581684,372.900349L596.857255,373.729162L598.239326,368.593218L598.174543,363.917633L598.585309,364.372964L599.068597,363.335834L599.015567,363.313349L599.391648,362.811501L599.349225,361.456812L598.605088,361.500439Z" data-id="PS" data-name="Palestine" id="PS"></path><path d="M725.256821,442.204467L726.419750,441.410182L726.837538,438.500464L722.288587,432.044333L721.033214,436.602782L721.524958,440.623675L722.844826,442.842554L725.256821,442.204467Z " data-id="LK" data-name="Sri Lanka" id="LK"></path><path d="M682.125983,277.926156L680.771574,279.105397L670.393360,280.754433L669.121649,282.358416L671.123881,285.539141L668.461356,286.733265L668.980762,287.976854L666.318953,290.181397L670.813299,293.253513L670.118322,295.342309L666.222640,295.152988L665.416874,296.452256L661.869612,294.177979L657.472727,294.266674L654.530004,296.119088L651.246028,294.343025L645.132841,291.266652L640.800451,291.382522L635.075242,296.191591L634.729832,299.358886L631.877690,296.847926L629.664772,301.579506L630.474837,302.446204L628.873911,305.635741L631.228003,308.450310L633.285989,308.335246L635.054030,311.073427L634.772542,313.159068L636.181247,313.810362L638.768694,312.965545L641.980006,311.183044L644.337681,312.174238L647.113145,311.978162L647.607182,314.471677L647.107985,318.349284L644.685384,317.760067L642.326562,318.400691L642.220073,321.262547L639.521860,320.892815L641.146148,323.136622L642.397364,326.575140L645.611829,327.866296L645.459046,330.740530L645.614695,331.649195L646.840113,330.408435L649.988362,329.629178L651.863036,330.677719L653.804213,333.588288L655.226844,333.408239L655.117918,319.383893L662.257446,317.054120L669.344231,321.686252L671.992853,325.158934L680.001353,324.302327L683.321733,327.088836L683.114774,330.861861L684.466173,330.887990L685.030295,333.925329L688.557635,334.044867L690.351045,335.759658L691.564567,333.128933L695.222618,330.538240L696.812795,329.846483L697.433960,328.198675L699.259904,327.665527L703.822615,328.965078L704.254019,326.733578L705.828144,325.945821L709.777859,327.542538L710.785711,327.125380L719.499507,327.625060L720.890320,328.980921L722.599742,329.532039L722.378307,327.382889L724.281073,326.394975L721.784660,319.690940L727.278832,318.120714L728.698454,317.240920L730.699683,310.034894L736.201737,311.377315L737.744330,309.531238L737.876761,305.378294L740.180260,304.987207L742.291419,302.179132L740.819771,299.565720L737.247284,300.140241L736.066583,298.312450L734.127413,297.471208L732.792639,294.946225L731.261368,294.153576L727.275822,295.284703L723.455242,292.740043L721.977288,295.053891L715.779540,283.574417L712.241307,279.947016L713.256182,278.455666L706.305125,282.910613L703.644894,283.176740L703.874642,280.615864L700.312474,278.998632L697.416905,280.154075L696.543633,275.185141L691.559407,274.135754L689.065861,276.150732L682.125983,277.926156Z " data-id="KZ" data-name="Kazakhstan" id="KZ"></path><path d="M720.890320,328.980921L719.499507,327.625060L710.785711,327.125380L709.777859,327.542538L705.828144,325.945821L704.254019,326.733578L703.822615,328.965078L699.259904,327.665527L697.433960,328.198675L696.812795,329.846483L697.636333,330.215143L695.308756,332.626589L697.355132,334.016891L699.330563,333.096935L702.617979,335.036952L699.066417,337.664023L696.956692,337.306300L695.941100,338.425117L692.922416,337.818659L692.659704,339.900384L695.666922,339.621507L699.093649,340.787743L704.337434,340.243347L705.126861,339.420522L704.744760,338.576196L709.308760,336.149170L712.244604,336.638342L713.293303,334.300683L716.850885,333.863158L717.839532,332.395908L722.209902,330.378872L722.599742,329.532039L720.890320,328.980921Z " data-id="KG" data-name="Kyrgyzstan" id="KG"> </path><path d="M695.222618,330.538240L691.564567,333.128933L690.351045,335.759658L688.557635,334.044867L685.030295,333.925329L684.466173,330.887990L683.114774,330.861861L683.321733,327.088836L680.001353,324.302327L671.992853,325.158934L669.344231,321.686252L662.257446,317.054120L655.117918,319.383893L655.226844,333.408239L658.355887,333.357766L657.900548,331.490282L660.269976,330.204507L662.606582,328.020249L666.343605,330.007854L666.640142,332.977690L667.701311,333.734099L670.700073,333.564264L671.630674,334.233094L672.993969,337.997448L680.875484,343.909828L684.564637,345.420155L684.488245,347.564174L686.033561,347.587345L688.125371,348.323054L689.684160,344.777812L689.085067,342.138164L687.049870,341.286430L687.768782,339.706876L690.084606,339.876041L692.284195,335.543298L695.992697,334.691304L695.811822,337.400167L696.956692,337.306300L699.066417,337.664023L702.617979,335.036952L699.330563,333.096935L697.355132,334.016891L695.308756,332.626589L697.636333,330.215143L696.812795,329.846483L695.222618,330.538240Z " data-id="UZ" data-name="Uzbekistan" id="UZ"></path><path d="M695.811822,337.400167L695.992697,334.691304L692.284195,335.543298L690.084606,339.876041L687.768782,339.706876L687.049870,341.286430L689.085067,342.138164L689.684160,344.777812L688.125371,348.323054L688.972844,348.746781L690.980523,347.628542L691.914707,348.301657L692.809190,346.703602L696.381534,343.613834L698.420314,345.662495L698.161758,348.598999L699.259904,349.734781L703.185541,347.101503L705.095473,347.358975L707.955785,347.364479L707.539716,345.366240L707.636316,343.994218L705.951976,343.187493L705.040437,343.544612L704.337434,340.243347L699.093649,340.787743L695.666922,339.621507L692.659704,339.900384L692.922416,337.818659L695.941100,338.425117L696.956692,337.306300L695.811822,337.400167Z " data-id="TJ" data-name="Tajikistan" id="TJ"></path><path d="M806.023895,406.678783L807.884523,403.690629L807.264648,402.565136L802.639878,403.321936L801.273000,404.656001L801.353404,407.178325L803.627665,408.084126L806.023895,406.678783Z M853.029632,295.602242L849.310095,286.399588L846.874595,284.703407L842.723510,283.321223L839.046540,283.447319L835.600035,284.284996L833.309148,286.577981L834.830959,287.664090L834.865357,290.164766L833.322907,291.602517L830.819328,296.288674L830.844553,298.201779L826.936116,300.918567L823.606705,299.299610L822.256023,302.520148L820.296501,306.713865L821.010826,308.406209L822.580938,307.882491L825.317131,308.525068L827.448928,306.998981L829.674459,308.321605L832.187927,311.185673L831.884080,312.627406L829.695957,312.171097L825.667127,312.708047L823.715058,313.855110L821.682728,316.496882L817.453818,318.030810L814.690250,320.115981L810.278746,318.966906L808.822864,321.485743L810.157494,324.244603L806.226124,327.567767L802.985288,328.895278L798.828327,329.037966L794.347884,330.340028L791.118658,332.339664L789.890803,331.183694L786.534878,331.186968L782.432237,328.912487L779.694324,328.351435L776.005458,328.875540L770.280822,328.030300L767.223440,328.118112L765.595569,325.865361L764.332027,322.323932L762.618162,321.893799L759.267254,319.463834L752.235935,318.242769L751.238115,316.526753L752.306020,311.835603L750.392362,308.542210L746.435911,306.989222L744.104894,304.776440L743.376666,301.829760L742.291419,302.179132L740.180260,304.987207L737.876761,305.378294L737.744330,309.531238L736.201737,311.377315L730.699683,310.034894L728.698454,317.240920L727.278832,318.120714L721.784660,319.690940L724.281073,326.394975L722.378307,327.382889L722.599742,329.532039L722.209902,330.378872L717.839532,332.395908L716.850885,333.863158L713.293303,334.300683L712.244604,336.638342L709.308760,336.149170L704.744760,338.576196L705.126861,339.420522L704.337434,340.243347L705.040437,343.544612L705.951976,343.187493L707.636316,343.994218L707.539716,345.366240L707.955785,347.364479L708.449535,348.364676L710.498777,349.981654L711.319592,352.625450L715.880870,354.006504L718.861860,357.970591L718.581232,360.696871L719.684538,362.394247L719.593671,364.077898L717.603191,363.635725L718.381009,367.243325L721.105879,369.296425L724.960714,371.547967L726.110457,370.779444L732.692456,374.305750L733.623200,375.830109L738.029544,377.838712L741.166901,378.559622L744.400570,378.866365L746.092077,378.205817L746.324835,380.672677L748.159665,378.344445L749.657398,377.546335L751.639565,378.274691L753.104907,378.351184L754.319145,379.195024L756.555855,378.802558L759.080359,376.460414L762.277195,374.441830L764.603626,375.222201L766.580776,373.883755L767.881296,375.858332L766.944532,377.185188L769.935125,377.656108L771.557263,377.421871L773.694793,380.018198L773.664695,384.955550L771.037571,387.521615L770.705060,391.136968L773.632590,390.633436L774.294029,393.419740L776.050318,394.003507L775.242975,396.497976L778.503590,398.169645L780.537927,397.300542L780.621055,398.534104L780.870725,399.233515L782.349252,399.314676L781.930174,395.899136L783.367997,395.459524L784.856127,394.726450L789.764822,394.394527L792.128803,392.787830L793.465727,393.919607L796.001123,394.469391L795.562553,396.198818L796.883138,397.414332L799.675370,398.188908L800.986209,397.703072L804.707323,398.657805L804.050470,399.808547L804.777695,401.959614L806.314698,401.786385L807.261638,398.651571L810.196335,398.194532L814.072238,396.698354L815.641203,395.208585L816.600182,396.182174L818.295558,394.848861L821.421019,394.503669L829.092851,389.160193L831.668378,385.503787L835.939998,378.052343L837.489758,377.769668L838.620439,372.672026L836.987981,371.678096L836.324393,369.962878L838.065203,369.081002L838.110206,366.669316L834.538579,361.127212L833.449032,357.841621L830.463886,355.989242L831.887663,353.611812L834.584729,351.895070L835.880376,350.035163L839.807159,349.067919L839.357696,347.243992L837.564143,347.150905L835.101841,345.786712L831.993723,348.283404L829.799437,347.265025L829.706563,345.692193L827.436602,345.114611L825.974987,342.721670L827.389592,341.057002L830.109589,340.884931L831.818438,338.561437L834.949775,336.034816L837.367503,334.742068L838.832558,336.658393L836.636408,339.095160L837.216726,340.495952L835.742785,342.152713L838.729365,341.178028L840.771154,339.500563L844.648634,338.451378L846.907130,336.120869L849.963795,334.150364L851.869284,331.525477L853.185855,332.688985L855.583948,332.823674L855.150680,330.863211L859.434196,329.250476L860.536929,327.135372L862.327857,329.363008L862.327902,329.363064L862.310847,327.447466L863.727602,327.345308L864.126615,322.825927L863.396237,319.493311L865.776558,318.104407L869.142658,318.801865L871.007873,314.943181L871.958396,310.515436L873.035761,309.015993L874.493220,305.284265L869.909440,306.514046L867.505042,308.148670L863.291038,308.143870L862.167810,304.229589L858.882687,301.218992L854.055687,299.851016L853.029632,295.602242Z " data-id="CN" data-name="China" id="CN"></path><path d="M755.565488,391.954888L754.346377,393.894387L752.827862,392.330006L754.924975,390.429485L756.203852,387.848966L749.393539,386.951249L749.148885,384.812503L745.628138,383.324250L744.648377,385.419766L746.650180,387.046490L744.300674,389.299612L746.007803,390.115422L745.535838,391.943859L746.928658,396.685365L748.001722,396.953195L750.370577,397.341229L750.989162,394.437052L753.543764,394.557374L755.390347,399.261646L756.182640,400.809659L756.001479,398.418145L756.969488,398.869256L757.026244,396.728662L755.565488,391.954888Z " data-id="BD" data-name="Bangladesh" id="BD"></path><path d="M721.105879,369.296425L718.381009,367.243325L717.603191,363.635725L719.593671,364.077898L719.684538,362.394247L718.581232,360.696871L718.861860,357.970591L715.880870,354.006504L713.202436,356.854772L710.110943,357.355413L705.903962,356.533129L704.544250,357.984820L706.490156,363.152155L708.728586,364.776326L706.363601,366.667800L706.406455,368.982470L703.714119,372.211645L701.975459,375.444565L699.074157,378.751389L695.853673,378.512718L692.797008,381.789331L694.612346,383.183756L694.928375,385.560904L696.486590,387.118815L697.037240,389.741717L690.933799,389.733772L689.086787,391.759684L692.339948,394.322216L693.159043,395.501475L691.825560,396.584836L695.448640,400.197266L697.403432,400.553000L701.439572,398.774085L701.967576,405.125133L703.945873,414.488726L706.468801,418.438063L707.636316,423.791249L709.109827,426.517944L712.429348,434.643907L715.055612,437.261956L717.102561,434.549100L719.631365,433.752858L718.787188,432.826347L720.049584,430.678788L721.484827,430.542279L721.497440,425.738514L722.672694,423.039243L721.948193,416.948142L722.779757,414.752560L727.956037,412.853372L727.960336,411.520861L735.913226,404.330476L739.904505,402.346260L741.385039,400.594918L741.225663,398.358305L746.531508,397.776576L746.928658,396.685365L745.535838,391.943859L746.007803,390.115422L744.300674,389.299612L746.650180,387.046490L744.648377,385.419766L745.628138,383.324250L749.148885,384.812503L749.393539,386.951249L756.203852,387.848966L754.924975,390.429485L752.827862,392.330006L754.346377,393.894387L755.565488,391.954888L757.026244,396.728662L758.394699,396.018260L758.835849,390.587050L761.003477,391.278499L763.911229,384.700736L763.826954,382.930487L767.417500,380.781045L769.399524,381.344757L770.144377,378.847557L769.935125,377.656108L766.944532,377.185188L767.881296,375.858332L766.580776,373.883755L764.603626,375.222201L762.277195,374.441830L759.080359,376.460414L756.555855,378.802558L754.319145,379.195024L755.448106,380.193887L755.253329,382.108559L748.904948,382.477965L746.384171,381.297426L746.324835,380.672677L746.092077,378.205817L744.400570,378.866365L744.186158,380.215125L744.233598,383.423083L741.923937,383.474849L736.444384,382.456864L734.844748,380.873664L731.042943,380.469153L722.123908,375.973897L723.200842,373.000063L724.960714,371.547967L721.105879,369.296425Z " data-id="IN" data-name="India" id="IN"></path><path d="M711.319592,352.625450L710.498777,349.981654L708.449535,348.364676L706.834993,348.754680L699.264491,350.523488L697.644933,352.022243L698.617671,355.165008L697.236317,356.586326L696.589497,359.086936L693.951194,358.982338L695.041314,361.187620L693.276139,362.026616L692.098448,364.018170L692.251661,365.986526L685.653897,367.928997L684.107864,369.760841L684.010834,372.494781L680.406385,373.822025L673.480983,374.311011L668.833711,372.682517L670.206753,374.359663L671.323244,376.274847L673.974590,377.662210L674.051125,380.424125L675.607621,382.362657L671.607025,383.963500L670.561909,387.538151L674.467910,387.108676L678.974008,387.051560L684.083929,386.474364L686.226762,388.805665L687.053883,390.993033L689.086787,391.759684L690.933799,389.733772L697.037240,389.741717L696.486590,387.118815L694.928375,385.560904L694.612346,383.183756L692.797008,381.789331L695.853673,378.512718L699.074157,378.751389L701.975459,375.444565L703.714119,372.211645L706.406455,368.982470L706.363601,366.667800L708.728586,364.776326L706.490156,363.152155L704.544250,357.984820L705.903962,356.533129L710.110943,357.355413L713.202436,356.854772L715.880870,354.006504L711.319592,352.625450Z " data-id="PK" data-name="Pakistan" id="PK"></path><path d="M705.095473,347.358975L703.185541,347.101503L699.259904,349.734781L698.161758,348.598999L698.420314,345.662495L696.381534,343.613834L692.809190,346.703602L691.914707,348.301657L690.980523,347.628542L688.972844,348.746781L688.125371,348.323054L686.033561,347.587345L684.488245,347.564174L683.652811,347.455957L682.344409,346.520899L681.909851,347.764979L679.572241,348.438463L679.018582,351.205398L675.266223,352.766604L674.686909,354.312810L672.595672,354.766275L669.767179,353.474360L668.636641,357.694527L667.874589,360.130031L669.081805,360.621575L667.895801,362.437648L669.021466,367.138651L671.122018,367.686762L671.349186,369.770679L668.833711,372.682517L673.480983,374.311011L680.406385,373.822025L684.010834,372.494781L684.107864,369.760841L685.653897,367.928997L692.251661,365.986526L692.098448,364.018170L693.276139,362.026616L695.041314,361.187620L693.951194,358.982338L696.589497,359.086936L697.236317,356.586326L698.617671,355.165008L697.644933,352.022243L699.264491,350.523488L706.834993,348.754680L708.449535,348.364676L707.955785,347.364479L705.095473,347.358975Z " data-id="AF" data-name="Afghanistan" id="AF"></path><path d="M684.564637,345.420155L680.875484,343.909828L672.993969,337.997448L671.630674,334.233094L670.700073,333.564264L667.701311,333.734099L666.640142,332.977690L666.343605,330.007854L662.606582,328.020249L660.269976,330.204507L657.900548,331.490282L658.355887,333.357766L655.226844,333.408239L653.804213,333.588288L651.863036,330.677719L649.988362,329.629178L646.840113,330.408435L645.614695,331.649195L646.480657,334.047150L646.763721,331.333573L648.996275,330.381674L649.791148,332.510941L651.811726,334.725084L649.374650,335.897276L646.759565,334.998476L646.145853,338.070837L647.986989,338.282082L647.274814,340.747931L649.437855,341.957985L649.034543,345.661224L649.550651,348.135362L651.987728,347.460738L653.960436,345.457334L659.005001,345.228175L662.071698,347.006919L664.286623,347.388930L667.456370,350.463299L669.523815,350.586783L669.767179,353.474360L672.595672,354.766275L674.686909,354.312810L675.266223,352.766604L679.018582,351.205398L679.572241,348.438463L681.909851,347.764979L682.344409,346.520899L683.652811,347.455957L684.488245,347.564174L684.564637,345.420155Z " data-id="TM" data-name="Turkmenistan" id="TM" ></path><path d="M780.537927,397.300542L778.503590,398.169645L775.242975,396.497976L776.050318,394.003507L774.294029,393.419740L773.632590,390.633436L770.705060,391.136968L771.037571,387.521615L773.664695,384.955550L773.694793,380.018198L771.557263,377.421871L769.935125,377.656108L770.144377,378.847557L769.399524,381.344757L767.417500,380.781045L763.826954,382.930487L763.911229,384.700736L761.003477,391.278499L758.835849,390.587050L758.394699,396.018260L757.026244,396.728662L756.969488,398.869256L756.001479,398.418145L756.182640,400.809659L758.151048,403.221374L761.608303,408.037958L762.187044,410.764458L761.231075,414.352290L764.505306,415.285228L769.484228,411.775757L770.683848,414.171518L772.088707,421.231641L773.214658,422.708638L772.989353,425.804388L773.921817,427.480498L773.069328,429.645269L773.336627,431.737806L776.203674,426.201931L775.119430,423.612618L774.845969,420.697612L772.996233,418.424288L774.306785,413.948459L770.070422,407.360341L771.240517,406.828993L772.505062,403.654473L774.463008,403.522537L776.081706,402.242967L777.670019,401.559109L778.261086,400.467926L780.621055,398.534104L780.537927,397.300542Z " data-id="MM" data-name="Myanmar" id="MM"></path><path d="M653.759209,386.431356L649.790289,390.455790L643.650874,390.765421L643.548397,389.931799L643.054934,390.079584L643.160850,390.782445L644.223165,393.846511L652.560449,395.362890L653.119412,394.727848L653.191934,393.515431L654.999533,388.019845L656.415714,388.007913L655.511485,384.533579L653.759209,386.431356Z " data-id="AE" data-name="UAE" id="AE"></path><path d="M628.921208,340.125118L626.498607,338.554432L627.280438,337.400355L625.304577,334.598953L624.730422,333.631564L620.876018,334.206281L621.347266,335.497998L621.080397,337.272875L623.142682,338.174517L624.235382,339.229529L624.812260,339.132161L625.633649,340.097826L626.859066,340.089750L626.846311,340.643464L627.978568,342.708992L628.982837,342.604415L628.921208,340.125118Z " data-id="AM" data-name="Armenia" id="AM"></path><path d="M624.235382,339.229529L624.675529,340.585934L626.076232,342.235846L627.978568,342.708992L626.846311,340.643464L626.859066,340.089750L625.633649,340.097826L624.812260,339.132161L624.235382,339.229529Z M628.703356,331.361286L627.983584,331.874165L629.349459,333.876584L625.409777,333.028338L624.730422,333.631564L625.304577,334.598953L627.280438,337.400355L626.498607,338.554432L628.921208,340.125118L628.982837,342.604415L632.253771,339.966246L634.113253,340.754413L633.156997,342.521127L635.576875,344.201462L635.502777,342.444709L637.479354,337.554219L639.763648,337.261983L637.617232,336.109548L636.206496,333.505528L634.747893,331.554132L634.747891,331.554130L633.091928,333.049168L632.615950,333.988056L631.389099,333.736290L629.483037,331.486147L628.703356,331.361286Z " data-id="AZ" data-name="Azerbaijan" id="AZ"></path><path d="M584.507193,466.122520L584.507131,466.122513L583.033539,465.941059L582.184346,467.521875L580.500149,467.303605L581.197562,468.566378L581.222904,469.047696L582.240958,471.697117L582.227375,471.820703L582.520870,471.786820L583.527146,470.779321L585.265232,467.845220L584.668002,467.215784L584.507193,466.122520Z " data-id="BI" data-name="Burundi" id="BI"></path><path d="M507.900664,425.229499L506.906427,425.236832L505.975396,426.067608L505.369424,426.914755L504.013724,427.179282L503.448742,428.415972L502.494923,428.735785L502.142060,430.222123L504.616401,433.999955L504.490133,440.432138L505.173213,442.357851L507.465390,442.032394L507.554394,435.744988L510.531227,429.477381L509.907483,427.801189L510.015549,426.860902L507.900664,425.229499Z " data-id="BJ" data-name="Benin" id="BJ"></path><path d="M499.261540,417.557253L494.450163,418.604896L490.229566,422.095271L488.888342,421.710867L487.721329,424.357711L485.519805,426.708836L484.827479,428.865938L485.011149,430.504324L486.258352,431.118837L486.743073,432.050224L490.259807,431.829687L492.157986,432.555401L491.779683,430.434966L491.844824,428.833675L498.783269,428.450369L500.066016,428.675482L502.494923,428.735785L503.448742,428.415972L504.013724,427.179282L505.369424,426.914755L505.975396,426.067608L506.038172,424.123630L502.840333,423.478708L500.819970,418.933693L501.039757,417.544052L499.261540,417.557253Z " data-id="BF" data-name="Burkina Faso" id="BF"></path><path d="M562.839226,322.348738L562.154999,323.225215L562.403809,324.629350L563.751338,326.277803L562.528214,329.113746L562.072014,329.643620L563.461108,330.844504L563.658035,333.299839L565.709570,333.406617L567.929942,332.389776L569.884017,333.681884L572.404938,333.333433L572.435179,331.487013L575.260520,330.313258L577.648436,330.814416L576.753093,328.675245L577.765962,325.965513L579.205362,324.381449L575.556340,322.576766L570.915948,324.454401L563.637109,323.934713L562.839226,322.348738Z " data-id="BG" data-name="Bulgaria" id="BG"></path><path d="M551.475850,328.403495L551.882110,326.319853L552.783963,325.433880L553.302244,325.084880L553.955344,324.915522L554.359607,323.107934L553.022372,321.619261L553.716908,319.904363L552.711399,319.915187L552.711394,319.915184L551.457030,319.047402L545.258135,319.351463L544.263039,318.448829L543.682434,320.077595L549.021100,326.971621L551.475850,328.403495Z " data-id="BA" data-name="Bosnia and Herzegovina" id="BA"></path><path d="M566.025026,435.297677L565.063180,434.489468L565.327469,431.297621L563.727833,429.534636L563.413381,428.325847L561.657665,428.807689L560.250657,429.950620L558.245558,433.023620L555.635203,434.325429L552.174795,434.409084L552.449403,435.397055L549.825432,437.470913L544.670365,438.573108L542.377328,438.783351L540.982502,441.614708L540.316907,442.121280L540.155524,446.284992L543.995023,451.063894L544.118855,452.330512L544.411379,453.134842L545.865255,450.550829L547.518207,449.078350L549.395461,449.545240L551.179268,449.700324L551.428651,447.761705L553.993573,445.452916L562.140236,448.241716L567.702200,445.237806L575.006264,445.184707L575.921959,444.889257L575.475935,444.006128L573.402758,442.902932L569.681357,438.564723L568.137188,436.523354L566.250139,435.428375L566.025026,435.297677Z " data-id="CF" data-name="Central African Republic" id="CF"></path><path d="M483.866852,430.922032L482.789918,430.071914L481.000234,431.157494L478.090620,430.711127L477.729086,430.967178L477.176071,431.185594L478.277800,435.551867L477.196996,436.819967L477.033607,438.041228L476.593747,438.044410L476.465759,438.858073L479.004308,443.570257L478.610455,447.308971L479.146342,447.382061L483.818122,445.558232L487.103532,445.072174L490.816763,445.584416L492.078585,445.556074L491.001794,442.055680L491.725077,438.901430L492.893810,436.550144L492.157986,432.555401L490.259807,431.829687L486.743073,432.050224L486.258352,431.118837L485.011149,430.504324L483.866852,430.922032Z " data-id="CI" data-name="C\\\\\\\\\\\\\\\\\\\\\\\\\\\\\\\\\\\\\\\\\\\\\\\\\\\\\\\\\\\\\\\\\\\\\\\\\\\\\\\\\\\\\\\\\\\\\\\\\\\\\\\\\\\\\\\\\\\\\\\\\\\\\\\\\\\\\\\\\\\\\\\\\\\\\\\\\\\\\\\\\\\\\\\\\\\\\\\\\\\\\\\\\\\\\\\\\\\\\\\\\\\\\\\\\\\\\\\\\\\\\\\\\\\\\\\\\\\\\\\\\\\\\\\\\\\\\\\\\\\\\\\\\\\\\\\\\\\\\\\\\\\\\\\\\\\\\\\\\\\\\\\\\\\\\\\\\\\\\\\\\\\\\\\\\\\\\\\\\\\\\\\\\\\\\\\\\\\\\\\\\\\\\\\\\\\\\\\\\\\\\\\\\\\\\\\\\\\\\\\\\\\\\\\\\\\\\\\\\\\\\\\\\\\\\\\\\\\\\\\\\\\\\\\\\\\\\\\\\\\\\\\\\\\\\\\\\\\\\\\\\\\\\\\\\\\\\\\\\\\\\\\\\\\\\\\\\\\\\\\\\\\\\\\\\\\\\\\\\\\\\\\\\\\\\\\\\\\\\\\\\\\\\\\\\\\\\\\\\\\\\\\\\\\\\\\\\\\\\\\\\\\\\\\\\\\\\\\\\\\\\\\\\\\\\\\\\\\\\\\\\\\\\\\\\\\\\\\\\\\\\\\\\\\\\\\\\\\\\\\\\\\\\\\\\\\\\\\\\\\\\\\\\\\\\\\\\\\\\\\\\\\\\\\\\\\\\\\\\\\\\\\\\\\\\\\\\\\\\\\\\\\\\\\\\\\\\\\\\\\\\\\\\\\\\\\\\\\\\\\\\\\\\\\\\\\\\\\\\\\\\\\\\\\\\\\\\\\\\\\\\\\\\\\\\\\\\\\\\\\\\\\\\\\\\\\\\\\\\\\\\\\\\\\\\\\\\\\\\\\\\\\\\\\\\\\\\\\\\\\\\\\\\\\\\\\\\\\\\\\\\\\\\\\\\\\\\\\\\\\\\\\\\\\\\\\\\\\\\\\\\\\\\\\\\\\\\\\\\\\\\\\\\\\\\\\\\\\\\\\\\\\\xC3\\\\\\\\\\\\\\\\\\\\\\\\\\\\\\\\\\\\\\\\\\\\\\\\\\\\\\\\\\\\\\\\\\\\\\\\\\\\\\\\\\\\\\\\\\\\\\\\\\\\\\\\\\\\\\\\\\\\\\\\\\\\\\\\\\\\\\\\\\\\\\\\\\\\\\\\\\\\\\\\\\\\\\\\\\\\\\\\\\\\\\\\\\\\\\\\\\\\\\\\\\\\\\\\\\\\\\\\\\\\\\\\\\\\\\\\\\\\\\\\\\\\\\\\\\\\\\\\\\\\\\\\\\\\\\\\\\\\\\\\\\\\\\\\\\\\\\\\\\\\\\\\\\\\\\\\\\\\\\\\\\\\\\\\\\\\\\\\\\\\\\\\\\\\\\\\\\\\\\\\\\\\\\\\\\\\\\\\\\\\\\\\\\\\\\\\\\\\\\\\\\\\\\\\\\\\\\\\\\\\\\\\\\\\\\\\\\\\\\\\\\\\\\\\\\\\\\\\\\\\\\\\\\\\\\\\\\\\\\\\\\\\\\\\\\\\\\\\\\\\\\\\\\\\\\\\\\\\\\\\\\\\\\\\\\\\\\\\\\\\\\\\\\\\\\\\\\\\\\\\\\\\\\\\\\\\\\\\\\\\\\\\\\\\\\\\\\\\\\\\\\\\\\\\\\\\\\\\\\\\\\\\\\\\\\\\\\\\\\\\\\\\\\\\\\\\\\\\\\\\\\\\\\\\\\\\\\\\\\\\\\\\\\\\\\\\\\\\\\\\\\\\\\\\\\\\\\\\\\\\\\\\\\\\\\\\\\\\\\\\\\\\\\\\\\\\\\\\\\\\\\\\\\\\\\\\\\\\\\\\\\\\\\\\\\\\\\\\\\\\\\\\\\\\\\\\\\\\\\\\\\\\\\\\\\\\\\\\\\\\\\\\\\\\\\\\\\\\\\\\\\\\\\\\\\\\\\\\\\\\\\\\\\\\\\\\\\\\\\\\\\\\\\\\\\\\\\\\\\\\\\\\\\\\\\\\\\\\\\\\\\\\\\\\\\\\\\\\\\\\\\\\\\\\\\\\\\\\\\\\\\\\\\\\\\\\\\\\\\\\\\\\\\\\\\\\\\\\\\\\\\\\xB4te d'Ivoire" id="CI"></path><path d="M541.306557,425.276574L540.203824,423.457171L539.420990,423.620334L539.331699,424.525295L540.429559,425.655852L539.980812,427.109501L537.644349,429.297204L535.372095,435.153340L533.888838,436.308572L532.576709,440.014905L530.671363,440.956094L525.608023,441.514251L523.575406,446.175403L523.543588,446.944412L526.082855,449.060756L527.166812,450.897619L526.761779,453.089803L531.275043,453.153130L532.593048,452.970748L534.278535,453.342532L535.920308,452.985020L536.265575,453.136348L539.765684,453.245215L542.008127,453.977516L544.211872,454.633348L544.411379,453.134842L544.118855,452.330512L543.995023,451.063894L540.155524,446.284992L540.316907,442.121280L540.982502,441.614708L542.377328,438.783351L542.811743,438.025464L538.701792,432.816900L539.304325,431.488813L542.899887,431.598765L541.390258,429.035260L541.491731,427.157046L541.306557,425.276574Z " data-id="CM" data-name="Cameroon" id="CM"></path><path d="M323.427573,313.203532L322.455855,311.234711L321.408172,312.486687L322.101016,313.837226L325.619096,315.537523L328.010532,313.634100L323.427573,313.203532Z M328.581245,302.645321L328.500038,301.866536L325.663583,300.082132L322.016646,299.003881L321.057298,299.366286L323.636249,301.389153L327.230906,302.721098L328.581245,302.645321Z M157.447073,305.151257L156.302992,302.825616L153.534336,301.071039L151.220589,297.542340L148.613531,297.082131L144.000084,295.466991L144.829570,298.840954L147.684435,299.615925L148.183631,300.837321L150.665927,302.327621L151.497921,303.828427L156.052319,305.733066L157.447073,305.151257Z M344.313189,295.833456L345.042779,291.653784L342.636302,293.187982L340.916632,295.696547L338.051304,302.558369L335.722079,305.096083L336.928649,306.230649L335.201025,307.692100L335.626697,308.913562L343.989349,308.793429L346.650727,309.791152L344.691922,311.707430L346.346881,311.848395L349.564929,308.300076L350.337659,308.823628L349.735627,312.164396L352.813576,312.777696L353.981378,309.192266L352.766494,304.405625L350.825389,305.122915L351.683683,302.034052L348.917894,300.723236L347.638300,301.762498L345.177503,300.593061L346.150743,299.095962L344.288036,298.170467L342.477571,299.627475L344.313189,295.833456Z M130.627483,279.980317L130.975258,283.541598L135.071087,289.179936L136.177117,289.188701L133.762972,285.517835L134.593604,280.216932L131.931010,280.595119L130.627483,279.980317Z M280.157572,237.763680L278.317172,236.410976L277.845208,240.361251L279.071199,240.858238L280.157572,237.763680Z M272.856572,234.454484L272.915536,233.278395L269.106184,233.220477L267.044959,236.008430L267.652491,237.623266L269.610709,237.760443L272.856572,234.454484Z M263.806535,215.669226L261.802583,215.120023L260.856718,221.195075L260.502063,226.253028L258.091286,229.358838L261.849951,228.760156L262.802265,232.376135L266.748899,229.181506L269.499138,225.834159L271.056780,228.669759L275.372759,230.166175L277.834416,228.205104L275.854399,226.115809L273.812895,226.608844L273.567239,223.576595L265.740473,217.579826L264.321139,218.603443L263.806535,215.669226Z M289.587249,205.331473L291.671189,199.066012L289.505903,197.002998L286.964144,198.039289L285.786135,202.165610L286.478202,205.689126L289.587249,205.331473Z M234.722754,190.738452L230.535571,184.784093L227.593293,182.484841L225.654240,185.988064L223.213575,188.449493L227.001043,191.955050L229.259768,191.108715L232.998091,193.443948L234.722754,190.738452Z M108.977718,185.972323L108.977684,185.972310L108.959656,213.347635L108.945012,248.441968L111.676283,248.607453L114.377656,250.149431L116.313852,252.562480L118.777787,256.125350L121.475776,253.099418L124.260048,251.322851L125.732296,254.151751L127.601319,256.360899L130.140582,258.763288L131.874397,262.523522L134.710589,268.352463L139.425594,271.527671L139.502641,274.624598L137.960279,276.958924L137.960282,276.959047L138.018911,279.422372L141.374104,282.841849L141.860684,286.571136L145.409273,288.512818L145.014218,291.279286L146.559464,295.203861L151.582242,297.013994L158.933083,303.079202L159.305312,303.089931L236.077910,303.089931L237.025026,301.438756L237.517541,303.765246L243.147712,305.402342L245.837991,306.694675L248.084512,306.153684L251.495917,307.234297L252.621767,305.588465L255.437146,303.357348L258.016256,304.206773L261.517798,307.232841L264.630503,307.854937L265.238482,310.230514L264.766230,311.778029L265.930234,312.286859L265.351905,313.643217L265.349723,313.648348L266.093555,313.772391L266.614963,313.180329L267.158948,314.071826L273.596763,315.020702L276.077840,315.794216L278.778847,320.054560L277.885582,321.343935L275.631602,320.807841L274.231974,318.384710L274.583260,320.852547L273.260382,323.006910L273.176968,325.898159L271.381796,327.155727L271.381772,327.155795L270.078235,329.231621L269.468092,330.543076L270.990063,330.778344L275.084463,328.362934L276.609356,328.742288L281.116672,327.212652L281.116686,327.212743L281.116698,327.212654L280.870686,326.070553L280.738656,326.114331L278.785655,325.950153L279.615786,324.643213L284.762828,323.104624L285.993907,323.833377L288.236135,322.736480L288.267807,322.796797L292.357626,319.365767L301.681910,319.335484L301.959425,318.365228L305.010257,315.749625L305.856252,312.625829L307.971738,309.552518L308.893133,310.627555L310.752920,309.933270L311.984291,311.111168L311.981851,316.593903L313.795515,318.827567L316.877853,318.348246L321.316980,318.219247L316.501547,321.455906L316.607855,324.721867L318.713871,325.003048L321.813239,322.230229L324.564118,320.657755L330.706912,318.324840L334.137739,315.728097L332.346818,314.279155L332.153922,311.348951L329.373311,315.874088L324.789935,316.450055L321.187458,314.456263L319.403387,306.981883L322.022831,304.175793L319.567549,302.103546L315.417947,302.526498L309.600372,306.028644L305.148321,311.437884L302.792635,312.105048L305.984803,308.330597L309.985497,302.800741L313.521217,300.916104L315.843344,297.828888L322.878395,297.559828L328.810460,298.471747L333.499228,297.769050L336.989018,294.175126L341.559469,292.600514L345.563076,289.341493L345.360778,284.197091L344.246420,282.440332L342.086487,281.817839L340.987327,277.805304L339.207084,276.271017L334.784654,275.018332L332.291542,272.221013L328.602449,269.419608L329.717694,266.250987L323.038592,253.215598L320.878686,248.278463L319.043611,250.865201L316.390469,256.863304L312.374521,259.809843L310.364328,256.682691L307.831167,255.843954L306.909178,248.918039L306.992132,244.164948L302.046263,243.730183L301.204816,241.486018L295.206326,236.062395L292.908994,237.630397L285.302800,235.421384L283.371901,236.805217L284.298660,245.896464L285.507788,250.965183L282.234745,256.663843L285.603473,260.650195L287.486862,265.050622L287.713789,268.442463L286.176641,271.915381L283.033896,275.346698L278.593993,277.607722L280.550325,280.115421L281.998915,287.454996L280.498184,292.091933L278.362934,293.538099L274.236379,289.290685L272.227629,284.166155L271.364576,279.447553L271.817625,275.289097L264.221165,274.538865L261.282937,272.475540L257.807762,271.114924L255.823141,268.757102L253.050351,266.838895L247.896775,264.630038L244.015729,265.641292L241.469699,256.784070L237.393843,255.889879L237.547189,249.537079L238.622691,245.095478L241.630672,238.557611L245.024195,233.701095L248.250810,232.939329L248.434026,228.929231L250.623802,226.272686L254.593988,225.852609L257.810452,221.503089L258.619783,218.633534L261.292949,212.963855L262.119918,209.498318L264.987728,211.584431L268.845255,210.518696L274.275818,205.603223L274.628744,202.099617L272.673217,198.158696L274.737132,194.141931L274.570085,190.315388L270.847654,186.401619L266.747808,185.223654L262.806245,184.606146L262.654618,193.233162L260.631556,199.723236L257.735762,204.975008L255.052917,200.077637L255.878943,194.527167L252.563272,189.559695L248.856899,195.589416L248.869130,187.678151L243.710951,186.068508L246.171807,182.094497L242.403919,172.605348L239.597736,168.738519L235.939983,167.311305L232.660755,173.674513L232.438433,182.923406L235.675726,186.182467L238.646848,191.038860L237.392734,198.669499L235.161661,198.469895L233.396477,204.296219L233.413035,197.361121L229.115329,194.804114L226.649369,196.125646L226.969429,200.751762L222.923610,200.575568L218.618110,201.737338L213.717864,198.417485L210.620549,199.009413L207.833448,194.936349L205.594748,193.114786L200.000050,194.231483L198.208990,196.819752L201.039607,199.974665L198.022584,203.662347L195.066078,199.283049L192.703598,200.572190L185.217217,201.436180L180.203813,199.862268L184.105966,196.163620L180.364648,192.300566L177.647938,192.796127L173.830931,191.486617L167.340426,188.624167L163.098716,185.284783L159.739362,184.820339L158.692150,187.154235L155.284648,188.452176L154.909812,182.363463L151.216947,187.813348L146.527541,180.565985L144.610926,179.683055L143.991357,183.548537L141.921867,185.433377L140.016540,182.074854L135.477318,184.102230L131.322945,187.617325L127.203241,186.647418L123.844220,189.117507L121.409601,192.361204L118.517468,191.651157L114.151561,187.888974L108.977718,185.972323Z M183.359261,156.217740L180.524983,154.362460L173.099453,160.140203L171.168415,163.813443L168.840575,170.515100L173.683937,172.808622L177.962229,172.687674L171.529772,176.114160L172.993006,179.211504L176.925695,179.378843L182.852185,178.715921L188.215824,180.655403L184.595569,182.085658L180.685762,181.717520L174.559470,183.976907L177.976568,190.267120L180.439254,189.393039L184.225170,191.516348L185.727732,195.131099L197.690321,193.268108L202.897424,190.648759L206.121710,190.175146L210.892101,192.269045L215.911440,193.476250L216.845965,190.645646L215.076844,187.627781L219.630543,186.989334L219.931493,183.455524L214.926493,179.567451L210.268733,175.402295L209.408731,169.284799L207.668038,160.451057L204.561376,156.651235L201.804922,155.120083L199.364423,156.522374L201.334705,166.010835L199.941418,169.703893L197.672182,160.816069L195.137745,157.742166L192.003598,162.507398L188.146709,157.796392L181.974821,160.635523L183.359261,156.217740Z M210.170995,153.341084L208.063148,151.188891L204.346680,151.582284L203.403696,152.951849L207.730330,159.635076L210.170995,153.341084Z M288.272285,156.396895L283.489585,151.071363L277.142136,150.005852L275.808570,150.664386L275.691491,154.182756L278.743059,159.233110L279.546208,159.801539L282.582012,158.539812L288.518005,159.012676L288.272285,156.396895Z M259.921244,155.873526L261.962603,149.567968L254.801219,152.191290L251.949148,156.141168L249.817495,164.476291L250.696714,173.435738L254.636253,173.473357L251.736026,177.357473L254.042750,180.288833L258.540535,181.531211L264.407276,183.923205L274.500634,185.722684L279.529004,184.689198L281.013408,182.294155L283.200599,185.054067L285.644770,185.511434L288.581115,190.426460L286.804832,192.386657L292.423337,194.986368L296.671452,198.627865L298.503201,204.359467L294.915020,211.217041L293.947155,214.626636L294.873743,217.026607L289.164586,217.877756L283.953192,217.995825L282.126388,222.817491L284.472669,225.021615L292.492133,224.000852L292.447989,222.130346L300.624607,228.493030L299.656384,230.249252L303.017684,233.241075L308.969774,236.742461L316.490902,239.111305L316.039575,237.041282L309.230982,228.081703L316.187270,233.031496L319.685301,234.675841L320.640482,230.279655L318.835606,224.041631L317.693173,222.329123L313.927987,219.323580L311.011278,215.450379L311.361489,211.547053L314.949813,210.681487L319.310724,217.218331L322.723262,220.045516L327.591467,212.251659L328.454563,207.367288L324.092004,206.898323L320.105454,200.267814L315.702406,198.644750L309.170141,193.725729L314.262504,190.127639L311.638964,182.661062L309.223027,179.340799L302.527946,176.022446L299.637394,170.529701L294.487271,172.500107L294.128173,168.676531L290.308453,164.398061L284.154705,159.732215L281.530949,163.408448L276.044159,166.043016L276.457003,160.041245L271.699085,150.092793L264.669630,154.114132L262.106214,161.735503L259.921244,155.873526Z M221.663145,149.169014L218.380506,153.923228L221.435886,160.140763L215.773432,158.978721L215.717962,161.958294L222.610567,168.932288L224.529707,172.278589L227.201126,173.001803L231.748695,169.623613L232.247922,161.496236L228.050006,157.463752L230.639302,152.854398L229.918196,150.003074L224.970663,151.253964L221.663145,149.169014Z M241.521631,159.522812L244.828539,157.693752L248.972601,149.040958L243.674640,146.596101L237.895684,146.242591L235.144012,148.984246L233.694937,153.171588L233.652012,157.939427L235.382359,166.043249L238.546374,166.378664L241.521631,159.522812Z M165.906202,172.042338L165.906202,168.207341L169.345321,161.865985L176.146069,155.245617L179.632698,152.803798L176.655058,148.648096L173.961396,145.725755L166.877531,145.159135L162.916720,143.025560L153.542707,144.633393L156.254480,150.794562L153.849066,157.159702L150.738164,167.773974L157.141995,172.420725L158.605867,176.178255L165.906202,172.042338Z M240.366585,137.437974L239.354290,134.015514L236.932835,130.137646L232.945211,133.124306L231.468762,137.997528L234.830921,140.755464L238.857386,141.535192L240.366585,137.437974Z M226.811895,117.672462L226.598365,119.251428L222.697460,118.559409L218.519929,122.603469L215.536243,122.237201L215.712165,131.068301L220.258376,130.209990L220.200854,136.607950L223.182127,138.319136L227.754879,137.223766L229.018437,129.057532L228.931987,123.174280L226.811895,117.672462Z M199.877462,123.813706L198.942299,118.174926L196.078649,116.774480L193.537695,121.139004L197.504220,132.073033L192.658612,131.230756L187.731962,124.513877L179.926521,120.558185L177.316257,123.844519L173.532172,134.825284L177.410028,136.757714L189.940626,135.473146L184.179713,140.194149L184.533443,143.590054L188.751190,143.355960L195.748882,138.823354L205.141367,137.167284L206.829003,132.003358L206.340815,126.492757L203.434399,125.995283L200.964612,127.903834L199.877462,123.813706Z M237.395269,113.045026L231.679018,112.254236L230.635478,117.296802L233.849727,121.002293L239.587047,122.440859L242.371397,127.482111L242.708710,133.025488L243.667904,138.953219L251.039043,142.334872L255.516476,143.610291L261.210154,143.427472L269.166054,141.830546L272.716254,143.092489L276.851717,140.855705L278.581921,138.045472L277.961831,133.573912L274.991375,129.388943L270.484704,128.596540L264.837391,129.554972L260.428753,131.971150L252.641115,130.551672L250.879523,127.878270L247.697163,125.291602L248.329006,120.905060L245.934998,116.964392L240.474293,116.991336L237.395269,113.045026Z M177.725161,106.099578L173.921206,107.993571L169.667215,107.815368L163.971599,115.918309L163.021793,127.284554L167.461245,125.531125L172.616888,120.530878L175.208325,119.950152L177.344565,115.766246L177.725161,106.099578Z M239.736319,107.715582L240.067325,106.241525L238.120559,103.818892L232.535520,103.626533L233.275071,107.264291L238.472705,108.082930L239.736319,107.715582Z M194.398368,105.427671L195.320513,101.484393L191.409925,99.382060L187.360241,100.752948L185.114574,104.968967L189.227893,109.131048L194.398368,105.427671Z M195.851097,93.199820L190.756584,89.681126L187.911321,93.919829L187.866389,95.900821L192.472527,95.914373L195.851097,93.199820Z M234.216277,100.674013L234.967939,95.757036L231.653291,90.883993L230.036814,89.939213L226.445839,89.366199L226.665267,95.206409L227.853922,100.326308L230.112776,103.416241L234.216277,100.674013Z M222.484729,97.044411L220.363108,90.389972L212.863264,85.093839L207.418898,83.071018L207.620554,88.697967L210.974114,92.137502L208.295752,96.280898L214.470425,96.791015L219.035214,101.181923L223.564315,102.664045L222.484729,97.044411Z M258.651483,77.625678L256.460432,67.090880L247.244452,60.294830L243.702852,50.835640L237.252895,51.762289L238.464879,55.867467L235.622004,57.100333L233.700007,62.365361L231.777207,69.744830L233.534430,76.928522L236.591197,82.008485L241.663233,81.893850L239.470794,85.853666L239.428027,91.094874L242.408052,96.789624L248.155624,98.537228L253.061944,97.557884L258.186759,86.943024L261.995334,82.542677L258.651483,77.625678Z M310.016394,12.961383L298.002968,10.001463L289.995228,13.935417L288.521899,11.435131L280.044359,12.400320L275.070505,14.943698L271.409507,18.554317L269.301659,30.172196L266.306283,24.253325L262.867178,23.123696L258.789492,31.008240L253.347835,34.320427L250.109155,34.976548L245.984930,38.772372L246.592766,45.347143L249.831807,50.788008L252.143144,58.003379L257.045775,63.820536L266.750055,62.744200L272.995301,64.690956L268.667376,70.679452L266.477033,68.921896L258.896132,68.217635L260.073337,76.443292L263.990577,82.414770L263.203657,87.560329L258.285439,90.985646L256.039084,96.398209L260.537452,99.016299L264.319540,107.474982L256.904189,101.832116L255.212364,102.763899L256.578610,112.042644L251.451243,114.845419L251.799094,120.635036L257.042863,121.255039L261.170250,122.677960L269.317219,120.852583L276.564719,124.087447L283.975854,116.971219L283.915448,113.984256L279.176231,114.461312L278.788331,111.650365L282.662388,107.861921L283.977518,102.765090L288.262467,98.976216L290.897526,94.265190L288.603827,87.237848L290.520914,84.616403L286.697695,82.749544L295.095054,81.138686L296.862318,78.024622L302.583459,75.447765L307.326947,62.118883L311.846893,57.228222L318.391454,46.223283L312.352915,46.320150L314.860505,42.063056L321.570726,38.112857L328.338358,29.305481L328.460058,23.636266L323.384584,17.659266L317.428944,14.760784L310.016394,12.961383Z " data-id="CA" data-name="Canada" id="CA" style="transform: translate(293px, 229px) scale(0.5);"></path><path d="M551.179268,449.700324L551.014876,451.377976L549.296424,457.052502L548.601734,461.488804L546.775647,462.825786L544.300303,466.951332L544.393177,469.236604L540.444608,473.227941L536.771508,472.984970L536.042850,472.701471L535.033564,473.286495L534.579801,474.002388L534.492947,475.216993L533.787508,475.511422L534.176058,476.376303L537.096996,475.718592L545.281354,475.755476L545.965438,477.834577L548.460990,481.878069L553.854119,479.322996L560.262552,479.701652L560.875548,482.543134L560.466932,484.234058L561.595606,487.006235L561.447266,490.362855L565.057018,489.749969L566.320129,489.916505L567.276815,489.987595L570.496726,491.058778L571.423601,492.344087L573.644545,492.739348L575.340065,491.844989L575.962376,493.330056L578.087724,493.726562L580.248759,496.503429L582.371383,496.526988L582.139485,493.460980L578.689970,492.368684L579.525977,486.193311L578.905242,484.953588L579.695672,483.161789L584.651631,482.480730L584.776642,482.008213L580.966811,476.203201L580.713128,473.461161L581.210461,469.015330L581.222904,469.047696L581.197562,468.566378L580.500149,467.303605L580.756841,465.784851L581.137796,465.570847L581.240559,463.919542L582.038155,463.146195L582.061374,461.054934L582.703894,459.995171L582.859974,457.768892L583.443445,456.479270L586.460982,453.310189L585.349363,452.934313L585.517195,449.687042L585.517175,449.687026L583.075533,447.839810L582.416817,446.651755L580.872217,447.240261L577.602000,447.187003L575.921959,444.889257L575.006264,445.184707L567.702200,445.237806L562.140236,448.241716L553.993573,445.452916L551.428651,447.761705L551.179268,449.700324Z " data-id="CD" data-name="Democratic Republic of the Congo" id="CD"></path><path d="M549.395461,449.545240L547.518207,449.078350L545.865255,450.550829L544.411379,453.134842L544.211872,454.633348L542.008127,453.977516L539.765684,453.245215L536.265575,453.136348L536.063919,454.346921L536.839157,455.780559L539.594985,456.105839L538.394219,459.318252L539.706348,460.958472L538.807708,466.280607L536.359309,466.163834L534.877341,464.830951L534.656623,466.060980L531.834149,467.099124L532.879982,468.935786L530.768394,470.469835L533.045951,473.416558L534.165452,472.214832L535.003466,471.746856L536.042850,472.701471L536.771508,472.984970L540.444608,473.227941L544.393177,469.236604L544.300303,466.951332L546.775647,462.825786L548.601734,461.488804L549.296424,457.052502L551.014876,451.377976L551.179268,449.700324L549.395461,449.545240Z " data-id="CG" data-name="Republic of Congo" id="CG"></path><path d="M594.023315,354.850876L595.897273,353.400888L593.375492,354.417678L590.977113,355.191126L590.781046,355.209705L592.589504,355.132752L592.982928,355.553189L594.225258,355.486049L594.023315,354.850876Z " data-id="-99" data-name="Northern Cyprus" id="-99"></path><path d="M589.463327,355.334466L590.111294,356.692515L591.469000,357.130009L594.311969,355.758357L594.225258,355.486049L592.982928,355.553189L592.589504,355.132752L590.781046,355.209705L589.463327,355.334466Z " data-id="CY" data-name="Cyprus" id="CY"></path><path d="M521.458658,349.223682L520.330700,348.415637L517.367052,348.442507L514.755264,349.809708L513.356425,349.295349L504.068474,350.193039L499.646507,352.658800L496.647960,353.253180L493.981781,355.113467L496.372564,364.803277L492.742890,365.355563L489.883725,366.848148L489.764623,369.250413L486.521853,370.526955L485.461042,372.134698L480.421350,373.480819L475.942484,375.825691L475.966132,379.556296L475.967422,379.765858L475.913962,380.371584L486.345206,387.855449L495.700949,394.474210L505.056691,400.987701L508.727212,403.697555L508.759030,405.568032L511.835617,405.280675L515.746634,403.969584L523.776776,398.149303L533.280429,392.426347L532.063323,390.528255L529.874197,389.114023L528.577547,389.672330L525.847230,384.413587L526.947956,383.120736L526.858093,378.025606L527.195763,373.973447L526.298557,371.149622L525.115563,365.328239L521.113534,361.235491L520.869024,358.723704L522.578876,356.849370L523.231716,354.054646L522.791999,350.788248L523.355404,349.013048L521.458658,349.223682Z " data-id="DZ" data-name="Algeria" id="DZ"></path><path d="M569.794208,367.070053L568.790346,368.628120L568.505232,371.994565L569.337082,374.565124L569.337082,385.683190L569.337082,396.852038L580.486485,396.852038L591.247600,396.852038L602.247873,396.852038L601.761016,396.238826L598.530712,393.541220L598.992303,391.048059L596.503545,387.674352L590.789477,376.256204L589.925287,372.612683L591.904250,377.164316L594.080325,379.580487L594.726963,379.033374L596.857248,373.729150L596.581684,372.900349L595.034626,368.206576L595.034611,368.206585L593.669961,369.022435L587.886028,367.523981L582.326470,368.311960L580.191193,369.337350L573.484355,367.016240L569.794208,367.070053Z " data-id="EG" data-name="Egypt" id="EG"></path><path d="M606.529743,408.665925L605.126111,410.327728L603.083357,410.805411L602.209876,411.695111L601.936218,413.619006L600.741758,417.849463L601.036638,418.997056L604.265693,419.595325L605.131852,417.456437L606.815024,418.758291L609.110525,418.683573L611.012049,418.717870L613.426037,419.865524L614.143242,420.852354L615.372911,421.769031L616.513340,423.438896L617.461344,424.358891L618.648624,424.605514L619.485061,423.911511L618.121479,423.055865L614.210031,418.799515L608.903900,414.684675L608.139842,412.031133L606.529743,408.665925Z " data-id="ER" data-name="Eritrea" id="ER"></path><path d="M490.244185,325.344603L487.941331,325.544920L484.990224,324.892019L481.266530,324.916251L477.872624,324.224565L473.948994,326.978973L475.081825,328.619182L474.942084,331.287185L477.080331,329.792829L477.775594,331.621035L481.504734,331.276694L482.279972,333.137911L480.998515,334.136573L480.400926,339.233535L479.202668,339.530153L480.313714,341.679725L479.327217,348.487254L481.916360,349.025242L485.086537,352.459527L487.882926,349.943503L494.046850,349.956280L496.010671,347.283890L498.104631,346.586792L498.704441,344.299999L500.308663,342.718547L499.226999,340.678384L500.295907,337.743509L502.247976,334.490991L505.801688,333.712852L508.429958,331.244157L508.281618,329.069932L505.066581,329.556861L501.945850,327.853307L500.937567,328.669016L495.832090,326.950935L494.726634,325.471030L490.244185,325.344603Z " data-id="ES" data-name="Spain" id="ES"></path><path d="M601.036638,418.997056L600.594849,421.451732L599.467179,424.256456L597.794380,425.662945L595.012465,429.772761L594.191986,432.721032L594.196903,433.056518L594.229040,435.246500L592.342572,436.171907L591.397868,437.767517L593.101092,437.968013L596.259340,441.096277L597.898433,444.131388L599.339093,444.598781L605.727721,449.438506L609.717292,449.929071L613.070698,447.608094L614.189300,448.547729L616.084374,448.548224L616.842996,447.671753L618.620965,447.620414L621.092694,445.658875L624.705794,445.536184L632.543158,437.157029L630.210437,437.174170L621.142284,433.845474L620.083479,432.842253L619.060424,431.487231L618.036010,429.935034L618.640884,428.934839L618.025388,428.431237L617.357561,428.631633L615.808376,428.584414L616.486299,425.614329L617.461344,424.358891L616.513340,423.438896L615.372911,421.769031L614.143260,420.852325L613.426037,419.865524L611.012136,418.717839L609.110525,418.683573L606.815024,418.758291L605.131852,417.456437L604.265693,419.595325L601.036638,418.997056Z " data-id="ET" data-name="Ethiopia" id="ET"></path><path d="M337.612553,624.833978L335.948463,626.608333L333.591002,625.497551L330.262822,628.173713L331.649564,630.204337L334.007025,628.173713L335.255092,629.751314L338.999295,628.398331L339.831340,626.831220L337.612553,624.833978Z " data-id="FK" data-name="Falkland Islands" id="FK"></path><path d="M535.920308,452.985020L534.278535,453.342532L532.593048,452.970748L531.275043,453.153130L531.298978,456.492171L527.264129,456.463788L526.328368,456.624051L525.769406,458.680602L524.401094,462.508114L526.085291,465.374351L527.918258,467.665245L530.768394,470.469835L532.879982,468.935786L531.834149,467.099124L534.656623,466.060980L534.877341,464.830951L536.359309,466.163834L538.807708,466.280607L539.706348,460.958472L538.394219,459.318252L539.594985,456.105839L536.839157,455.780559L536.063919,454.346921L536.265575,453.136348L535.920308,452.985020Z " data-id="GA" data-name="Gabon" id="GA"></path><path d="M611.152793,324.972917L610.814549,325.424455L611.830714,326.591637L613.367431,327.028275L614.970507,328.421883L615.663047,330.980142L615.249558,332.568580L618.204607,332.392459L620.876018,334.206281L624.730422,333.631564L625.409777,333.028338L629.349459,333.876584L627.983584,331.874165L628.703356,331.361286L626.960110,330.496621L626.111060,328.957982L623.524353,328.169613L621.842449,328.761551L621.356582,328.060745L617.580145,326.242994L613.496996,325.626181L611.152793,324.972917Z " data-id="GE" data-name="Georgia" id="GE"></path><path d="M498.783269,428.450369L491.844824,428.833675L491.779683,430.434966L492.157986,432.555401L492.893810,436.550144L491.725077,438.901430L491.001794,442.055680L492.078585,445.556074L494.550919,446.346615L497.050055,445.539169L498.592075,444.584183L502.940230,442.952790L501.361662,438.811824L501.974801,436.289960L501.019477,431.010356L499.861923,429.555932L500.066016,428.675482L498.783269,428.450369Z " data-id="GH" data-name="Ghana" id="GH"></path><path d="M467.665897,424.800997L465.334092,424.955718L463.340602,424.263294L462.001959,424.233998L461.951294,425.196721L461.883573,426.432876L460.111232,427.288110L458.036334,428.614081L458.842745,429.076929L459.248567,429.698793L459.563449,430.944824L462.044454,432.970873L463.260914,434.633317L466.947630,431.416693L469.165851,431.419822L470.863234,436.187839L471.627006,436.027179L472.219220,435.964661L475.243709,439.099047L475.809336,437.972675L476.593747,438.044410L477.033607,438.041228L477.196996,436.819967L478.277800,435.551867L477.176071,431.185594L477.729086,430.967178L476.881971,430.154419L476.768458,427.615310L471.806949,426.339891L468.226508,425.680036L468.066272,424.640813L467.665897,424.800997Z " data-id="GN" data-name="Guinea" id="GN"></path><path d="M453.290313,422.625999L455.814817,422.686121L458.006236,421.605261L459.195967,422.207723L461.601225,421.618012L458.171059,420.557671L453.644752,421.361488L453.290313,422.625999Z " data-id="GM" data-name="The Gambia" id="GM"></path><path d="M456.876559,424.114670L456.132995,424.434644L455.214577,424.343175L453.745366,424.805913L453.921797,425.413162L455.387927,427.244741L456.555657,427.431875L458.036334,428.614081L460.111232,427.288110L461.883573,426.432876L461.951294,425.196721L462.001959,424.233998L456.876559,424.114670Z " data-id="GW" data-name="Guinea-Bissau" id="GW"></path><path d="M526.761779,453.089803L525.808963,456.205757L526.328368,456.624051L527.264129,456.463788L531.298978,456.492171L531.275043,453.153130L526.761779,453.089803Z " data-id="GQ" data-name="Equatorial Guinea" id="GQ"></path><path d="M565.731499,353.286805L565.218400,354.734587L568.574325,355.954984L572.568184,355.667297L572.914884,354.666633L567.247721,354.435342L565.731499,353.286805Z M572.435179,331.487013L572.404938,333.333433L569.884017,333.681884L567.929942,332.389776L565.709570,333.406617L563.658035,333.299839L563.129389,333.422423L562.673257,334.065133L561.170222,333.993766L560.112922,334.797564L558.298731,335.122411L558.243121,336.083697L557.341758,336.612640L557.175359,337.794017L555.885733,339.546622L556.073487,340.569904L559.061356,346.577561L560.101457,349.364847L562.375717,350.868133L564.217857,350.825032L563.166004,347.765700L564.927166,347.399396L564.109074,345.612446L566.674569,346.542443L566.633005,344.555618L563.715507,341.890891L564.760911,341.108045L563.274214,336.463178L564.741419,338.333789L567.695177,337.739666L565.772633,335.692190L569.131424,334.739601L570.578707,335.086412L572.268494,335.190605L572.927640,334.779256L573.786292,332.470528L572.435179,331.487013Z " data-id="GR" data-name="Greece" id="GR"></path><path d="M545.942219,313.390009L543.734317,314.457794L542.500730,316.478814L542.511049,317.586471L538.038489,317.396587L537.939596,317.460581L538.696345,320.142444L539.546398,318.448829L541.329345,319.069120L542.086095,322.316730L544.418402,325.148461L551.170812,329.043699L551.170814,329.043695L551.475850,328.403495L549.021100,326.971621L543.682434,320.077595L544.263039,318.448829L545.258135,319.351463L551.457030,319.047402L552.711394,319.915184L552.711399,319.915187L553.779160,318.438042L552.898006,317.312733L552.224241,315.774031L552.224205,315.774052L551.187581,316.368730L548.896695,315.602998L546.823374,313.885548L545.942219,313.390009Z " data-id="HR" data-name="Croatia" id="HR"></path><path d="M624.235382,339.229529L622.336200,340.254481L623.202018,344.339166L622.659395,345.431064L624.176252,348.234467L624.176272,348.234513L625.973326,352.354346L627.791960,353.381128L628.001213,355.368275L626.605240,356.535659L625.962433,359.157366L627.883544,362.318536L631.281893,364.125978L632.708967,366.613894L632.254345,368.966171L634.702457,372.370526L635.737971,371.118991L637.500566,372.181861L638.993139,371.662516L642.891974,378.900413L645.562382,379.792863L648.362211,382.189184L651.751387,383.218504L658.007467,381.711107L659.190318,385.506492L665.344352,386.612481L670.561909,387.538151L671.607025,383.963500L675.607621,382.362657L674.051125,380.424125L673.974590,377.662210L671.323244,376.274847L670.206753,374.359663L668.833711,372.682517L671.349186,369.770679L671.122018,367.686762L669.021466,367.138651L667.895801,362.437648L669.081805,360.621575L667.874589,360.130031L668.636641,357.694527L669.767179,353.474360L669.523815,350.586783L667.456370,350.463299L664.286623,347.388930L662.071698,347.006919L659.005001,345.228175L653.960436,345.457334L651.987728,347.460738L649.550651,348.135362L649.284929,348.948480L644.953400,349.865397L641.010421,349.268387L639.084007,347.523057L636.454303,346.795041L635.576875,344.201462L633.156997,342.521127L634.113253,340.754413L632.253771,339.966246L628.982837,342.604415L627.978568,342.708992L626.076232,342.235846L624.675529,340.585934L624.235382,339.229529Z " data-id="IR" data-name="Iran" id="IR"></path><path d="M617.455884,348.027560L616.034399,350.192325L614.516314,351.044471L614.777737,353.548605L613.729897,357.643190L607.589909,361.120690L608.707977,365.137243L612.048710,366.023834L616.181162,368.301751L624.001048,374.755023L629.157549,375.008626L631.193032,371.946887L633.056527,372.213548L634.702457,372.370526L632.254345,368.966171L632.708967,366.613894L631.281893,364.125978L627.883544,362.318536L625.962433,359.157366L626.605240,356.535659L628.001213,355.368275L627.791960,353.381128L625.973326,352.354346L624.176333,348.234486L624.176272,348.234513L622.847149,348.821808L621.873121,347.935741L618.647190,347.485721L617.455884,348.027560Z " data-id="IQ" data-name="Iraq" id="IQ"></path><path d="M543.045504,344.516211L538.110868,345.207977L534.865302,344.885876L534.477182,346.689761L541.879565,350.143490L542.046681,347.280460L543.045504,344.516211Z M525.543814,333.772204L522.631619,334.728785L523.264680,336.819119L523.375756,341.173036L524.425889,342.120115L526.818249,341.153254L527.207802,336.375643L525.543814,333.772204Z M528.962658,311.813687L528.742656,313.471306L527.520821,314.149655L525.468569,313.645874L524.867899,315.263013L520.173904,316.299283L518.980591,315.445861L518.866218,316.570988L519.682447,318.057316L518.720888,319.255765L519.435357,322.271911L520.938679,322.762639L520.621361,324.433687L521.773970,324.152335L524.653344,321.839474L528.289610,323.564520L529.154712,327.339729L535.744880,333.613263L537.796989,333.852207L540.779269,335.994044L544.678964,341.913565L544.076145,342.674352L544.655746,345.380698L546.137140,342.344716L547.295769,342.133468L547.624840,340.266819L545.620314,338.932272L546.787543,336.586276L549.197101,337.185253L550.736398,338.876771L550.967436,336.901700L548.589122,334.996201L544.068835,332.548475L544.846940,331.809155L541.997664,331.009245L538.911474,327.984527L537.516648,324.840379L534.916039,322.903765L534.193114,317.865180L536.448026,316.459307L538.655785,317.037428L537.991479,315.343518L538.292029,313.367624L534.325975,312.324422L533.706387,310.911425L530.965464,311.618651L530.642985,312.390010L528.962658,311.813687Z " data-id="IT" data-name="Italy" id="IT"></path><path d="M607.589909,361.120690L602.158656,364.639078L599.068597,363.335834L598.585309,364.372964L598.584162,366.374737L598.174543,367.330568L598.239326,368.593218L596.857255,373.729162L596.949985,374.190170L600.036605,374.695922L601.899240,372.567261L604.015558,372.124024L605.389173,370.503417L602.624888,367.267702L608.179399,365.630859L608.707977,365.137243L607.589909,361.120690Z " data-id="JO" data-name="Jordan" id="JO"></path><path d="M614.189300,448.547729L613.070698,447.608094L609.717292,449.929071L605.727721,449.438506L599.339093,444.598781L597.898433,444.131388L596.018536,445.966267L594.312300,447.627937L595.627291,449.558013L597.171733,454.138955L596.162490,456.161292L594.004575,459.259923L594.676298,460.311346L594.499868,462.365320L604.556687,468.019381L604.745866,469.631184L608.726702,472.411116L609.843501,471.492353L611.275450,468.521298L611.668869,466.564568L613.393227,465.202935L615.335663,464.094883L613.693401,461.806287L613.660258,451.699884L616.084374,448.548224L614.189300,448.547729Z " data-id="KE" data-name="Kenya" id="KE"></path><path d="M556.184060,327.788984L555.665751,328.634798L556.256614,329.643655L556.920059,330.027374L557.106659,331.380893L557.106705,331.380897L557.459113,331.411797L557.583504,330.648256L559.221357,330.068827L559.842440,329.924911L559.750038,329.643655L560.392737,328.280156L556.847505,327.516838L556.184060,327.788984Z " data-id="-99" data-name="Kosovo" id="-99"></path><path d="M629.157549,375.008626L631.629023,375.314803L632.319700,376.822264L634.281229,376.740364L633.387749,374.350048L633.635269,373.623506L633.056527,372.213548L631.193032,371.946887L629.157549,375.008626Z " data-id="KW" data-name="Kuwait" id="KW"></path><path d="M600.029726,359.634797L601.542077,358.373783L601.088458,357.055675L599.840968,356.883867L599.788798,357.001349L598.409308,359.365790L597.421520,362.074948L598.349685,362.081106L598.605088,361.500439L599.349225,361.456812L600.029726,359.634797Z " data-id="LB" data-name="Lebanon" id="LB" class=""></path><path d="M475.809336,437.972675L475.243709,439.099047L472.219220,435.964661L471.627006,436.027179L470.335946,437.334965L469.084802,438.853882L468.937537,439.667085L468.274736,440.560963L470.142388,442.361888L472.505294,443.887396L475.025355,446.007195L477.883947,447.333478L478.610455,447.308971L479.004308,443.570257L476.465759,438.858073L476.593747,438.044410L475.809336,437.972675Z " data-id="LR" data-name="Liberia" id="LR"></path><path d="M569.118366,365.993231L564.446877,365.037364L563.501008,363.568493L559.749095,362.893788L557.839663,363.343719L554.971354,366.474934L555.617631,368.963237L552.935839,371.281842L549.981192,369.681222L543.582350,367.697307L542.283500,364.796090L535.121479,363.060185L531.863960,361.922313L531.707164,364.455361L527.596783,367.697925L527.651676,370.404170L526.298557,371.149622L527.195763,373.973447L526.858093,378.025606L526.947956,383.120736L525.847230,384.413587L528.577547,389.672330L529.874197,389.114023L532.063323,390.528255L533.280429,392.426347L537.667854,393.727926L539.227790,395.379876L541.189833,394.262713L543.989803,392.613614L555.051591,398.359711L566.113352,404.030632L566.147577,402.794034L569.337082,402.785061L569.337082,396.852038L569.337082,385.683190L569.337082,374.565124L568.505232,371.994565L568.790346,368.628120L569.794208,367.070053L569.118366,365.993231Z " data-id="LY" data-name="Libya" id="LY"></path><path d="M492.777001,355.077171L489.904364,354.327053L487.266921,354.562212L485.594906,353.115370L483.553260,353.098944L480.828174,358.679825L475.988634,361.580133L474.204684,363.811790L472.779042,368.341540L473.472156,372.348779L467.580978,378.011546L465.001867,378.358816L461.798582,382.789917L459.951068,383.918836L458.884094,387.460684L455.672496,391.664590L452.924981,397.193672L452.794126,398.576599L459.088474,398.343286L460.557829,395.923227L461.473237,391.762580L465.328789,388.480483L466.632891,384.609511L468.402939,381.968305L475.607536,381.229720L475.543954,379.556296L475.966132,379.556296L475.942484,375.825691L480.421350,373.480819L485.461042,372.134698L486.521853,370.526955L489.764623,369.250413L489.883725,366.848148L492.742890,365.355563L496.372564,364.803277L493.981781,355.113467L492.777001,355.077171Z " data-id="MA" data-name="Morocco" id="MA"></path><path d="M562.072014,329.643620L560.786655,329.705952L559.842440,329.924911L559.221357,330.068827L557.583504,330.648256L557.459113,331.411797L557.106705,331.380897L557.106659,331.380893L556.754205,332.644770L557.148123,334.228078L558.298731,335.122411L560.112922,334.797564L561.170222,333.993766L562.673257,334.065133L563.129389,333.422423L563.658035,333.299839L563.461108,330.844504L562.072014,329.643620Z " data-id="MK" data-name="Macedonia" id="MK"></path><path d="M508.759030,405.568032L508.727212,403.697555L505.056691,400.987701L495.700949,394.474210L486.345206,387.855449L482.100531,387.910466L484.777674,413.522985L484.641159,415.897735L473.512573,415.941461L467.178023,417.916546L466.244627,418.439174L466.371827,420.219802L466.918679,421.854620L467.956844,422.654993L468.193973,423.755467L468.066272,424.640813L468.226508,425.680036L471.806949,426.339891L476.768458,427.615310L476.881971,430.154419L477.729086,430.967178L478.090620,430.711127L481.000234,431.157494L482.789918,430.071914L483.866852,430.922032L485.011149,430.504324L484.827479,428.865938L485.519805,426.708836L487.721329,424.357711L488.888342,421.710867L490.229566,422.095271L494.450163,418.604896L499.261540,417.557253L501.039757,417.544052L502.817258,417.431311L503.842739,416.410202L510.090650,415.706506L510.326848,413.929804L511.843356,411.997514L511.835617,405.280675L508.759030,405.568032Z " data-id="ML" data-name="Mali" id="ML"></path><path d="M556.412096,327.464484L555.354761,326.677483L554.443477,326.267837L554.038243,325.740134L553.302244,325.084880L552.783963,325.433880L551.882110,326.319853L551.475850,328.403495L551.170767,329.043666L551.170814,329.043695L552.369300,329.788926L553.146763,331.009691L553.727275,331.298434L553.727281,331.298437L553.540681,330.110235L554.743156,328.259226L554.919444,328.968091L555.665751,328.634798L556.184060,327.788984L556.412096,327.464484Z " data-id="ME" data-name="Montenegro" id="ME"></path><path d="M475.913962,380.371584L475.905936,385.071620L466.803017,384.910371L466.892307,392.719759L464.293562,392.990879L463.615354,394.538722L464.141352,398.860255L453.280137,398.841638L452.674881,399.833725L454.136783,401.114930L454.853688,402.520881L455.218375,408.344536L454.099662,412.514075L454.339872,414.072010L459.569970,412.732993L462.736206,414.348114L464.414383,416.467339L466.244627,418.439174L467.178023,417.916546L473.512573,415.941461L484.641159,415.897735L484.777674,413.522985L482.100531,387.910466L486.345206,387.855449L475.913962,380.371584Z " data-id="MR" data-name="Mauritania" id="MR"></path><path d="M533.280429,392.426347L523.776776,398.149303L515.746634,403.969584L511.835617,405.280675L511.843356,411.997514L510.326848,413.929804L510.090650,415.706506L503.842739,416.410202L502.817258,417.431311L501.039757,417.544052L500.819970,418.933693L502.840333,423.478708L506.038172,424.123630L505.975396,426.067608L506.906427,425.236832L507.900664,425.229499L510.015549,426.860902L510.208176,424.328565L512.115528,420.926134L515.096231,420.587862L517.876282,421.653018L521.646125,422.078553L525.002767,423.550296L528.053269,422.267440L531.972170,422.120017L538.815877,424.588047L539.331699,424.525295L539.420990,423.620334L540.203824,423.457171L540.481156,422.115893L538.702508,422.050271L538.708671,420.214189L537.554055,419.154474L538.751668,415.371726L542.289328,412.648936L542.435518,408.871059L543.504140,402.920399L544.107389,401.648565L542.953346,400.633155L542.908773,399.689009L541.870966,398.915487L541.189833,394.262713L539.227790,395.379876L537.667854,393.727926L533.280429,392.426347Z " data-id="NE" data-name="Niger" id="NE"></path><path d="M538.815877,424.588047L531.972170,422.120017L528.053269,422.267440L525.002767,423.550296L521.646125,422.078553L517.876282,421.653018L515.096231,420.587862L512.115528,420.926134L510.208176,424.328565L510.015549,426.860902L509.907483,427.801189L510.531227,429.477381L507.554394,435.744988L507.465390,442.032394L509.912929,442.033836L511.996999,441.999376L513.960534,443.836560L516.358483,447.592983L520.696032,447.176725L523.575406,446.175403L525.608023,441.514251L530.671363,440.956094L532.576709,440.014905L533.888838,436.308572L535.372095,435.153340L537.644349,429.297204L539.980812,427.109501L540.429559,425.655852L539.331699,424.525295L538.815877,424.588047Z " data-id="NG" data-name="Nigeria" id="NG"></path><path d="M656.415714,388.007913L654.999533,388.019845L653.191934,393.515431L653.119412,394.727848L654.390550,396.852034L652.541531,402.794051L644.221159,405.736317L646.390507,410.553831L647.295739,412.580201L648.576910,412.416293L660.275995,405.538083L659.935028,403.572560L662.215452,401.526151L665.876656,395.252811L662.884487,392.142022L657.659048,390.091216L656.415714,388.007913Z M655.511485,384.533579L656.400665,385.025579L656.662088,383.749638L656.319114,383.480930L655.511485,384.533579Z " data-id="OM" data-name="Oman" id="OM"></path><path d="M475.064196,332.539667L475.618715,333.866776L474.904677,339.077729L473.798934,340.383962L475.482415,344.392293L475.319169,349.282271L478.212588,349.388129L479.327217,348.487254L480.313714,341.679725L479.202668,339.530153L480.400926,339.233535L480.998515,334.136573L482.279972,333.137911L481.504734,331.276694L477.775594,331.621035L477.080331,329.792829L474.942084,331.287185L475.064196,332.539667Z " data-id="PT" data-name="Portugal" id="PT"></path><path d="M643.130322,387.117072L643.081448,385.317975L640.737389,386.298410L640.920987,388.527440L641.759430,389.132933L642.528219,388.916204L643.130322,387.117072Z " data-id="QA" data-name="Qatar" id="QA"></path><path d="M582.709484,463.429200L582.038155,463.146195L581.240559,463.919542L581.137796,465.570847L580.756841,465.784851L580.500149,467.303605L582.184346,467.521875L583.033539,465.941059L584.507131,466.122513L584.507193,466.122520L585.307656,465.771081L585.468035,464.138346L584.366879,462.572909L582.709484,463.429200Z " data-id="RW" data-name="Rwanda" id="RW"></path><path d="M475.543954,379.556296L475.607536,381.229720L468.402939,381.968305L466.632891,384.609511L465.328789,388.480483L461.473237,391.762580L460.557829,395.923227L459.088474,398.343286L452.794126,398.576599L452.674881,399.833725L453.280137,398.841638L464.141352,398.860255L463.615354,394.538722L464.293562,392.990879L466.892307,392.719759L466.803017,384.910371L475.905936,385.071620L475.913962,380.371584L475.967422,379.765858L475.966132,379.556296L475.543954,379.556296Z " data-id="EH" data-name="Western Sahara" id="EH"></path><path d="M624.001048,374.755023L616.181162,368.301751L612.048710,366.023834L608.707977,365.137243L608.179399,365.630859L602.624888,367.267702L605.389173,370.503417L604.015558,372.124024L601.899240,372.567261L600.036605,374.695922L596.949985,374.190170L596.606582,375.457588L596.052206,378.294831L597.432986,378.279726L600.536375,382.941143L603.960235,389.957901L606.759061,391.770327L608.349811,395.114532L608.552471,398.964944L610.389307,401.792805L613.544579,404.307215L618.287878,412.222325L618.647764,413.457120L620.315908,409.884392L622.206922,410.377670L631.648085,411.230604L633.635699,408.174715L636.224268,406.859468L644.221159,405.736317L652.541531,402.794051L654.390550,396.852034L653.119412,394.727848L652.560449,395.362890L644.223165,393.846511L643.160850,390.782445L643.054934,390.079584L642.528219,388.916204L641.759430,389.132933L640.920987,388.527440L640.506208,387.777968L638.988410,384.877619L639.096906,382.570296L635.367049,379.452317L634.281229,376.740364L632.319700,376.822264L631.629023,375.314803L629.157549,375.008626L624.001048,374.755023Z " data-id="SA" data-name="Saudi Arabia" id="SA"></path><path d="M602.209876,411.695111L603.083357,410.805411L605.126111,410.327728L606.529743,408.665925L605.011732,407.587103L603.955119,406.867012L602.534041,400.315660L603.142294,399.776986L602.247873,396.852038L591.247600,396.852038L580.486485,396.852038L569.337082,396.852038L569.337082,402.785061L566.147577,402.794034L566.113352,404.030632L566.249890,415.583497L563.858316,415.382229L562.436711,419.938333L561.524984,420.814773L560.841376,424.228323L561.815423,424.063849L563.446814,427.640875L563.413381,428.325847L563.727833,429.534636L565.327469,431.297621L565.063180,434.489468L566.025026,435.297677L566.250139,435.428375L567.101843,435.122661L568.054111,434.592641L569.530127,430.777712L571.529891,430.390514L574.196242,433.049185L575.196124,432.566355L580.338373,433.242249L583.195179,430.729322L585.528236,432.373155L586.956639,432.083280L589.861057,428.500435L588.956402,425.973544L592.098888,425.389252L592.098888,429.518690L593.812971,433.000913L594.196903,433.056518L594.191986,432.721032L595.012465,429.772761L597.794380,425.662945L599.467179,424.256456L600.594849,421.451732L601.036638,418.997056L600.741844,417.849436L601.936300,413.619046L602.209876,411.695111Z " data-id="SD" data-name="Sudan" id="SD"></path><path d="M566.250139,435.428375L568.137188,436.523354L569.681357,438.564723L573.402758,442.902932L575.475935,444.006128L575.921959,444.889257L577.602000,447.187003L580.872217,447.240261L582.416817,446.651755L583.075504,447.839807L585.517168,449.687031L585.517175,449.687026L586.659039,448.929084L588.422669,449.550593L590.655240,448.900121L592.606607,448.906570L594.312300,447.627937L596.018536,445.966267L597.898433,444.131388L596.259340,441.096277L593.101092,437.968013L591.397868,437.767517L592.342572,436.171907L594.229040,435.246500L594.196903,433.056518L593.812971,433.000913L592.098888,429.518690L592.098888,425.389252L588.956402,425.973544L589.861057,428.500435L586.956639,432.083280L585.528236,432.373155L583.195179,430.729322L580.338373,433.242249L575.196124,432.566355L574.196242,433.049185L571.529891,430.390514L569.530127,430.777712L568.054111,434.592641L567.101843,435.122661L566.250139,435.428375Z " data-id="SS" data-name="South Sudan" id="SS"></path><path d="M464.414383,416.467339L462.736206,414.348114L459.569970,412.732993L454.339872,414.072010L453.680870,415.552720L452.337210,417.571122L451.117238,418.116047L452.501029,419.136202L453.644752,421.361488L458.171059,420.557671L461.601225,421.618012L459.195967,422.207723L458.006236,421.605261L455.814817,422.686121L453.290313,422.625999L453.745366,424.805913L455.214577,424.343175L456.132995,424.434644L456.876559,424.114670L462.001959,424.233998L463.340602,424.263294L465.334092,424.955718L467.665897,424.800997L468.066272,424.640813L468.193973,423.755467L467.956844,422.654993L466.918679,421.854620L466.371827,420.219802L466.244627,418.439174L464.414383,416.467339Z " data-id="SN" data-name="Senegal" id="SN"></path><path d="M470.863234,436.187839L469.165851,431.419822L466.947630,431.416693L463.260914,434.633317L463.600735,436.706167L464.086029,437.729235L465.530875,439.227932L467.527518,440.353755L468.274736,440.560963L468.937537,439.667085L469.084802,438.853882L470.335946,437.334965L471.627006,436.027179L470.863234,436.187839Z " data-id="SL" data-name="Sierra Leone" id="SL"></path><path d="M619.662782,427.421785L618.640884,428.934839L618.036010,429.935034L619.060424,431.487231L620.083437,432.842261L621.142284,433.845474L630.210405,437.174180L632.543158,437.157029L634.477152,434.816961L635.729085,433.091767L635.739834,427.613556L635.757028,427.567293L635.757033,427.567281L629.370241,429.246427L622.359991,430.293392L620.565148,427.943255L619.662782,427.421785Z " data-id="-99" data-name="Somaliland" id="-99"></path><path d="M615.961971,463.437932L616.601592,461.975130L619.636892,458.615330L629.146584,451.503367L634.776173,444.596336L637.156237,440.508612L641.573315,429.742255L641.756060,425.828057L636.643309,427.511516L635.757028,427.567293L635.739834,427.613556L635.729085,433.091767L634.477152,434.816961L632.543158,437.157029L624.705794,445.536184L621.092694,445.658875L618.620965,447.620414L616.842996,447.671753L616.084374,448.548224L613.660258,451.699884L613.693401,461.806287L615.335663,464.094883L615.961971,463.437932Z " data-id="SO" data-name="Somalia" id="SO"></path><path d="M556.080366,314.900997L554.349302,314.723802L552.224191,315.774021L552.224205,315.774052L552.898006,317.312733L553.779160,318.438042L552.711394,319.915184L552.711381,319.915202L553.716908,319.904363L553.022372,321.619261L554.359607,323.107934L553.955344,324.915522L553.302244,325.084880L554.038243,325.740134L554.443477,326.267837L555.354761,326.677483L556.412096,327.464484L556.184060,327.788984L556.847505,327.516838L560.392737,328.280156L559.750038,329.643655L559.842440,329.924911L560.786655,329.705952L562.072014,329.643620L562.528214,329.113746L563.751338,326.277803L562.403809,324.629350L562.154999,323.225215L562.839226,322.348738L562.331287,321.673010L559.801910,320.272087L559.584201,318.655919L557.583545,316.467726L556.080366,314.900997Z " data-id="RS" data-name="Serbia" id="RS"></path><path d="M545.403322,312.025521L544.936803,311.980677L544.408082,312.664074L541.982472,312.764750L540.582915,313.679669L538.292029,313.367624L537.991479,315.343518L538.655785,317.037428L538.038489,317.396587L542.511049,317.586471L542.500730,316.478814L543.734317,314.457794L545.942219,313.390009L545.403322,312.025521Z " data-id="SI" data-name="Slovenia" id="SI"></path><path d="M613.729897,357.643190L614.777737,353.548605L614.516314,351.044471L616.034399,350.192325L617.455884,348.027560L614.301042,348.568732L612.806605,348.509894L609.615216,349.811317L605.857555,349.169919L602.804043,350.132954L601.896374,349.460020L600.260763,352.888506L599.581982,354.292500L599.840968,356.883867L601.088458,357.055675L601.542077,358.373783L600.029726,359.634797L599.349225,361.456812L599.391648,362.811501L599.015567,363.313349L599.068597,363.335834L602.158656,364.639078L607.589909,361.120690L613.729897,357.643190Z " data-id="SY" data-name="Syria" id="SY"></path><path d="M555.051591,398.359711L543.989803,392.613614L541.189833,394.262713L541.870966,398.915487L542.908727,399.689030L542.953346,400.633155L544.107389,401.648565L543.504140,402.920399L542.435518,408.871059L542.289328,412.648936L538.751580,415.371714L537.554055,419.154474L538.708671,420.214189L538.702508,422.050271L540.481156,422.115893L540.203824,423.457171L541.306485,425.276568L541.491731,427.157046L541.390258,429.035260L542.899887,431.598765L539.304325,431.488813L538.701792,432.816900L542.811743,438.025464L542.377328,438.783351L544.670365,438.573108L549.825432,437.470913L552.449403,435.397055L552.174795,434.409084L555.635203,434.325429L558.245558,433.023620L560.250657,429.950620L561.657665,428.807689L563.413381,428.325847L563.446814,427.640875L561.815423,424.063849L560.841376,424.228323L561.524984,420.814773L562.436711,419.938333L563.858316,415.382229L566.249890,415.583497L566.113352,404.030632L555.051591,398.359711Z " data-id="TD" data-name="Chad" id="TD"></path><path d="M500.066016,428.675482L499.861923,429.555932L501.019477,431.010356L501.974801,436.289960L501.361662,438.811824L502.940230,442.952790L505.173213,442.357851L504.490133,440.432138L504.616401,433.999955L502.142060,430.222123L502.494923,428.735785L500.066016,428.675482Z " data-id="TG" data-name="Togo" id="TG"></path><path d="M530.809241,361.404005L530.111254,359.822270L528.676871,359.765541L528.149726,357.940914L529.975383,356.247350L530.340572,353.307367L528.235863,349.783691L528.317271,348.027110L526.375808,347.608801L523.355404,349.013048L522.791999,350.788248L523.231716,354.054646L522.578876,356.849370L520.869024,358.723704L521.113534,361.235491L525.115563,365.328239L526.298557,371.149622L527.651676,370.404170L527.596783,367.697925L531.707164,364.455361L531.863960,361.922313L530.809241,361.404005Z " data-id="TN" data-name="Tunisia" id="TN"></path><path d="M600.260763,352.888506L601.896374,349.460020L602.804043,350.132954L605.857555,349.169919L609.615216,349.811317L612.806605,348.509894L614.301042,348.568732L617.455884,348.027560L618.647190,347.485721L621.873121,347.935741L622.847149,348.821808L624.176272,348.234513L624.176333,348.234486L622.659395,345.431064L623.202018,344.339166L622.336200,340.254481L624.235382,339.229529L623.142682,338.174517L621.080397,337.272875L621.347266,335.497998L620.876018,334.206281L618.204607,332.392459L615.249558,332.568580L611.975041,334.494885L609.587555,334.167198L606.356608,334.734003L602.377941,333.309574L597.537039,330.691711L592.948530,330.771110L589.716580,331.824136L586.382727,334.222921L581.096662,333.735337L579.931727,336.521485L575.660680,336.667241L572.584236,340.127067L574.342388,341.837886L572.993139,344.597482L575.019306,346.548236L576.662369,350.009259L579.690226,349.946988L582.372386,351.782037L584.289198,351.374316L584.928565,349.943414L587.918298,350.059547L590.163607,351.908376L594.373025,351.522254L596.280234,349.536187L599.241015,351.332985L600.260763,352.888506Z M577.648436,330.814416L575.260520,330.313258L572.435179,331.487013L573.786292,332.470528L572.927640,334.779256L572.268494,335.190605L572.230800,335.945806L573.103498,337.641709L576.600883,334.545785L579.894176,334.343071L580.398962,333.440387L577.977938,332.245160L577.648436,330.814416Z " data-id="TR" data-name="Turkey" id="TR"></path><path d="M584.366879,462.572909L585.468035,464.138346L585.307656,465.771081L584.507121,466.122444L584.507131,466.122513L584.667955,467.215751L585.265225,467.845290L583.527111,470.779272L582.520870,471.786820L582.227375,471.820703L582.095342,473.022370L583.069226,475.709515L582.433586,476.778075L584.669006,478.672707L584.880121,480.403793L586.275461,483.266257L587.521004,483.822420L589.283600,484.294845L590.857581,485.138125L593.576550,485.662449L594.128694,486.432290L594.286171,485.882578L595.752372,487.387346L595.984413,490.350733L596.897242,491.433653L596.885633,491.480376L597.938346,491.364922L601.271196,492.162706L601.995267,491.804753L603.925997,491.731773L604.914328,490.883010L606.578186,490.929426L609.610833,489.831920L611.817389,488.195948L611.817379,488.195942L610.799548,487.579632L608.683159,483.046673L609.469386,479.168068L607.610514,477.424240L607.446241,475.843248L608.726702,472.411116L604.745866,469.631184L604.556687,468.019381L594.499868,462.365320L594.499866,462.365338L592.223169,464.857194L593.319882,465.808949L587.775261,465.887555L588.380373,462.275316L588.380366,462.275261L588.380290,462.275264L585.339693,462.239730L584.366879,462.572909Z " data-id="TZ" data-name="Tanzania" id="TZ"></path><path d="M592.606607,448.906570L590.655240,448.900121L588.422669,449.550593L586.659039,448.929084L585.517175,449.687026L585.517168,449.687031L585.349289,452.934295L586.460982,453.310189L583.443445,456.479270L582.859974,457.768892L582.703885,459.995143L582.061374,461.054934L582.038155,463.146195L582.709484,463.429200L584.366879,462.572909L585.339693,462.239730L588.380290,462.275264L588.380366,462.275261L588.238770,461.201992L589.508188,459.581394L593.883431,459.070301L594.004575,459.259923L596.162490,456.161292L597.171733,454.138955L595.627291,449.558013L594.312300,447.627937L592.606607,448.906570Z " data-id="UG" data-name="Uganda" id="UG"></path><path d="M68.606556,405.491394L70.644234,404.241826L67.512306,405.562087L68.606556,405.491394Z M67.116779,400.889431L66.623515,400.078161L66.187135,401.101470L67.116779,400.889431Z M160.248296,306.528362L160.692053,309.912226L160.006005,310.990447L158.528736,307.109891L154.517999,305.696036L155.867205,311.930529L156.368387,317.305216L155.693848,324.377926L154.610248,327.965706L155.495378,330.843225L155.592006,334.022663L154.984031,337.056059L156.462020,339.034806L156.844677,341.959529L160.116639,346.903912L162.426673,351.723051L165.117617,355.152604L172.884286,360.313974L174.681676,362.222806L175.148114,363.908325L181.822141,363.297472L181.562515,363.941419L192.077872,367.832221L199.792787,367.807867L199.798168,366.464942L204.602978,366.466030L208.680609,370.066850L209.600351,371.746032L214.026137,375.417911L215.773432,372.903802L218.041032,372.842135L219.995783,374.113295L223.982942,379.920659L225.369684,383.561221L229.502174,385.198160L230.583832,385.105701L229.945931,380.420762L232.098043,377.511553L234.854276,376.150573L237.378867,373.797114L245.874642,373.168864L247.945214,374.851438L249.957639,374.950201L252.012499,372.474798L254.774653,370.901053L257.236008,371.256344L260.371043,370.852501L262.109740,371.647000L266.750055,371.847757L267.832850,372.339222L270.771605,376.746693L270.202320,378.835934L273.378680,385.105701L276.235368,387.532753L277.064556,387.146226L277.964525,381.978952L276.635900,376.992471L273.987681,369.789588L274.415158,367.488583L277.285616,363.993798L285.338952,357.331559L288.207996,356.331700L289.971071,353.813184L288.497658,348.943727L287.710031,342.792848L288.244550,341.251182L288.569408,344.205104L289.986159,345.552535L289.128543,347.934443L291.831413,343.904785L290.524215,340.001703L292.249349,342.002750L294.267502,339.243023L294.866408,336.639493L300.461744,334.802242L299.640072,334.105660L295.566546,334.798196L297.878439,333.732906L304.483295,331.568527L303.568045,329.588321L305.533974,324.471256L308.463243,323.333405L314.274634,320.112827L313.795515,318.827567L311.981851,316.593903L311.984291,311.111168L310.752920,309.933270L308.893133,310.627555L307.971738,309.552518L305.856252,312.625829L305.010257,315.749625L301.959425,318.365228L301.681910,319.335484L292.357626,319.365767L288.267807,322.796797L288.551662,323.336680L288.716054,324.831673L286.635925,326.091897L282.184506,325.634464L280.870686,326.070553L281.116698,327.212654L281.116686,327.212743L281.170562,327.584878L278.780854,329.833506L273.618548,332.445242L271.610726,332.937833L268.517227,331.981292L269.468037,330.543067L269.468092,330.543076L270.078235,329.231621L271.381772,327.155795L271.381796,327.155727L271.381767,327.155748L270.743905,323.371931L267.304780,323.680096L268.830175,322.135398L268.857908,318.581791L266.805512,317.041525L264.448052,316.247390L262.958417,320.093758L262.700792,318.778496L260.176145,322.931301L260.957832,326.922894L260.881226,329.413032L259.755561,331.235589L257.502656,332.179005L256.204860,326.204147L257.358042,321.346146L258.797156,318.334216L256.341662,320.872481L255.965867,320.411239L258.706933,316.446164L262.756259,315.290677L267.473401,315.369727L266.093551,313.772395L266.093555,313.772391L265.349723,313.648348L265.351905,313.643217L265.349701,313.648370L263.921122,312.354969L258.734667,313.606458L255.208975,311.549575L256.100090,309.396074L249.285334,313.096734L247.585299,311.706276L244.806467,312.550602L248.666963,308.597990L251.495887,307.234341L251.495917,307.234297L248.084512,306.153684L245.837991,306.694675L243.147712,305.402342L237.517541,303.765246L237.025026,301.438756L236.077910,303.089931L159.305312,303.089931L160.248296,306.528362Z M75.639544,265.494476L78.039069,263.051219L76.864101,261.438221L71.022585,263.722039L71.451338,266.122225L72.869454,267.431628L75.639544,265.494476Z M40.768954,250.648053L40.504736,248.513526L38.304359,248.005967L35.565586,248.963718L39.067128,251.506513L40.768954,250.648053Z M23.705118,227.850540L24.200445,230.744345L26.645762,230.385548L29.812930,232.837285L32.142657,230.869578L29.388405,230.043009L27.145747,228.399263L25.416977,229.041382L23.705118,227.850540Z M137.960282,276.959047L139.502657,274.624608L139.425594,271.527671L134.710589,268.352463L131.874397,262.523522L130.140613,258.763260L127.601319,256.360899L125.732296,254.151751L124.260048,251.322851L121.475776,253.099418L118.777787,256.125350L116.313852,252.562480L114.377655,250.149391L111.676289,248.607353L108.945041,248.441930L108.977716,185.972323L108.977718,185.972323L108.977684,185.972310L105.964265,184.849263L101.757069,182.411551L98.066770,183.733991L95.931247,182.676868L90.596807,181.908245L84.754072,179.299309L81.925149,180.129307L77.681692,178.715869L77.848090,176.784495L73.160903,176.276992L71.929036,177.908998L69.922074,174.078785L65.725698,172.266671L61.457590,176.829009L58.907502,176.262982L53.650030,179.982907L50.948378,180.927988L48.114796,184.799948L47.454575,188.677275L43.953893,192.226375L39.034020,192.476787L37.481609,196.464878L41.292802,198.825766L43.953392,201.959996L45.926099,205.563183L49.337491,208.258242L51.589393,212.554227L45.735049,212.820575L46.112492,209.370477L43.832140,209.370477L37.645715,212.744568L33.748169,215.583668L37.258167,219.452418L38.422243,222.081077L42.483894,223.629268L46.406807,222.906261L48.593999,224.324499L49.439179,222.904426L52.382188,221.492643L54.085519,221.418635L52.032335,223.912964L53.584746,225.064630L54.100138,227.953514L51.986901,229.889773L49.973060,229.354495L47.735776,232.332801L45.832867,231.350705L43.588633,231.799918L42.599413,234.924038L40.338266,238.259927L39.265129,241.633314L41.402230,244.093371L41.414555,247.312515L45.652566,251.266206L49.258878,250.206425L51.044691,252.170563L50.543202,254.171478L50.781979,257.374199L52.484593,257.378609L55.257334,255.231083L56.294567,257.902153L57.042359,255.983575L58.853613,258.689646L60.355144,256.753772L61.249555,257.671942L64.447537,256.050772L63.036945,259.196695L62.558531,263.160160L59.891348,266.000369L56.046976,269.025874L54.679524,271.070706L51.238823,271.630798L48.282771,274.317329L42.535490,278.065158L42.969976,278.867557L47.729614,277.502104L55.439140,272.870336L57.342837,273.247869L60.587830,271.139654L61.464541,268.797328L65.794279,266.187200L66.481444,263.920052L72.238758,260.155363L74.859647,256.341495L72.830399,253.718549L76.826551,249.807101L78.719427,246.070579L82.254865,242.882135L83.015269,244.324352L80.067673,246.078493L78.820399,251.558576L79.217119,254.773476L82.290552,253.620966L84.732287,251.774921L89.474367,250.269600L88.902362,246.377797L91.980741,245.175262L95.277905,247.587712L100.732448,250.153977L104.572162,249.680410L112.079029,252.695731L117.813984,258.287675L121.064351,259.809056L128.136732,260.277803L129.631312,265.172151L133.206804,269.266698L133.991143,273.585575L136.435673,275.140594L137.960279,276.959052L137.960282,276.959047Z " data-id="US" data-name="United States of America" id="US"></path><path d="M644.221159,405.736317L636.224268,406.859468L633.635699,408.174715L631.648085,411.230604L622.206922,410.377670L620.315908,409.884392L618.647764,413.457120L618.770735,414.716345L618.163903,416.727097L618.960926,417.907503L620.599259,424.090141L624.777719,423.911658L625.207117,423.188164L635.011033,420.195578L637.494260,418.175618L644.687534,415.622141L645.289494,413.357337L647.295739,412.580201L646.390507,410.553831L644.221159,405.736317Z " data-id="YE" data-name="Yemen" id="YE"></path></g></svg>