<svg id="Layer_1" data-name="Layer 1" xmlns="http://www.w3.org/2000/svg" viewBox="0 0 69.32 63.78"><g style="isolation:isolate"><path d="M17.61,26.58,29.46,38.74V55.27h-.09v.06H19.65V48.19L9.73,35.09a2.77,2.77,0,0,1-.66-1.75V13.2a2.86,2.86,0,0,1,5.72,0V24.83a3.77,3.77,0,0,0-1.88,1,3.84,3.84,0,0,0-.07,5.43l5.41,5.57.73-.72-5.42-5.55a2.83,2.83,0,0,1,1.26-4.69,3,3,0,0,1,1.42,0,2.79,2.79,0,0,1,1.37.79m34.52,0L40.27,38.74V55.27h.09v.06h9.73V48.19L60,35.09a2.81,2.81,0,0,0,.65-1.75V13.2a2.86,2.86,0,1,0-5.71,0V24.83a3.7,3.7,0,0,1,1.87,1,3.84,3.84,0,0,1,.08,5.43l-5.41,5.57-.74-.72,5.42-5.55a2.85,2.85,0,0,0-.05-4,2.92,2.92,0,0,0-1.2-.69,3,3,0,0,0-1.43,0,2.8,2.8,0,0,0-1.36.79M34.86,31.1a10.85,10.85,0,0,0,7.94-3.3,10.79,10.79,0,0,0,3.29-7.93,10.83,10.83,0,0,0-3.29-7.94,10.79,10.79,0,0,0-7.94-3.27,10.71,10.71,0,0,0-7.92,3.27,10.76,10.76,0,0,0-3.3,7.94,10.72,10.72,0,0,0,3.3,7.93,10.78,10.78,0,0,0,7.92,3.3" style="fill:#2d3b8e"/></g></svg>