<svg id="Layer_1" data-name="Layer 1" xmlns="http://www.w3.org/2000/svg" viewBox="0 0 55.16 55.29"><path d="M45.19,8.16c-1.74-1.42-2.95-1.09-4.7,2a4.21,4.21,0,0,1-4.11,2.24V12a4,4,0,1,0-3.46,0v.42a4.21,4.21,0,0,1-4.11-2.24c-1.74-3.12-2.95-3.45-4.69-2S15.47,17.85,7.06,17.1A5.54,5.54,0,0,0,13.28,20a5.62,5.62,0,0,0,6.37.76S21.7,22.63,25,21a4.57,4.57,0,0,0,5,.25A4.55,4.55,0,0,0,33,22l.1,9.52-.52-.12s-2.82-.6-5.8-1.44-6-2-6.48-2.6a.72.72,0,0,1,.19-.11,5.59,5.59,0,0,1,1.2-.38,27.24,27.24,0,0,1,3.92-.38,17.66,17.66,0,0,1,3.41,0A2.07,2.07,0,0,0,31.16,25v-.12c-.09-1.15-1-1.21-1.7-1.35a8.14,8.14,0,0,0-2.15-.07c-2.61.19-10.65-.46-11.66,3.77a1.5,1.5,0,0,1,0,.3c.34,3.68,8,5.28,13.49,6.38A7.5,7.5,0,0,0,25.86,39c-.19,2.3,1.64,4.49,5.89,6.94-3.23,2.28-5.35,4.43-5.18,7,.3,2.11,2.17,4.93,5.83,6.71h0s-2.56-3.91-2.73-6c-.17-1.25.54-3.1,3.66-5.32l.09,7.82h0a1.19,1.19,0,0,0,2.37.22.81.81,0,0,0,0-.22h0l.1-7.61c2.87,2.13,3.52,3.9,3.36,5.11-.17,2.14-2.74,6-2.74,6h0C40.17,57.9,42,55.08,42.33,53c.18-2.59-1.94-4.74-5.16-7,4.24-2.45,6.07-4.64,5.88-6.94a7.5,7.5,0,0,0-3.28-5.12c5.53-1.1,13.15-2.7,13.49-6.38a1.5,1.5,0,0,1,0-.3c-1-4.23-9-3.58-11.66-3.77a8.14,8.14,0,0,0-2.15.07c-.73.14-1.61.2-1.71,1.35V25a2.07,2.07,0,0,0,2.1,1.48,17.66,17.66,0,0,1,3.41,0,27,27,0,0,1,3.91.38,5.67,5.67,0,0,1,1.21.38.72.72,0,0,1,.19.11C48.09,28,45,29.2,42.08,30s-5.8,1.44-5.8,1.44l-.21.05L36.26,22a4.55,4.55,0,0,0,3.1-.78,4.61,4.61,0,0,0,5-.25c3.26,1.68,5.3-.17,5.3-.17A5.62,5.62,0,0,0,56,20a5.55,5.55,0,0,0,6.22-2.94c-8.42.75-15.31-7.49-17.06-8.92M29.5,39.78c.05-.83-.23-2.81,3.69-4.25l.09,7.86L31,41.91c-1.06-.65-1.55-1.54-1.45-2.13M38,41.91l-2,1.28.1-7.54c3.59,1.43,3.32,3.32,3.38,4.13A2.51,2.51,0,0,1,38,41.91" transform="translate(-7.06 -4.39)" style="fill:#2d3b8e"/></svg>