<svg id="Layer_1" data-name="Layer 1" xmlns="http://www.w3.org/2000/svg" viewBox="0 0 47.11 52.26"><path d="M33.52,25.09a2.23,2.23,0,1,0,2.32,2.3,2.32,2.32,0,0,0-2.32-2.3Zm8.8,2.26a2.3,2.3,0,0,0,2.23,2.37h0a2.32,2.32,0,0,0,0-4.63h0A2.31,2.31,0,0,0,42.32,27.35ZM34.13,39.78a12.51,12.51,0,0,0,3.08,1.13,8.59,8.59,0,0,0,6.26-1.06A2.25,2.25,0,0,0,44.65,38H33A2.15,2.15,0,0,0,34.13,39.78Zm4.93,4.34A19.18,19.18,0,1,1,58.2,24.9V25A19.17,19.17,0,0,1,39.06,44.12Zm11,9.14c0-.46-.11-.88-.77-.71-.1,0-.24-.16-.38-.22-.4-.19-.81-.38-1.1.16-.27-.82-.39-.86-1.94-.51a2.26,2.26,0,0,0,.31-.23c.1-.1.19-.22.29-.33-.13-.11-.27-.32-.4-.31h-.44c-.46-.06-.93-.12-1.14.58,0,0-.41,0-.48-.1a1.41,1.41,0,0,0-2-.24,1.36,1.36,0,0,0-.24.24,5.17,5.17,0,0,1-.65.59c.13-.88-.14-1.1-.82-.82a4.37,4.37,0,0,0-.77.41c-.3.19-.6.4-.19.79,0,0-.06.25-.11.42a3.21,3.21,0,0,0-.65-.57.69.69,0,0,0-.64.05,1.92,1.92,0,0,1-2,.44c-.36-.17-.73-.36-1.08-.55a2.9,2.9,0,0,1-.29-.19c3.88-2.65,14.32-3.1,18.49,1-.88.21-1.66.4-2.45.61h-.18c-.23,0-.31-.23-.34-.51Zm-11.31,4a9.65,9.65,0,0,1-4.89-3.56A18.19,18.19,0,0,0,29,49.13c-1.29,1.79-3.13,2.14-5.12,1.92a7.46,7.46,0,0,1-5.51-3,3.46,3.46,0,0,1-.55-3l-6-1.56a.71.71,0,0,1-.54-.22c-.09-.14-.27-.6-.17-.69a1.06,1.06,0,0,1,.82-.34c1.47.35,2.92.78,4.38,1.18a1.7,1.7,0,0,1,.32.1,3.06,3.06,0,0,0,3-.12c3-1.64,7.91.08,9.29,3a2.64,2.64,0,0,1,.31,1.23,1,1,0,0,0,.65,1,17.81,17.81,0,0,1,4.53,3.52,5.82,5.82,0,0,0,1.89,1.15A17.57,17.57,0,0,0,46,54.77c2.32-.28,4.61-.81,6.92-1.22h.31a2.47,2.47,0,0,1-.8,1.74A7.65,7.65,0,0,1,49,57.21a19.3,19.3,0,0,1-5.34.81,15.46,15.46,0,0,1-4.86-.79Z" transform="translate(-11.09 -5.76)" style="fill:#2d3b8e"/></svg>