<svg id="Layer_1" data-name="Layer 1" xmlns="http://www.w3.org/2000/svg" xmlns:xlink="http://www.w3.org/1999/xlink" viewBox="0 0 98.5 86"><defs><clipPath id="clip-path"><rect y="0.24" width="98.43" height="85.69" style="fill:none"/></clipPath><clipPath id="clip-path-2"><rect width="98.5" height="86" style="fill:none"/></clipPath><clipPath id="clip-path-3"><rect x="24" y="15.87" width="46.42" height="46.42" style="fill:none"/></clipPath><clipPath id="clip-path-4"><rect x="24" y="15.75" width="46.5" height="46.75" style="fill:none"/></clipPath></defs><g style="clip-path:url(#clip-path)"><g style="isolation:isolate"><g style="clip-path:url(#clip-path-2)"><path d="M68.24,76.13l-45.1-6.65A17.44,17.44,0,0,1,8.25,52.23V25.6a17.43,17.43,0,0,1,15-17.27l45.1-6.41A17.44,17.44,0,0,1,88.22,19.19V58.88a17.44,17.44,0,0,1-20,17.25" style="fill:#2b3990"/><path d="M83.46,41.77A1.5,1.5,0,0,1,82,40.26V38.73a1.51,1.51,0,0,1,3,0v1.53a1.51,1.51,0,0,1-1.51,1.51" style="fill:#fff"/><path d="M83.46,33.41A1.51,1.51,0,0,1,82,31.89V21.55A13.86,13.86,0,0,0,66.15,7.84L60,8.71a1.51,1.51,0,0,1-.43-3l6.14-.87A16.87,16.87,0,0,1,85,21.55V31.89a1.52,1.52,0,0,1-1.51,1.52" style="fill:#fff"/><path d="M32.45,5.06h-.22l-4.72-.7a1.51,1.51,0,0,1,.44-3l4.72.69a1.51,1.51,0,0,1-.22,3"/><path d="M19,77.83A19,19,0,0,1,0,58.88V19.19A18.95,18.95,0,0,1,21.71.44l.76.11a1.51,1.51,0,1,1-.44,3l-.76-.11A15.93,15.93,0,0,0,3,19.19V58.88A15.93,15.93,0,0,0,21.19,74.64L32,73.11a1.51,1.51,0,0,1,.42,3L21.62,77.64a20.09,20.09,0,0,1-2.67.19"/><path d="M48.47,77.74a1.24,1.24,0,1,1-1.24-1.23,1.24,1.24,0,0,1,1.24,1.23" style="fill:#c2c2c2"/><path d="M43.73,78.46a1.23,1.23,0,1,1-1.23-1.23,1.23,1.23,0,0,1,1.23,1.23" style="fill:#c2c2c2"/><path d="M39,79.2A1.23,1.23,0,1,1,37.75,78,1.24,1.24,0,0,1,39,79.2" style="fill:#c2c2c2"/><path d="M34.23,79.94A1.23,1.23,0,1,1,33,78.71a1.23,1.23,0,0,1,1.23,1.23" style="fill:#c2c2c2"/><path d="M29.48,80.69a1.23,1.23,0,1,1-1.23-1.24,1.23,1.23,0,0,1,1.23,1.24" style="fill:#c2c2c2"/><path d="M53.36,80.86a1.23,1.23,0,1,1-1.23-1.24,1.23,1.23,0,0,1,1.23,1.24" style="fill:#c2c2c2"/><path d="M48.63,81.58a1.24,1.24,0,1,1-1.23-1.24,1.23,1.23,0,0,1,1.23,1.24" style="fill:#c2c2c2"/><path d="M43.88,82.32a1.24,1.24,0,0,1-2.47,0,1.24,1.24,0,1,1,2.47,0" style="fill:#c2c2c2"/><path d="M39.13,83.06a1.24,1.24,0,1,1-1.23-1.23,1.24,1.24,0,0,1,1.23,1.23" style="fill:#c2c2c2"/><path d="M98.4,11.59a1.19,1.19,0,1,1-1.14-1.23,1.2,1.2,0,0,1,1.14,1.23" style="fill:#c2c2c2"/><path d="M93.81,12.79a1.19,1.19,0,1,1-2.37-.08,1.19,1.19,0,0,1,2.37.08" style="fill:#c2c2c2"/><path d="M98.4,15.31a1.19,1.19,0,0,1-1.23,1.14A1.2,1.2,0,0,1,96,15.22a1.18,1.18,0,0,1,1.23-1.14,1.17,1.17,0,0,1,1.14,1.23" style="fill:#c2c2c2"/><path d="M93.81,16.51a1.18,1.18,0,0,1-1.22,1.14,1.2,1.2,0,0,1-1.15-1.23,1.18,1.18,0,0,1,1.23-1.14,1.17,1.17,0,0,1,1.14,1.23" style="fill:#c2c2c2"/><path d="M98.43,19.1a1.2,1.2,0,0,1-1.23,1.14A1.18,1.18,0,0,1,96.06,19a1.17,1.17,0,0,1,1.23-1.14,1.19,1.19,0,0,1,1.14,1.23" style="fill:#c2c2c2"/><path d="M93.84,20.3a1.2,1.2,0,0,1-1.23,1.14,1.18,1.18,0,0,1-1.14-1.23,1.17,1.17,0,0,1,1.23-1.14,1.19,1.19,0,0,1,1.14,1.23" style="fill:#c2c2c2"/><path d="M98.4,22.88A1.17,1.17,0,0,1,97.17,24,1.19,1.19,0,0,1,96,22.79a1.2,1.2,0,0,1,1.23-1.14,1.18,1.18,0,0,1,1.14,1.23" style="fill:#c2c2c2"/><path d="M93.81,24.08A1.19,1.19,0,0,1,91.44,24a1.2,1.2,0,0,1,1.23-1.15,1.18,1.18,0,0,1,1.14,1.23" style="fill:#c2c2c2"/><path d="M98.43,26.67a1.18,1.18,0,0,1-1.23,1.14,1.19,1.19,0,0,1,.08-2.37,1.2,1.2,0,0,1,1.15,1.23" style="fill:#c2c2c2"/><path d="M93.84,27.87A1.18,1.18,0,0,1,92.61,29a1.17,1.17,0,0,1-1.14-1.22,1.19,1.19,0,1,1,2.37.08" style="fill:#c2c2c2"/><path d="M98.4,30.45a1.19,1.19,0,1,1-1.14-1.22,1.17,1.17,0,0,1,1.14,1.22" style="fill:#c2c2c2"/><path d="M93.81,31.66a1.18,1.18,0,0,1-1.22,1.14,1.2,1.2,0,0,1-1.15-1.23,1.18,1.18,0,0,1,1.23-1.14,1.17,1.17,0,0,1,1.14,1.23" style="fill:#c2c2c2"/><path d="M58.11,80.12a1.23,1.23,0,1,1-1.23-1.24,1.23,1.23,0,0,1,1.23,1.24" style="fill:#c2c2c2"/><path d="M63,83.23A1.24,1.24,0,1,1,61.78,82,1.24,1.24,0,0,1,63,83.23" style="fill:#c2c2c2"/><path d="M58.28,84a1.24,1.24,0,1,1-1.23-1.23A1.24,1.24,0,0,1,58.28,84" style="fill:#c2c2c2"/><path d="M53.53,84.69a1.24,1.24,0,1,1-1.23-1.23,1.23,1.23,0,0,1,1.23,1.23" style="fill:#c2c2c2"/></g></g></g><g style="clip-path:url(#clip-path-3)"><g style="isolation:isolate"><g style="clip-path:url(#clip-path-4)"><path d="M44.26,20.83c-.86,1.45-.34,1.79-2.42,1.91a6.06,6.06,0,0,0-2.5,1.9c-.23.26-1.08.55-1.43.17-.72-.79.05-1.64.58-2.22-.24-1.49-1.05-.82-2.09-1.17,1-1.34,8.18-2.62,7.86-.59" style="fill:#d1d1d1"/><path d="M45.54,23.27c-.44.78-1.56.53-2,.08.09,0,2.24-.43,2-.08" style="fill:#d1d1d1"/><path d="M40.78,46.58c-.24,1.1-.47,2.2-.71,3.3s-.92,1.11-.77,2.7c.11,1.16-.73,1.87-.82,2.84-1.13.66,2,2.71,2,3-3,.3-4.85-5.39-5.62-7.42-.84-2.21-3.89-3.28-3.84-5.9s-.61-3.08-2.3-4.81c-.59-.61-1.57-.8-1.94-1.3C26,37.88,26,36,25.87,34.61c0,.84.06,1.68.14,2.51-.92-2.5-.28-5.48.62-7.9.59-1.6,1.92-4.64,3.57-5.41.18.07.2.2.08.37a12.65,12.65,0,0,1,3.27-1c0,.73-1.34,1.26-1.92,1.74-1.48,1.22-.27,1.58.07,2.81.39-.19,1.92-3.58,2.4-3,.16.21.38,1.86,1.06.58,2.17,1.94-.85,2.37-2,3.37,2.24-.74-1,1.63-1.35,2.15s-.6,1.12-1,1.59c-1,1.35-.67,2.09-.85,3.65-1-.2.27-2.13-1.51-1.59a1.77,1.77,0,0,0-1.08,1.56A5.24,5.24,0,0,0,27.53,38c.24,1,.81-.27,1.12-.63.35.37,0,1.4-.06,1.95.71-.32.91.76,1.05,1.2.32,1,1,.49,1.24,1.34.3-2.28.9-1.13,2.63-1.19.82,0,1.12,1.59,2.08,1.51.76-.06.87.62,1.13,1.16a2.58,2.58,0,0,0,1.78,1.1c1.09.33,2.58.69,2.28,2.16" style="fill:#d1d1d1"/><path d="M32.07,22.35a1.41,1.41,0,0,1-.55.3c-.07-.29.83-.54.55-.3" style="fill:#d1d1d1"/><path d="M30.68,23.65c.21-.32.44-.63.67-.94.74-.08-1.11,1.25.63,0-.18.81-.55.77-1.3,1" style="fill:#d1d1d1"/><path d="M35.47,21.42c-.33.72-1.39,1.12-1.22-.11.76-1,2-.89,3.06-1a11.16,11.16,0,0,0-1.84,1.12" style="fill:#d1d1d1"/><path d="M35.86,23.94c-.5.8-1.93.63-1.52,0,.52-.75.46-1-.59-.86-.88-1.54,3-.57,2.11.82" style="fill:#d1d1d1"/><path d="M55.56,28.13c-.55.44-.18,1-.16,1.53-1.7-.24-.42.64-1,1.22.06-.06-2.1-2.59-2.76-2.52-.27.86,1.63,1.05,1.58,1.58-.46-.15-.61.49-.69,1a2.36,2.36,0,0,1-.68-.32c.2-.27,1.48-.14.44-.82a10.45,10.45,0,0,0-1.45-1.12c-1.31-.26-1.78,1.63-2.6,2.27-1.13.88-1.81-.23-1.73-1.35.15-2,3,.69,1-2,0,0,1.92-.91,2-.93,1.12-.77.65-.43.72-1.28a5.86,5.86,0,0,0,2.12.49c1-.11.37-.6,1.2-.66.08-.25,0-1.59.67-.74.39.48,1.61,3.43,1.33,3.65" style="fill:#d1d1d1"/><path d="M47.24,25.93c-.11.49-1,1.29-.89.42,0-.39,1-.74.89-.42" style="fill:#d1d1d1"/><path d="M48.92,26.34c-.52.41-.84.92-1.51.3.2-.32.13-.4.07-.77,0-.19-.44-.47-.44-.47,0-.43.88-.88.5-.34l.49,0-.27.47c.51-.29.74,1.11,1.16.77" style="fill:#d1d1d1"/><path d="M51.15,30.14c0,.4-.79-.43-.06-.44a.72.72,0,0,0,.06.44" style="fill:#d1d1d1"/><path d="M61.26,39.75c-.3,1.79-1.78,3.12-2.67,4.63-.51.87-.09,1.87-.25,2.8s-.93,1.28-1.54,1.88-.69,2.08-1.39,2.75-1.35,1.49-2.34,1.52-.27-1.07-.58-1.55a7.39,7.39,0,0,1-.49-4c.35-1.09.88-1.49.29-2.75a4.26,4.26,0,0,1-.54-2.77c.11-1.74-3.84-.79-4.49-.3A5.85,5.85,0,0,1,45.11,35c.36-.86,1.18-1.28,1.5-2.2s.7-1.41,1.7-1.48a10.74,10.74,0,0,0,3-.66c.9.56-.4,1.3,1.17,1.66.28.06,1.4,1,1.48.29s.41-.58,1-.37c.91.35.58.65.89.87.82-.82,1.26,0,1.57-1.29a3,3,0,0,1,0,2,1.87,1.87,0,0,1-.47-.64c.72,1.75,1.33,3.55,2.21,5.24.74,1.45.59,1.42,2.17.76,0,.2,0,.41,0,.61" style="fill:#d1d1d1"/><path d="M67.6,36.25h0" style="fill:#d1d1d1"/><path d="M69.34,32.73a23.79,23.79,0,0,0-6.58-10.6A6.91,6.91,0,0,0,61,20.93c0,.58-.87.51-.41,1-1.51-.39.17.26.1.87-.51,0-1.33-1.62-1.66-1.21a5.39,5.39,0,0,0,.84,1.18c-.9-.6-1.18-.26-2.11-.07s-.89-.41-1.66-.37c.71,1.2-1.18.9-1.67.3.49-.2.83.45,1.32.15-.54-1.86-4-.53-5,0,.54,0-1.44,1.25-1.41,1.18-.4,1.26.86.71,1.26.64a7.5,7.5,0,0,0,.76,1c.29-.14.4-.87.72-.87.59-.07-.44-.81-.18-1.18.13-.18,1.57-.9,1.27-.3-.19.35-1.1.22-.36,1,.38.38,1.14-.36,1.43.08a6.94,6.94,0,0,1,.86,2.18c.33,1.19.44,1,1.19,1.65,0,.25.07.87.6.3-.12-.2-.3-.07-.4-.31a1.75,1.75,0,0,1,.82-.31,1.75,1.75,0,0,0,1,1.73,1.14,1.14,0,0,0-.69.53c.74-1.23-2.92-.54-2.57,0,.47.79,1.55,1.61,2.1.61a14.76,14.76,0,0,0,.39,2.84A15.84,15.84,0,0,0,59,36.91c.47,1.06.6,2.43,1.92,1.57a5.81,5.81,0,0,0,1.63-1.61c.69-1.07,0-1.44-.38-2.46-.66.26-.35,1.32-1.19.22-.22-.29-1-1.34-.51-1.7a1.66,1.66,0,0,1,.88.94c.16.35.55,0,.79.12.67.46,1.12.26,1.77.6s.23.84,1,.89c0,0,.16,1.38.25.45.38.42.31,2.2.4,2.56.52.72-.39,1.66.41,2.3.83-.69.57-2.32,1-3.22,1.09-2.37,1-1.14,1.38.81.12-.11.23-.21.34-.33.69,1.59-.16,3.66.08,5.38.54-1.36-.18-2.8.22-4.18a3.49,3.49,0,0,1,.18,1.82,3,3,0,0,0,.41-2.1c-.21-1.32.22-2.07.29-3.32.08-1.64-.72-3.36-1.2-4.88.35.62.34,1.36.73,2m-8.66-4.37a.66.66,0,0,1-.81.35c.28.4,1,.66,1.07,1.08a.29.29,0,0,0-.31.07c.13.13,1.06,1.2.33,1.2-1.22,0-1-1.62-2.35-1.57.67-.21.78.4,1.33.51,0,0-1.89-2.29-1.33-2.82,0-.05,2.07.78,2.07,1.18" style="fill:#d1d1d1"/><path d="M57.93,29.65s0-.14,0,0" style="fill:#d1d1d1"/><path d="M59.89,48.07c-.12.3-2.29,3.81-1.92,2.34a8,8,0,0,1,.76-2.15s1.58-1.46,1.3-1.39a2.47,2.47,0,0,1-.14,1.2" style="fill:#d1d1d1"/><path d="M66.56,41.19c0-.11,0-1.09-.11-1.09s-.21,1.23-.15,1.35.26,0,.26-.26m-.14-1h0Z" style="fill:#d1d1d1"/><path d="M68.3,45.63a17.78,17.78,0,0,1,0-3.72c.63-.06,0,3.58,0,3.72" style="fill:#d1d1d1"/><path d="M68.49,46.69c0,.06,0-.47-.24-.43,0,0,0,0,0,.05s0-.57.13-.56a.8.8,0,0,1,.13.94" style="fill:#d1d1d1"/><path d="M58.41,21c-.19-.26-2.55,0-.78,1-.47-.78,1.11-.54.78-1m-.76,1c-.13-.05.09,0,0,0m.15.07h0" style="fill:#d1d1d1"/><path d="M51.09,20.18h0" style="fill:#d1d1d1"/><path d="M50.92,20.12h0" style="fill:#d1d1d1"/><path d="M51.88,20.17c.23-.53-4.14.11-1.3.68.37.08.21-.56.49-.67a.83.83,0,0,0,.72.51.63.63,0,0,0-.25-.26,1.7,1.7,0,0,0,.34-.26" style="fill:#d1d1d1"/><path d="M60.66,20.73c.29.26-1.24-.62-1.11-.65s.92.49,1.11.65" style="fill:#d1d1d1"/><path d="M64.73,54l.33-.39c-.75.91.52-.5.12-.24-.16.11-.72.75-.88.63,1.15-1.83,2.59-3.49,3.79-5.29,0,.1.06,0,.12-.19A20.8,20.8,0,0,1,64.73,54" style="fill:#d1d1d1"/><path d="M36.45,28.42c-.09.28-1.21.06-1.57.06.24-.63,1.87-1,1.57-.06" style="fill:#d1d1d1"/><path d="M31.2,37.7c.51-1.34-2-.84-1.58-.62s1.39,1.11,1.58.62m-.67.08h0m0,0h0" style="fill:#d1d1d1"/><path d="M32.37,38a1.66,1.66,0,0,0-.79.17c-1-1.57,1-.28.79-.17" style="fill:#d1d1d1"/><path d="M32.5,23a3.62,3.62,0,0,0-.4.05c0-.11.53-.51.57-.51.3,0-.36.51-.17.46" style="fill:#d1d1d1"/><path d="M33.43,22.45c.4-.44-.64.3-.68.35a1.24,1.24,0,0,0,.68-.35m-.68.36h0m0,0h0" style="fill:#d1d1d1"/><path d="M33.19,22.08a.94.94,0,0,1-.4.28c-.08-.28.88-.78.4-.28" style="fill:#d1d1d1"/><path d="M69.27,40a34.46,34.46,0,0,1-.45,3.55,20.53,20.53,0,0,1-1,3.35,22.27,22.27,0,0,1-2.35,4.52l-.34.47c-.22.32-.47.65-.68.92-.34.42-.79.94-1.13,1.31a20.41,20.41,0,0,1-2.52,2.31l-.25.19c-.36.27-.78.58-1.12.81s-1.09.68-1.6,1a15.62,15.62,0,0,1-2.22,1.07l-.35.14c-.31.12-.64.25-.92.34a19.15,19.15,0,0,1-2.08.6c-.4.09-1.09.23-1.76.33-1.11.17-1.77.21-1.77.21h-.14l.06.94-.15-.94-.55,0h-.82c-.25,0-.49,0-.88,0s-.78,0-1.05-.07a35.5,35.5,0,0,1-4.74-1,21.56,21.56,0,0,1-3.31-1.37c-1-.53-2.16-1.29-2.89-1.77-.27-.18-.59-.45-.91-.71-.16-.13-.31-.26-.45-.36-.37-.3-.86-.77-1.23-1.14s-.68-.7-1.17-1.24a23.39,23.39,0,0,1-2-2.73,22.17,22.17,0,0,1-1.58-3,21.88,21.88,0,0,1-1.77-8,14.49,14.49,0,0,1,0-1.77c0-.18,0-.39,0-.6,0-.41.06-.85.11-1.21a15,15,0,0,1,.29-1.71,20,20,0,0,1,1-3.37,22.08,22.08,0,0,1,1.47-3.06l.27-.45c.22-.35.45-.72.66-1s.7-1,1-1.38a21.55,21.55,0,0,1,2.35-2.49c.33-.29.86-.75,1.29-1.08s1-.78,1.46-1.05a21.61,21.61,0,0,1,3.21-1.74c.4-.19,1-.41,1.41-.57s.78-.27,1.6-.49c1.1-.28,4-.73,4.32-.75l.93,0h.27s.47,0,1.27,0,1.35.09,1.64.13,1,.13,1.36.2a24.19,24.19,0,0,1,2.53.61c.62.2,1.13.38,1.47.51s1,.42,1.53.66a23,23,0,0,1,2.93,1.69,29,29,0,0,1,2.64,2.11,22,22,0,0,1,2.31,2.51,21.62,21.62,0,0,1,1.9,2.84,21,21,0,0,1,1.45,3.12,33.28,33.28,0,0,1,1,3.4,23.31,23.31,0,0,1,.4,5.21m.7-5.47A32.11,32.11,0,0,0,69,31a23.83,23.83,0,0,0-1.52-3.29,23.22,23.22,0,0,0-2-3A23.61,23.61,0,0,0,63,22.09a29.41,29.41,0,0,0-2.75-2.2,23.45,23.45,0,0,0-3.07-1.76c-.52-.26-1.24-.55-1.62-.7s-.85-.31-1.54-.53a22.91,22.91,0,0,0-2.68-.66L49.91,16c-.26,0-1-.11-1.72-.14l-1,0h-.81l-.72,0h0c-.32,0-3.44.49-4.56.79-.87.23-1.32.39-1.69.51s-1.06.4-1.5.61a23.4,23.4,0,0,0-3.36,1.82c-.44.29-1.05.72-1.53,1.1s-1,.81-1.35,1.14a22.18,22.18,0,0,0-2.48,2.62c-.34.42-.77,1-1.08,1.45-.18.27-.4.61-.6,1l-.35.55a23.24,23.24,0,0,0-1.57,3.27,21.36,21.36,0,0,0-1,3.49,17,17,0,0,0-.32,1.84c0,.36-.08.81-.11,1.27,0,0,0,.46-.05.59a15.73,15.73,0,0,0,0,1.93,22.77,22.77,0,0,0,.68,4.84,22,22,0,0,0,1.17,3.49,22.49,22.49,0,0,0,1.67,3.2,21.87,21.87,0,0,0,2.14,2.88c.5.56.91,1,1.21,1.3s.91.89,1.33,1.22l.43.34c.29.24.68.56,1,.78.79.52,2,1.28,3,1.83a23.56,23.56,0,0,0,3.5,1.45,36.59,36.59,0,0,0,5,1c.27,0,.76.06,1.11.07s.66,0,.91,0H48l.78,0A18.17,18.17,0,0,0,50.69,62c.7-.11,1.44-.25,1.85-.35a20.06,20.06,0,0,0,2.17-.62c.29-.09.68-.25,1-.37l.33-.13a18.09,18.09,0,0,0,2.39-1.15c.48-.28,1.17-.68,1.66-1s.78-.55,1.16-.84l.27-.19a22.76,22.76,0,0,0,2.65-2.45c.38-.4.84-.94,1.19-1.37.21-.26.45-.59.68-.92l.37-.51a23.31,23.31,0,0,0,2.51-4.81l0,0a22.84,22.84,0,0,0,1-3.45,35.07,35.07,0,0,0,.46-3.69A23.61,23.61,0,0,0,70,34.55" style="fill:#54d3bd"/></g></g></g></svg>