<svg id="Layer_1" data-name="Layer 1" xmlns="http://www.w3.org/2000/svg" xmlns:xlink="http://www.w3.org/1999/xlink" viewBox="0 0 98.5 86"><defs><clipPath id="clip-path"><rect x="0.04" y="0.15" width="98.43" height="85.69" style="fill:none"/></clipPath><clipPath id="clip-path-2"><rect x="0.04" y="-0.08" width="98.5" height="86" style="fill:none"/></clipPath><clipPath id="clip-path-3"><rect x="29.39" y="21.59" width="39.29" height="36.96" style="fill:none"/></clipPath><clipPath id="clip-path-4"><rect x="29.29" y="21.42" width="39.5" height="37.25" style="fill:none"/></clipPath></defs><g style="clip-path:url(#clip-path)"><g style="isolation:isolate"><g style="clip-path:url(#clip-path-2)"><path d="M68.28,76,23.18,69.4A17.44,17.44,0,0,1,8.28,52.15V25.51a17.44,17.44,0,0,1,15-17.26l45.1-6.41A17.44,17.44,0,0,1,88.26,19.1V58.79A17.43,17.43,0,0,1,68.28,76" style="fill:#2b3990"/><path d="M83.49,41.69A1.52,1.52,0,0,1,82,40.18V38.65a1.52,1.52,0,0,1,3,0v1.53a1.52,1.52,0,0,1-1.52,1.51" style="fill:#fff"/><path d="M83.49,33.32A1.51,1.51,0,0,1,82,31.81V21.47A13.84,13.84,0,0,0,66.18,7.76L60,8.63a1.51,1.51,0,0,1-.42-3l6.14-.88A16.89,16.89,0,0,1,85,21.47V31.81a1.51,1.51,0,0,1-1.52,1.51" style="fill:#fff"/><path d="M32.49,5l-.23,0-4.71-.69a1.51,1.51,0,1,1,.44-3L32.7,2a1.51,1.51,0,0,1-.21,3"/><path d="M19,77.74A18.94,18.94,0,0,1,0,58.79V19.11A18.94,18.94,0,0,1,21.75.36l.76.11a1.51,1.51,0,1,1-.45,3l-.75-.11A15.93,15.93,0,0,0,3.06,19.11V58.79A15.93,15.93,0,0,0,21.23,74.56L32,73a1.52,1.52,0,0,1,.43,3L21.65,77.55a18.44,18.44,0,0,1-2.67.19"/><path d="M48.5,77.66a1.24,1.24,0,0,1-2.47,0,1.24,1.24,0,1,1,2.47,0" style="fill:#c2c2c2"/><path d="M43.77,78.38a1.24,1.24,0,1,1-1.23-1.24,1.23,1.23,0,0,1,1.23,1.24" style="fill:#c2c2c2"/><path d="M39,79.12a1.24,1.24,0,1,1-1.23-1.24A1.23,1.23,0,0,1,39,79.12" style="fill:#c2c2c2"/><path d="M34.27,79.86A1.24,1.24,0,1,1,33,78.63a1.24,1.24,0,0,1,1.23,1.23" style="fill:#c2c2c2"/><path d="M29.52,80.6a1.24,1.24,0,1,1-1.23-1.23,1.23,1.23,0,0,1,1.23,1.23" style="fill:#c2c2c2"/><path d="M53.4,80.77a1.24,1.24,0,1,1-1.23-1.23,1.23,1.23,0,0,1,1.23,1.23" style="fill:#c2c2c2"/><path d="M48.67,81.49a1.24,1.24,0,1,1-1.23-1.23,1.23,1.23,0,0,1,1.23,1.23" style="fill:#c2c2c2"/><path d="M43.92,82.24A1.24,1.24,0,1,1,42.68,81a1.23,1.23,0,0,1,1.24,1.24" style="fill:#c2c2c2"/><path d="M39.17,83a1.24,1.24,0,1,1-1.24-1.24A1.23,1.23,0,0,1,39.17,83" style="fill:#c2c2c2"/><path d="M98.44,11.51a1.19,1.19,0,0,1-2.38-.09,1.19,1.19,0,0,1,2.38.09" style="fill:#c2c2c2"/><path d="M93.85,12.71a1.18,1.18,0,0,1-1.23,1.14,1.17,1.17,0,0,1-1.14-1.23,1.19,1.19,0,0,1,1.23-1.14,1.2,1.2,0,0,1,1.14,1.23" style="fill:#c2c2c2"/><path d="M98.44,15.22A1.19,1.19,0,1,1,97.3,14a1.2,1.2,0,0,1,1.14,1.23" style="fill:#c2c2c2"/><path d="M93.85,16.42a1.19,1.19,0,1,1-1.14-1.23,1.19,1.19,0,0,1,1.14,1.23" style="fill:#c2c2c2"/><path d="M98.46,19a1.19,1.19,0,0,1-2.37-.08,1.2,1.2,0,0,1,1.23-1.15A1.18,1.18,0,0,1,98.46,19" style="fill:#c2c2c2"/><path d="M93.87,20.21A1.19,1.19,0,1,1,92.73,19a1.17,1.17,0,0,1,1.14,1.22" style="fill:#c2c2c2"/><path d="M98.44,22.8a1.2,1.2,0,0,1-1.23,1.14,1.17,1.17,0,0,1-1.14-1.23,1.19,1.19,0,0,1,2.37.09" style="fill:#c2c2c2"/><path d="M93.85,24a1.19,1.19,0,1,1-1.14-1.23A1.2,1.2,0,0,1,93.85,24" style="fill:#c2c2c2"/><path d="M98.46,26.59a1.19,1.19,0,1,1-2.37-.09,1.2,1.2,0,0,1,1.23-1.14,1.17,1.17,0,0,1,1.14,1.23" style="fill:#c2c2c2"/><path d="M93.87,27.79a1.17,1.17,0,0,1-1.23,1.14A1.19,1.19,0,0,1,91.5,27.7a1.2,1.2,0,0,1,1.23-1.14,1.18,1.18,0,0,1,1.14,1.23" style="fill:#c2c2c2"/><path d="M98.44,30.37a1.19,1.19,0,1,1-1.14-1.23,1.2,1.2,0,0,1,1.14,1.23" style="fill:#c2c2c2"/><path d="M93.85,31.57a1.17,1.17,0,0,1-1.23,1.14,1.19,1.19,0,1,1,1.23-1.14" style="fill:#c2c2c2"/><path d="M58.15,80a1.24,1.24,0,1,1-1.23-1.23A1.24,1.24,0,0,1,58.15,80" style="fill:#c2c2c2"/><path d="M63.05,83.15a1.24,1.24,0,1,1-1.23-1.24,1.23,1.23,0,0,1,1.23,1.24" style="fill:#c2c2c2"/><path d="M58.32,83.87a1.24,1.24,0,1,1-1.24-1.24,1.23,1.23,0,0,1,1.24,1.24" style="fill:#c2c2c2"/><path d="M53.57,84.61a1.24,1.24,0,1,1-1.24-1.23,1.24,1.24,0,0,1,1.24,1.23" style="fill:#c2c2c2"/></g></g></g><g style="clip-path:url(#clip-path-3)"><g style="isolation:isolate"><g style="clip-path:url(#clip-path-4)"><path d="M42.34,22.94a2.24,2.24,0,1,0,2.24,2.24,2.24,2.24,0,0,0-2.24-2.24m0,5.83a3.59,3.59,0,1,1,3.59-3.59,3.59,3.59,0,0,1-3.59,3.59" style="fill:#d1d1d1"/><path d="M55.65,22.94a2.24,2.24,0,1,0,2.24,2.24,2.24,2.24,0,0,0-2.24-2.24m0,5.83a3.59,3.59,0,1,1,3.59-3.59,3.59,3.59,0,0,1-3.59,3.59" style="fill:#d1d1d1"/><path d="M32.84,46a.69.69,0,0,1-.68-.68v-1a.68.68,0,0,1,1.36,0v1a.69.69,0,0,1-.68.68" style="fill:#d1d1d1"/><path d="M46.11,46a.69.69,0,0,1-.68-.68v-1a.68.68,0,0,1,1.36,0v1a.69.69,0,0,1-.68.68" style="fill:#d1d1d1"/><path d="M59.38,46a.69.69,0,0,1-.68-.68v-1a.68.68,0,0,1,.68-.67.67.67,0,0,1,.67.67v1a.68.68,0,0,1-.67.68" style="fill:#d1d1d1"/><path d="M44.05,29.28a.68.68,0,0,0-.87.39l-.84,2.18-.83-2.18a.69.69,0,0,0-.88-.39.67.67,0,0,0-.39.87L41.71,34h0a.51.51,0,0,0,.09.16s0,0,0,0l.12.1,0,0,.13.07h0a.57.57,0,0,0,.22,0,.54.54,0,0,0,.22,0h0l.13-.07v0a.4.4,0,0,0,.12-.1l0,0L43,34h0l1.47-3.82a.67.67,0,0,0-.39-.87" style="fill:#d1d1d1"/><path d="M57.36,29.28a.67.67,0,0,0-.87.39l-.84,2.18-.84-2.18a.67.67,0,0,0-1.26.48L55,34h0l.09.16,0,0a.4.4,0,0,0,.12.1l0,0,.13.07h0a.62.62,0,0,0,.44,0h0l.13-.07,0,0,.12-.1,0,0a.51.51,0,0,0,.09-.16h0l1.47-3.82a.67.67,0,0,0-.39-.87" style="fill:#d1d1d1"/><path d="M62.32,28.57a2.24,2.24,0,1,1-2.24,2.24,2.25,2.25,0,0,1,2.24-2.24m0,5.83a3.59,3.59,0,1,0-3.59-3.59,3.59,3.59,0,0,0,3.59,3.59" style="fill:#d1d1d1"/><path d="M67.33,44a.72.72,0,0,1-1.24.55.58.58,0,0,1-.19-.34h0a.76.76,0,0,0,0-.15V38.87a.68.68,0,1,0-1.35,0v5.18a.77.77,0,0,0,0,.15h0a.34.34,0,0,1,0,.1v0h0l-.11,12a.69.69,0,0,0,0,.2.53.53,0,0,1-.36.65c-.29.08-.69,0-.8-.17L63,46.66a.67.67,0,0,0-.67-.65h0a.69.69,0,0,0-.68.65l-.38,10.23a.59.59,0,0,1-.26.23.76.76,0,0,1-.5.06l-.05,0a.47.47,0,0,1-.32-.25.56.56,0,0,1,0-.4.68.68,0,0,0,0-.19L60.08,46v-1.9h0V38.87a.68.68,0,1,0-1.35,0v5.18h0c0,.05,0,.1,0,.15a.82.82,0,0,1-.2.35A.73.73,0,0,1,57.28,44V38.28a2.1,2.1,0,0,1,2.1-2.1h.94l1.36,3.54h0l.09.16,0,0a.4.4,0,0,0,.12.1v0l.14.07h0a.54.54,0,0,0,.22,0,.57.57,0,0,0,.22,0h0l.13-.07,0,0,.12-.1,0,0a.51.51,0,0,0,.09-.16h0l1.36-3.54h.93a2.1,2.1,0,0,1,2.1,2.1Zm-5-6.4-.55-1.41h1.09Zm2.93-2.76H59.38a3.45,3.45,0,0,0-3.45,3.45V44a2.12,2.12,0,0,0,1.63,2.08,2.09,2.09,0,0,0,.43,0,2.12,2.12,0,0,0,.75-.14l0,10.27a1.88,1.88,0,0,0,1.29,2.22h0a2.06,2.06,0,0,0,1.46-.13,1.85,1.85,0,0,0,.68-.51,2,2,0,0,0,1.6.72,2.28,2.28,0,0,0,.63-.09,1.89,1.89,0,0,0,1.32-2.22L65.91,46a2.17,2.17,0,0,0,.71.13,2,2,0,0,0,.43,0A2.12,2.12,0,0,0,68.68,44V38.28a3.45,3.45,0,0,0-3.44-3.45" style="fill:#d1d1d1"/><path d="M49.05,28.57a2.24,2.24,0,1,1-2.24,2.24,2.24,2.24,0,0,1,2.24-2.24m0,5.83a3.59,3.59,0,1,0-3.59-3.59,3.59,3.59,0,0,0,3.59,3.59" style="fill:#d1d1d1"/><path d="M54.06,44a.75.75,0,0,1-.56.75.73.73,0,0,1-.68-.2.58.58,0,0,1-.19-.34h0a.76.76,0,0,0,0-.15V38.87a.68.68,0,1,0-1.35,0v5.18a.77.77,0,0,0,0,.15v.1s0,0,0,0l-.11,12a.58.58,0,0,0,0,.19.53.53,0,0,1-.36.66.79.79,0,0,1-.8-.17l-.31-10.33a.67.67,0,0,0-.67-.65h0a.69.69,0,0,0-.68.65L48,56.89a.59.59,0,0,1-.26.23.76.76,0,0,1-.5.06l0,0a.54.54,0,0,1-.37-.66.57.57,0,0,0,0-.18l0-10.37v-1.9h0V38.87a.68.68,0,1,0-1.35,0v5.18h0c0,.05,0,.1,0,.15a.82.82,0,0,1-.2.35A.73.73,0,0,1,44,44V38.28a2.1,2.1,0,0,1,2.1-2.1h.81s0,0,0,.07l1.47,3.82h0l.09.16,0,0a.4.4,0,0,0,.12.1,0,0,0,0,0,0,0l.13.07h0a.54.54,0,0,0,.22,0,.57.57,0,0,0,.22,0h0l.13-.07,0,0,.12-.1,0,0a.51.51,0,0,0,.09-.16h0l1.47-3.82s0,0,0-.07H52a2.1,2.1,0,0,1,2.09,2.1Zm-5-6-.68-1.77h1.36ZM52,34.83H46.11a3.45,3.45,0,0,0-3.45,3.45V44a2.12,2.12,0,0,0,1.63,2.08,2.09,2.09,0,0,0,.43,0,2.12,2.12,0,0,0,.75-.14l0,10.27a1.88,1.88,0,0,0,1.3,2.22h0a2.09,2.09,0,0,0,1.47-.13,1.9,1.9,0,0,0,.67-.51,2,2,0,0,0,1.6.72,2.28,2.28,0,0,0,.63-.09,1.89,1.89,0,0,0,1.32-2.22L52.64,46a2.17,2.17,0,0,0,.71.13,2,2,0,0,0,.43,0A2.12,2.12,0,0,0,55.41,44V38.28A3.45,3.45,0,0,0,52,34.83" style="fill:#d1d1d1"/><path d="M35.78,28.57a2.24,2.24,0,1,1-2.24,2.24,2.24,2.24,0,0,1,2.24-2.24m0,5.83a3.59,3.59,0,1,0-3.59-3.59,3.59,3.59,0,0,0,3.59,3.59" style="fill:#d1d1d1"/><path d="M40.79,44a.72.72,0,0,1-1.24.55.72.72,0,0,1-.19-.34h0a.76.76,0,0,0,0-.15V38.87a.68.68,0,1,0-1.35,0v5.18a.77.77,0,0,0,0,.15v.1s0,0,0,0l-.11,12a.69.69,0,0,0,0,.2.52.52,0,0,1-.36.65.79.79,0,0,1-.8-.17l-.3-10.33A.68.68,0,0,0,35.8,46h0a.67.67,0,0,0-.67.65l-.39,10.23a.59.59,0,0,1-.26.23.76.76,0,0,1-.5.06l0,0a.52.52,0,0,1-.36-.65,1.37,1.37,0,0,0,0-.19L33.54,46v-1.9h0V38.87a.68.68,0,1,0-1.35,0v5.18h0c0,.05,0,.1,0,.15a.73.73,0,0,1-.2.35A.73.73,0,0,1,30.74,44V38.28a2.1,2.1,0,0,1,2.1-2.1h.95l1.36,3.54h0a.51.51,0,0,0,.09.16l0,0,.12.1,0,0,.13.07h0a.63.63,0,0,0,.44,0h0l.13-.07,0,0a.58.58,0,0,0,.12-.1l0,0a.8.8,0,0,0,.08-.16h0l1.36-3.54h.93a2.1,2.1,0,0,1,2.09,2.1Zm-5-6.4-.54-1.41h1.09Zm2.92-2.76H32.84a3.45,3.45,0,0,0-3.45,3.45V44A2.13,2.13,0,0,0,31,46.07a2.09,2.09,0,0,0,.43,0A2.12,2.12,0,0,0,32.2,46l0,10.27a1.88,1.88,0,0,0,1.29,2.22h0a2.09,2.09,0,0,0,1.47-.13,1.81,1.81,0,0,0,.67-.51,2,2,0,0,0,1.6.72,2.28,2.28,0,0,0,.63-.09,1.89,1.89,0,0,0,1.32-2.22L39.37,46a2.17,2.17,0,0,0,.71.13,2,2,0,0,0,.43,0A2.12,2.12,0,0,0,42.14,44V38.28a3.45,3.45,0,0,0-3.44-3.45" style="fill:#d1d1d1"/></g></g></g></svg>