<svg id="Layer_1" data-name="Layer 1" xmlns="http://www.w3.org/2000/svg" xmlns:xlink="http://www.w3.org/1999/xlink" viewBox="0 0 98.5 86"><defs><clipPath id="clip-path"><rect x="0.04" y="0.15" width="98.43" height="85.69" style="fill:none"/></clipPath><clipPath id="clip-path-2"><rect x="0.04" y="-0.08" width="98.5" height="86" style="fill:none"/></clipPath></defs><g style="clip-path:url(#clip-path)"><g style="isolation:isolate"><g style="clip-path:url(#clip-path-2)"><path d="M68.28,76,23.18,69.4A17.44,17.44,0,0,1,8.28,52.15V25.51a17.44,17.44,0,0,1,15-17.26l45.1-6.41A17.44,17.44,0,0,1,88.26,19.1V58.79A17.43,17.43,0,0,1,68.28,76" style="fill:#2b3990"/><path d="M83.49,41.69A1.52,1.52,0,0,1,82,40.18V38.65a1.52,1.52,0,0,1,3,0v1.53a1.52,1.52,0,0,1-1.52,1.51" style="fill:#fff"/><path d="M83.49,33.32A1.51,1.51,0,0,1,82,31.81V21.47A13.84,13.84,0,0,0,66.18,7.76L60,8.63a1.51,1.51,0,0,1-.42-3l6.14-.88A16.89,16.89,0,0,1,85,21.47V31.81a1.51,1.51,0,0,1-1.52,1.51" style="fill:#fff"/><path d="M32.49,5l-.23,0-4.71-.69a1.51,1.51,0,1,1,.44-3L32.7,2a1.51,1.51,0,0,1-.21,3"/><path d="M19,77.74A18.94,18.94,0,0,1,0,58.79V19.11A18.94,18.94,0,0,1,21.75.36l.76.11a1.51,1.51,0,1,1-.45,3l-.75-.11A15.93,15.93,0,0,0,3.06,19.11V58.79A15.93,15.93,0,0,0,21.23,74.56L32,73a1.52,1.52,0,0,1,.43,3L21.65,77.55a18.44,18.44,0,0,1-2.67.19"/><path d="M48.5,77.66a1.24,1.24,0,0,1-2.47,0,1.24,1.24,0,1,1,2.47,0" style="fill:#c2c2c2"/><path d="M43.77,78.38a1.24,1.24,0,1,1-1.23-1.24,1.23,1.23,0,0,1,1.23,1.24" style="fill:#c2c2c2"/><path d="M39,79.12a1.24,1.24,0,1,1-1.23-1.24A1.23,1.23,0,0,1,39,79.12" style="fill:#c2c2c2"/><path d="M34.27,79.86A1.24,1.24,0,1,1,33,78.63a1.24,1.24,0,0,1,1.23,1.23" style="fill:#c2c2c2"/><path d="M29.52,80.6a1.24,1.24,0,1,1-1.23-1.23,1.23,1.23,0,0,1,1.23,1.23" style="fill:#c2c2c2"/><path d="M53.4,80.77a1.24,1.24,0,1,1-1.23-1.23,1.23,1.23,0,0,1,1.23,1.23" style="fill:#c2c2c2"/><path d="M48.67,81.49a1.24,1.24,0,1,1-1.23-1.23,1.23,1.23,0,0,1,1.23,1.23" style="fill:#c2c2c2"/><path d="M43.92,82.24A1.24,1.24,0,1,1,42.68,81a1.23,1.23,0,0,1,1.24,1.24" style="fill:#c2c2c2"/><path d="M39.17,83a1.24,1.24,0,1,1-1.24-1.24A1.23,1.23,0,0,1,39.17,83" style="fill:#c2c2c2"/><path d="M98.44,11.51a1.19,1.19,0,0,1-2.38-.09,1.19,1.19,0,0,1,2.38.09" style="fill:#c2c2c2"/><path d="M93.85,12.71a1.18,1.18,0,0,1-1.23,1.14,1.17,1.17,0,0,1-1.14-1.23,1.19,1.19,0,0,1,1.23-1.14,1.2,1.2,0,0,1,1.14,1.23" style="fill:#c2c2c2"/><path d="M98.44,15.22A1.19,1.19,0,1,1,97.3,14a1.2,1.2,0,0,1,1.14,1.23" style="fill:#c2c2c2"/><path d="M93.85,16.42a1.19,1.19,0,1,1-1.14-1.23,1.19,1.19,0,0,1,1.14,1.23" style="fill:#c2c2c2"/><path d="M98.46,19a1.19,1.19,0,0,1-2.37-.08,1.2,1.2,0,0,1,1.23-1.15A1.18,1.18,0,0,1,98.46,19" style="fill:#c2c2c2"/><path d="M93.87,20.21A1.19,1.19,0,1,1,92.73,19a1.17,1.17,0,0,1,1.14,1.22" style="fill:#c2c2c2"/><path d="M98.44,22.8a1.2,1.2,0,0,1-1.23,1.14,1.17,1.17,0,0,1-1.14-1.23,1.19,1.19,0,0,1,2.37.09" style="fill:#c2c2c2"/><path d="M93.85,24a1.19,1.19,0,1,1-1.14-1.23A1.2,1.2,0,0,1,93.85,24" style="fill:#c2c2c2"/><path d="M98.46,26.59a1.19,1.19,0,1,1-2.37-.09,1.2,1.2,0,0,1,1.23-1.14,1.17,1.17,0,0,1,1.14,1.23" style="fill:#c2c2c2"/><path d="M93.87,27.79a1.17,1.17,0,0,1-1.23,1.14A1.19,1.19,0,0,1,91.5,27.7a1.2,1.2,0,0,1,1.23-1.14,1.18,1.18,0,0,1,1.14,1.23" style="fill:#c2c2c2"/><path d="M98.44,30.37a1.19,1.19,0,1,1-1.14-1.23,1.2,1.2,0,0,1,1.14,1.23" style="fill:#c2c2c2"/><path d="M93.85,31.57a1.17,1.17,0,0,1-1.23,1.14,1.19,1.19,0,1,1,1.23-1.14" style="fill:#c2c2c2"/><path d="M58.15,80a1.24,1.24,0,1,1-1.23-1.23A1.24,1.24,0,0,1,58.15,80" style="fill:#c2c2c2"/><path d="M63.05,83.15a1.24,1.24,0,1,1-1.23-1.24,1.23,1.23,0,0,1,1.23,1.24" style="fill:#c2c2c2"/><path d="M58.32,83.87a1.24,1.24,0,1,1-1.24-1.24,1.23,1.23,0,0,1,1.24,1.24" style="fill:#c2c2c2"/><path d="M53.57,84.61a1.24,1.24,0,1,1-1.24-1.23,1.24,1.24,0,0,1,1.24,1.23" style="fill:#c2c2c2"/><path d="M60.46,19.39c-.09-.2-.77-.41-.77-.41H38.36s-.67.21-.76.41c-1.07,2.41-2.1,4.82-3.19,7.43H63.65c-1.09-2.61-2.12-5-3.19-7.43" style="fill:#d1d1d1"/><path d="M52.05,35.57l3-4.3h.14a.64.64,0,0,1,.56.7v3a.54.54,0,0,1-.56.58Zm-2.9,0,3-4.3h1.2l-3,4.3Zm-2.91,0,3-4.3h1.2l-3,4.3Zm-3.33,0a.54.54,0,0,1-.56-.58V32a.64.64,0,0,1,.56-.7H47.5l-3,4.3ZM54.49,46.48V37h.66a1.91,1.91,0,0,0,2-2V32a2,2,0,0,0-2-2.08H42.91A2.13,2.13,0,0,0,40.82,32v3a2,2,0,0,0,2.09,2H53.1v9.53Z" style="fill:#54d3bd"/><path d="M36.36,34v1.72a6.28,6.28,0,0,0,.62.71V47.09H34.85s-.14,4.3-.24,6.6H63.44c-.1-2.3-.23-6.6-.23-6.6H61.09v-18h-3l0,18H40l0-18H37v1.06a5.47,5.47,0,0,0-.62.71v1.76H33.14V27.74H29.25a.69.69,0,1,0,0,1.38H31.6V34Z" style="fill:#d1d1d1"/><path d="M64.05,55.23H34c-.95,0-1,.26-1.23,1.49s-.48,2.35-.73,3.73H66c-.25-1.38-.48-2.51-.73-3.73s-.29-1.49-1.23-1.49" style="fill:#d1d1d1"/></g></g></g></svg>