<svg id="Layer_1" data-name="Layer 1" xmlns="http://www.w3.org/2000/svg" viewBox="0 0 109.8 102.26"><path d="M23.48,82.09H67.69V30l-9.86-9.85H23.48Zm45.29,2.18H22.4a1.09,1.09,0,0,1-1.09-1.09V19.08A1.08,1.08,0,0,1,22.4,18H58.28a1.09,1.09,0,0,1,.77.31L69.54,28.8a1.12,1.12,0,0,1,.32.77V83.18A1.09,1.09,0,0,1,68.77,84.27Z" style="fill:#717171"/><path d="M59.37,28.48h6.78L59.37,21.7Zm9.4,2.17H58.28a1.08,1.08,0,0,1-1.08-1.08V19.08a1.09,1.09,0,0,1,1.85-.77L69.54,28.8A1.11,1.11,0,0,1,69.78,30,1.1,1.1,0,0,1,68.77,30.65Z" style="fill:#717171"/><path d="M60.51,38.9H30.66a1.09,1.09,0,0,1,0-2.17H60.51a1.09,1.09,0,0,1,0,2.17Z" style="fill:#717171"/><path d="M60.51,45.31H30.66a1.09,1.09,0,0,1,0-2.17H60.51a1.09,1.09,0,0,1,0,2.17Z" style="fill:#717171"/><path d="M60.51,51.71H30.66a1.09,1.09,0,0,1,0-2.17H60.51a1.09,1.09,0,0,1,0,2.17Z" style="fill:#717171"/><path d="M60.51,58.11H30.66a1.09,1.09,0,0,1,0-2.17H60.51a1.09,1.09,0,0,1,0,2.17Z" style="fill:#717171"/><path d="M60.51,64.51H30.66a1.09,1.09,0,0,1,0-2.17H60.51a1.09,1.09,0,0,1,0,2.17Z" style="fill:#717171"/><path d="M60.51,70.92H30.66a1.09,1.09,0,0,1,0-2.17H60.51a1.09,1.09,0,0,1,0,2.17Z" style="fill:#717171"/><path d="M79,70.05h3.48V26.64a1.74,1.74,0,1,0-3.48,0Zm4.56,2.17H77.93a1.09,1.09,0,0,1-1.09-1.09V26.64a3.91,3.91,0,0,1,7.82,0V71.13A1.09,1.09,0,0,1,83.57,72.22Z" style="fill:#717171"/><path d="M79.6,72.22l1.15,2.56,1.15-2.56Zm1.15,6.29a1.08,1.08,0,0,1-1-.64l-2.82-6.29a1.1,1.1,0,0,1,.08-1,1.07,1.07,0,0,1,.91-.49h5.64a1.07,1.07,0,0,1,.91.49,1.1,1.1,0,0,1,.08,1l-2.82,6.29A1.08,1.08,0,0,1,80.75,78.51Z" style="fill:#717171"/><path d="M87.41,47.48a1.09,1.09,0,0,1-1.09-1.09v-11a3.26,3.26,0,0,0-3.26-3.25H77.93a1.09,1.09,0,1,1,0-2.17h5.13a5.43,5.43,0,0,1,5.43,5.42v11A1.08,1.08,0,0,1,87.41,47.48Z" style="fill:#717171"/></svg>