<svg id="Layer_1" data-name="Layer 1" xmlns="http://www.w3.org/2000/svg" viewBox="0 0 109.8 102.26"><path d="M53,83.9a1.18,1.18,0,0,1-1.18-1.18V69.84a1.18,1.18,0,0,1,2.35,0V82.72A1.17,1.17,0,0,1,53,83.9Z" style="fill:#717171"/><path d="M48,68.19A1.17,1.17,0,0,1,46.82,67v-9.2a1.18,1.18,0,0,1,2.35,0V67A1.17,1.17,0,0,1,48,68.19Z" style="fill:#717171"/><path d="M53,83.9H48a1.18,1.18,0,0,1-1.18-1.18V68.19H46a2.84,2.84,0,0,1-2.84-2.84V56.42a1.18,1.18,0,0,1,2.35,0v8.93a.49.49,0,0,0,.49.49h2A1.17,1.17,0,0,1,49.17,67V81.55H53a1.18,1.18,0,0,1,0,2.35Z" style="fill:#717171"/><path d="M60.3,52.58H44.37a1.18,1.18,0,1,1,0-2.35H60.3a1.18,1.18,0,1,1,0,2.35Z" style="fill:#717171"/><path d="M58,83.9H53a1.18,1.18,0,1,1,0-2.35h3.82V67A1.17,1.17,0,0,1,58,65.84h2a.49.49,0,0,0,.5-.49V51.8a1.18,1.18,0,1,1,2.35,0V65.35a2.85,2.85,0,0,1-2.85,2.84h-.78V82.72A1.18,1.18,0,0,1,58,83.9Z" style="fill:#717171"/><path d="M58,68.19A1.17,1.17,0,0,1,56.81,67v-9.2a1.18,1.18,0,0,1,2.35,0V67A1.17,1.17,0,0,1,58,68.19Z" style="fill:#717171"/><path d="M53,42.36a2.53,2.53,0,1,0,2.52,2.53A2.53,2.53,0,0,0,53,42.36Zm0,7.4a4.88,4.88,0,1,1,4.87-4.87A4.87,4.87,0,0,1,53,49.76Z" style="fill:#717171"/><path d="M32.58,83.9a1.18,1.18,0,0,1-1.18-1.18V62.8a1.18,1.18,0,0,1,2.35,0V82.72A1.17,1.17,0,0,1,32.58,83.9Z" style="fill:#717171"/><path d="M25.63,59.59a1.18,1.18,0,0,1-1.18-1.18V44.12a1.18,1.18,0,1,1,2.35,0V58.41A1.18,1.18,0,0,1,25.63,59.59Z" style="fill:#717171"/><path d="M26.8,81.55H38.36V58.41a1.17,1.17,0,0,1,1.17-1.17h2.41A1.25,1.25,0,0,0,43.19,56V41.42a6.11,6.11,0,0,0-6.1-6.1h-9a6.11,6.11,0,0,0-6.1,6.1V56a1.25,1.25,0,0,0,1.25,1.25h2.41a1.17,1.17,0,0,1,1.17,1.17ZM39.53,83.9H25.63a1.18,1.18,0,0,1-1.18-1.18V59.59H23.22a3.6,3.6,0,0,1-3.6-3.6V41.42A8.46,8.46,0,0,1,28.07,33h9a8.46,8.46,0,0,1,8.45,8.45V56a3.6,3.6,0,0,1-3.6,3.6H40.71V82.72A1.18,1.18,0,0,1,39.53,83.9Z" style="fill:#717171"/><path d="M39.53,59.59a1.17,1.17,0,0,1-1.17-1.18V44.12a1.18,1.18,0,1,1,2.35,0V58.41A1.18,1.18,0,0,1,39.53,59.59Z" style="fill:#717171"/><path d="M32.58,20.71a4.11,4.11,0,1,0,4.11,4.11A4.11,4.11,0,0,0,32.58,20.71Zm0,10.57A6.46,6.46,0,1,1,39,24.82,6.47,6.47,0,0,1,32.58,31.28Z" style="fill:#717171"/><path d="M75.24,21.25a3.69,3.69,0,1,0,3.68,3.69A3.69,3.69,0,0,0,75.24,21.25Zm0,9.72a6,6,0,1,1,6-6A6,6,0,0,1,75.24,31Z" style="fill:#717171"/><path d="M70.38,81.55h10V66.27h-10ZM81.52,83.9H69.21A1.18,1.18,0,0,1,68,82.72V65.1a1.17,1.17,0,0,1,1.18-1.17H81.52A1.17,1.17,0,0,1,82.7,65.1V82.72A1.18,1.18,0,0,1,81.52,83.9Z" style="fill:#717171"/><path d="M75.36,83.9a1.18,1.18,0,0,1-1.17-1.18V65.1a1.18,1.18,0,0,1,2.35,0V82.72A1.18,1.18,0,0,1,75.36,83.9Z" style="fill:#717171"/><path d="M75.24,63.92h9.15L81.06,42.17a1.17,1.17,0,0,1,.78-1.29,1.18,1.18,0,0,1,1.41.56l4.54,8.46a1.34,1.34,0,0,0,.87.69,1.1,1.1,0,0,0,.9-.18,1.19,1.19,0,0,0,.35-1.53L83.08,35a2.06,2.06,0,0,0-1.84-1.15h-.79a.93.93,0,0,0-.58.27,6.63,6.63,0,0,1-9.27,0,.9.9,0,0,0-.57-.27h-.79A2.07,2.07,0,0,0,67.39,35L60.63,48.75a1.29,1.29,0,0,0,0,1.43,1.16,1.16,0,0,0,1,.44,1.13,1.13,0,0,0,.92-.62l4.59-8.56a1.18,1.18,0,0,1,2.2.73L66.08,63.93Zm10.52,2.36H64.71a1.17,1.17,0,0,1-.89-.41,1.21,1.21,0,0,1-.27-1l2.51-16.33L64.7,51.11A3.48,3.48,0,0,1,61.93,53a3.53,3.53,0,0,1-3.39-5.28l6.74-13.74a4.44,4.44,0,0,1,4-2.47H70a3.2,3.2,0,0,1,2.19.92,5,5,0,0,0,3,1.24h.1a5,5,0,0,0,3-1.24,3.24,3.24,0,0,1,2.2-.92h.79a4.43,4.43,0,0,1,4,2.47L92,47.79a3.53,3.53,0,0,1-1,4.52,3.43,3.43,0,0,1-2.81.57A3.73,3.73,0,0,1,85.71,51l-1.29-2.42,2.5,16.33a1.17,1.17,0,0,1-.26,1A1.19,1.19,0,0,1,85.76,66.28Z" style="fill:#717171"/><path d="M88.39,83.9H18.57a1.18,1.18,0,0,1,0-2.35H88.39a1.18,1.18,0,1,1,0,2.35Z" style="fill:#717171"/><path d="M39.53,57.6H25.63a1.18,1.18,0,1,1,0-2.35h13.9a1.18,1.18,0,1,1,0,2.35Z" style="fill:#717171"/></svg>