<svg id="Layer_1" data-name="Layer 1" xmlns="http://www.w3.org/2000/svg" viewBox="0 0 85.66 47.04"><path d="M8.84,21.72A2.87,2.87,0,0,1,10,22,3.1,3.1,0,0,1,12,24.81,2.87,2.87,0,0,1,11.72,26a3,3,0,0,1-.67,1,3.11,3.11,0,0,1-1,.68,3.46,3.46,0,0,1-1.19.24,3.21,3.21,0,0,1-2.2-.9A3,3,0,0,1,6,26a3.21,3.21,0,0,1-.25-1.19A3.11,3.11,0,0,1,7.65,22,3,3,0,0,1,8.84,21.72Z" style="fill:#221a16"/><path d="M11.82,37.73l.93,7.55a1.52,1.52,0,0,1-3,.46l-.9-4.92L8,45.74a1.52,1.52,0,0,1-3-.46l.93-7.55-.6-4.33L1.64,36a1,1,0,0,1-1.32-1.6l4.86-4.6a1.64,1.64,0,0,1,1.11-.44h6.49l3.64-2.6a1,1,0,0,1,1.32,1.59l-5.33,5Z" style="fill:#221a16"/><path d="M14.42,26l6-12.13a1.5,1.5,0,0,1,1.36-.84h12.6a1.51,1.51,0,0,1,1.35.83L41.6,25.52a2.08,2.08,0,0,1-3.7,1.89l-4-7.73-.82,7.88L35,44.06a2.67,2.67,0,0,1-2.65,3h0a2.66,2.66,0,0,1-2.64-2.34l-1.63-13.2-1.58,13.2a2.66,2.66,0,0,1-5.28-.61L23.11,27.6l-.88-7.86L18.1,27.85A2.06,2.06,0,0,1,14.42,26Z"/><path d="M28,0a5.65,5.65,0,0,1,1.08.11,5.41,5.41,0,0,1,1,.31,5.89,5.89,0,0,1,1,.51,7,7,0,0,1,.84.69,7,7,0,0,1,.69.84,5.89,5.89,0,0,1,.51,1,5.41,5.41,0,0,1,.31,1,5.65,5.65,0,0,1,.11,1.08,5.57,5.57,0,0,1-.11,1.08,5.2,5.2,0,0,1-.31,1,5.5,5.5,0,0,1-.51,1,7,7,0,0,1-.69.84,5.5,5.5,0,0,1-.84.69,5.89,5.89,0,0,1-1,.51,6.25,6.25,0,0,1-1,.32,5.64,5.64,0,0,1-1.08.1,5.57,5.57,0,0,1-1.08-.1,6,6,0,0,1-1-.32,5.5,5.5,0,0,1-3-3,6,6,0,0,1-.32-1,5.57,5.57,0,0,1-.1-1.08,5.64,5.64,0,0,1,.1-1.08,6.25,6.25,0,0,1,.32-1,5.89,5.89,0,0,1,.51-1,5.5,5.5,0,0,1,.69-.84,7,7,0,0,1,.84-.69,5.5,5.5,0,0,1,1-.51,5.2,5.2,0,0,1,1-.31A5.57,5.57,0,0,1,28,0Z"/><path d="M53.21,0a5.49,5.49,0,0,1,1.08.11,5.2,5.2,0,0,1,1,.31,5.5,5.5,0,0,1,1,.51,7,7,0,0,1,.84.69,5.5,5.5,0,0,1,.69.84,5.89,5.89,0,0,1,.51,1,5.44,5.44,0,0,1,.32,1,5.64,5.64,0,0,1,.1,1.08,5.57,5.57,0,0,1-.1,1.08,5.23,5.23,0,0,1-.32,1,5.5,5.5,0,0,1-3,3,6,6,0,0,1-1,.32,5.49,5.49,0,0,1-1.08.1,5.64,5.64,0,0,1-1.08-.1,6.25,6.25,0,0,1-1-.32,6.33,6.33,0,0,1-1-.51,5.5,5.5,0,0,1-.84-.69,7,7,0,0,1-.69-.84,5.5,5.5,0,0,1-.51-1,5.2,5.2,0,0,1-.31-1,5.57,5.57,0,0,1-.11-1.08,5.65,5.65,0,0,1,.11-1.08,5.41,5.41,0,0,1,.31-1,5.89,5.89,0,0,1,.51-1,7,7,0,0,1,.69-.84,7,7,0,0,1,.84-.69,6.33,6.33,0,0,1,1-.51,5.41,5.41,0,0,1,1-.31A5.65,5.65,0,0,1,53.21,0Z"/><path d="M38.53,25.25l8.84-11.57a1.6,1.6,0,0,1,1.28-.63h9a1.6,1.6,0,0,1,1.27.62l8.93,11.48a1.9,1.9,0,0,1-2.8,2.55l-6.31-7.27L61.6,32.7H57.66L58.05,45A1.87,1.87,0,0,1,56.19,47h0a1.86,1.86,0,0,1-1.88-1.69L53.24,34l-1,11.33a1.87,1.87,0,0,1-3.74-.23l.35-12.31H44.89l2.73-12.26-6.27,7.3a1.91,1.91,0,0,1-2.46.15h0A1.9,1.9,0,0,1,38.53,25.25Z"/><path d="M65.62,25.93l6.88,3.53h5.41a1.45,1.45,0,0,1,.68.16l6.6,3.3a1.26,1.26,0,0,1,.17,1.81,1.44,1.44,0,0,1-1.57.28l-5.21-1.84,2,7.64-2.21,0-.11,5A1.18,1.18,0,0,1,77.14,47h0A1.18,1.18,0,0,1,76,45.89l-.52-5-.49,5a1.18,1.18,0,0,1-2.36-.09l-.14-5H70.23l2-7.65-6.6-5.13Z"/><path d="M74.91,22a3,3,0,0,1,1.19.23,3.14,3.14,0,0,1,1.69,1.67A3,3,0,0,1,78,25.1a3.23,3.23,0,0,1-.23,1.19A3.11,3.11,0,0,1,76.12,28a3,3,0,0,1-1.19.24A3.18,3.18,0,0,1,73.75,28a3.11,3.11,0,0,1-1.7-4,3.13,3.13,0,0,1,.67-1,3,3,0,0,1,1-.68A3,3,0,0,1,74.91,22Z" style="fill:#221a16"/></svg>