<svg id="Layer_1" data-name="Layer 1" xmlns="http://www.w3.org/2000/svg" viewBox="0 0 17.92 17.85"><path d="M1.1,5.08c0,.23,0,.56.11.87A7.52,7.52,0,0,0,2.5,8.85,24.77,24.77,0,0,0,7.29,14a12.94,12.94,0,0,0,4.46,2.43,5.75,5.75,0,0,0,2.7.26,3.17,3.17,0,0,0,2.18-1.42.83.83,0,0,0-.11-1.16l-2.4-2.4a.8.8,0,0,0-1.25,0l-1,1a.9.9,0,0,1-1.17.18c-.52-.3-1-.6-1.54-.94a12.51,12.51,0,0,1-4.08-4.7.89.89,0,0,1,.17-1.12C5.59,5.76,6,5.41,6.31,5a.78.78,0,0,0,0-1.15L3.79,1.35A.76.76,0,0,0,2.73,1.3a3.13,3.13,0,0,0-.42.39A5.3,5.3,0,0,0,1.1,5.08ZM0,4.55c.07-.38.12-.76.21-1.13A5.5,5.5,0,0,1,2,.47,1.9,1.9,0,0,1,4.57.56C5.42,1.4,6.26,2.25,7.1,3.1a1.88,1.88,0,0,1,.06,2.66c-.3.32-.61.62-.93.93a.49.49,0,0,1-.15.1,11.45,11.45,0,0,0,3.43,4.05c.48.34,1,.63,1.49.95a.15.15,0,0,0,.22,0l.88-.88a1.89,1.89,0,0,1,2.79,0c.8.8,1.58,1.61,2.4,2.39a2,2,0,0,1,.2,2.69,4.4,4.4,0,0,1-3.25,1.86,6.89,6.89,0,0,1-2.63-.31,13.71,13.71,0,0,1-4.88-2.57A25.24,25.24,0,0,1,1.5,9.35,8.62,8.62,0,0,1,.12,6.22C.07,6,0,5.71,0,5.46Z" style="fill:#fff"/><path d="M16.31,7a.56.56,0,0,1-.51.59.58.58,0,0,1-.6-.51,7.37,7.37,0,0,0-.36-1.24,5.28,5.28,0,0,0-3.66-3.06,1.88,1.88,0,0,0-.33,0,.58.58,0,0,1-.48-.63A.55.55,0,0,1,11,1.63,6.27,6.27,0,0,1,15.64,5a5.32,5.32,0,0,1,.66,1.94A.54.54,0,0,1,16.31,7Z" style="fill:#fff"/><path d="M10.44,3.91a8.84,8.84,0,0,1,1,.33A4.44,4.44,0,0,1,14,7.32a1,1,0,0,1,0,.35.55.55,0,0,1-.53.51A.56.56,0,0,1,13,7.72a3.34,3.34,0,0,0-2.2-2.56A4.05,4.05,0,0,0,10.29,5,.55.55,0,0,1,10.42,4Z" style="fill:#fff"/></svg>