<svg id="Layer_1" data-name="Layer 1" xmlns="http://www.w3.org/2000/svg" viewBox="0 0 18.1 21.63"><path d="M9.41,20.28c.51,0,1.37-.06,2.23-.14a15,15,0,0,0,3.64-.7,3.79,3.79,0,0,0,1.31-.67c.2-.18.21-.25,0-.39a4.76,4.76,0,0,0-1-.57A15.55,15.55,0,0,0,11.22,17a.31.31,0,0,0-.22.12L9.66,18.88a.69.69,0,0,1-1.22,0l-1.33-1.8a.27.27,0,0,0-.3-.14c-.95.15-1.91.26-2.85.44a5.71,5.71,0,0,0-2.19.79c-.55.36-.56.46,0,.78a7.43,7.43,0,0,0,1.57.65A22.85,22.85,0,0,0,9.41,20.28ZM9,17.45a1.27,1.27,0,0,0,.11-.15c.77-1.12,1.57-2.23,2.3-3.37A24,24,0,0,0,14,9a7,7,0,0,0,.45-2A5.13,5.13,0,0,0,13.25,3.4a5.2,5.2,0,0,0-4.87-2A5.12,5.12,0,0,0,4.65,3.67a5,5,0,0,0-.93,3.59,9.14,9.14,0,0,0,.76,2.6,30.64,30.64,0,0,0,2.91,5.22C7.92,15.87,8.47,16.64,9,17.45ZM8,21.63,6.9,21.55a18.51,18.51,0,0,1-4.49-.82,4.77,4.77,0,0,1-1.84-1A1.52,1.52,0,0,1,.66,17.3a5.52,5.52,0,0,1,1.77-.91,17.12,17.12,0,0,1,3.47-.72l.21,0L6,15.41a31.65,31.65,0,0,1-2.82-5.18,9,9,0,0,1-.83-3.38A6.56,6.56,0,0,1,5.5,1a6.33,6.33,0,0,1,4.28-1,6.55,6.55,0,0,1,4.59,2.58,6.57,6.57,0,0,1,1.4,4.43,8.53,8.53,0,0,1-.48,2.24,23.42,23.42,0,0,1-2,4.23c-.38.64-.79,1.28-1.18,1.92a2.2,2.2,0,0,0-.12.19c.31,0,.6.07.89.12a12.91,12.91,0,0,1,3.81,1,2.84,2.84,0,0,1,1.17,1,1.48,1.48,0,0,1-.22,1.89,4.75,4.75,0,0,1-1.84,1,17.57,17.57,0,0,1-4.55.84l-1.13.09Z" style="fill:#fff"/><path d="M10.83,6.73A1.78,1.78,0,1,0,9.05,8.52,1.8,1.8,0,0,0,10.83,6.73Zm1.36,0A3.14,3.14,0,1,1,9.05,3.59,3.15,3.15,0,0,1,12.19,6.73Z" style="fill:#fff"/></svg>