<svg id="Layer_1" data-name="Layer 1" xmlns="http://www.w3.org/2000/svg" viewBox="0 0 69.32 63.78"><path d="M15.39,15.11c0-.68,0-1.32,0-2a1.25,1.25,0,0,0-.84-1.3,1.92,1.92,0,0,0-1.94.39.65.65,0,0,0-.2.36c0,.9,0,1.8,0,2.69l3-.18m38.52,0,3.07.18c0-.79,0-1.5,0-2.22,0-.93-.52-1.29-1.62-1.28-.92,0-1.41.43-1.43,1.3,0,.66,0,1.31,0,2m-10.75,0V11.21c0-1.49-.57-2.07-2-2.07h-13a4.61,4.61,0,0,0-.53,0,1.53,1.53,0,0,0-1.45,1.35c-.06,1.53,0,3.06,0,4.62ZM34.65,59.92H54.56A9.91,9.91,0,0,0,56,59.86a8.59,8.59,0,0,0,7.47-8.63q0-12.76,0-25.53A8.6,8.6,0,0,0,54.71,17H14.59A8.62,8.62,0,0,0,5.83,25.7q0,12.73,0,25.48A8.67,8.67,0,0,0,6,53a8.51,8.51,0,0,0,8.54,6.91H34.65M4,24.36c.18-.72.32-1.47.57-2.17a10.19,10.19,0,0,1,5.44-6.05.64.64,0,0,0,.46-.7c0-.69,0-1.39,0-2.09A3.08,3.08,0,0,1,13.92,10a3,3,0,0,1,3.27,3.29v1.87H19l0-.62c0-1.49,0-3,.06-4.48a8.58,8.58,0,0,1,7.74-7.88C30,2,33.07,2.05,36.17,2a.89.89,0,0,1,1,.94c0,.56-.4.89-1.11.89-2.77,0-5.54,0-8.31,0a6.62,6.62,0,0,0-6.24,4.05,7.49,7.49,0,0,0-.61,2.65c-.1,1.49,0,3,0,4.52h3.43v-.62c0-1.2,0-2.4,0-3.59a3.46,3.46,0,0,1,3.53-3.59q6.81-.06,13.63,0A3.45,3.45,0,0,1,45,10.92c0,1.18,0,2.35,0,3.53v.68h3.33s.07-.05.07-.08a51.3,51.3,0,0,0-.13-5.55,6.75,6.75,0,0,0-6.39-5.61c-.66,0-1.32,0-2,0A.94.94,0,0,1,39,3a.91.91,0,0,1,.86-.91A9.63,9.63,0,0,1,47.2,4.17,8.73,8.73,0,0,1,50.26,11v4.09h1.86v-2a3,3,0,0,1,3-3.16c2.38-.16,3.72,1.11,3.72,3.5a5.54,5.54,0,0,0,.07,2.24c.28.55,1.16.78,1.74,1.19a10.05,10.05,0,0,1,4.64,8.57q.06,13.06,0,26.13a10.37,10.37,0,0,1-9.41,10.09c-.61.05-1.23.07-1.85.07q-19.66,0-39.34,0A10.43,10.43,0,0,1,4.35,53.91c-.11-.43-.21-.88-.31-1.32Z" style="fill:#283b8d"/><path d="M41.46,31.66h6.3a3.2,3.2,0,0,1,3.42,3.16c.09,2.43.09,4.87,0,7.3a3.23,3.23,0,0,1-3.39,3.15c-1.87,0-3.75,0-5.62,0h-.71V46c0,1.85,0,3.71,0,5.56A3.28,3.28,0,0,1,38.08,55q-3.44,0-6.88,0a3.27,3.27,0,0,1-3.35-3.43c0-2.07,0-4.14,0-6.3-.32,0-.61,0-.9,0a1,1,0,0,1-1-.91.92.92,0,0,1,1-.91c.53,0,1.07,0,1.61,0,.82,0,1.12.31,1.12,1.13,0,2.23,0,4.46,0,6.69,0,1.42.53,1.94,2,1.94h6.28a1.56,1.56,0,0,0,1.77-1.76c0-2.25,0-4.5,0-6.75,0-1,.27-1.25,1.24-1.25h6.58c1.43,0,1.91-.48,1.91-1.88q0-3.18,0-6.34a1.55,1.55,0,0,0-1.76-1.76H40.8c-.85,0-1.14-.28-1.14-1.14,0-2.23,0-4.47,0-6.7,0-1.36-.52-1.89-1.87-1.89H31.51c-1.32,0-1.85.53-1.86,1.85v6.57c0,1.07-.24,1.31-1.28,1.31H21.73c-1.26,0-1.81.56-1.81,1.83v6.4c0,1.21.53,1.74,1.75,1.75.5,0,1,0,1.49,0s1,.36,1,.9a.91.91,0,0,1-1,.93,16.17,16.17,0,0,1-2,0,3.31,3.31,0,0,1-3.13-3.43c0-2.25,0-4.5,0-6.76a3.27,3.27,0,0,1,.05-.53,3.23,3.23,0,0,1,3.22-2.86h6.48V31c0-1.88,0-3.75,0-5.62a3.34,3.34,0,0,1,3.48-3.51H38a3.34,3.34,0,0,1,3.49,3.5c0,2.07,0,4.14,0,6.28" style="fill:#283b8d"/></svg>