<svg id="Layer_1" data-name="Layer 1" xmlns="http://www.w3.org/2000/svg" viewBox="0 0 69.32 63.78"><path d="M48.46,14.14a1.19,1.19,0,0,0-.2.22c-2.34,3.46-4.72,6.88-7,10.38a8.44,8.44,0,0,0,6.48,12.92,8.06,8.06,0,0,0,8-4.19,8.07,8.07,0,0,0-.29-9c-1.62-2.5-3.33-5-5-7.43l-2-2.92M32.94,3.9l-.48.69c-5.37,8-10.71,16-16.14,23.92A20.45,20.45,0,0,0,43.75,57.77a20.08,20.08,0,0,0,9.48-14.92c.16-1.22.13-2.47.19-3.83l-.76.31a10.62,10.62,0,0,1-5.53.77,11,11,0,0,1-7.76-17c1-1.45,2-2.93,3-4.37a.7.7,0,0,0,0-.92c-2.14-3.14-4.26-6.3-6.39-9.46l-3-4.45M31.13,63.37c-1.13-.2-2.26-.34-3.37-.61A22.06,22.06,0,0,1,12.24,50.21c-3.7-8-2.9-15.77,2-23.09Q22.91,14.34,31.5,1.57l.31-.46a1.25,1.25,0,0,1,2.25,0c1.06,1.54,2.09,3.09,3.13,4.63q3.3,4.92,6.62,9.83l.32.44c.88-1.31,1.74-2.57,2.6-3.84l.54-.82a1.27,1.27,0,0,1,2.32,0c.81,1.18,1.61,2.37,2.41,3.56q2.74,4.08,5.48,8.15A10.85,10.85,0,0,1,56.09,37a1.14,1.14,0,0,0-.36,1.08A22.94,22.94,0,0,1,38.3,62.73c-1.19.28-2.4.43-3.61.64Z" style="fill:#283b8d"/><path d="M15.15,40.56a16.55,16.55,0,0,1,3.06-9.44c.59-.85,1.31-1.08,1.95-.64s.69,1.18.09,2a14.42,14.42,0,0,0,7.33,22c.86.29,1.24.91,1,1.61a1.25,1.25,0,0,1-1.79.74A16.9,16.9,0,0,1,15.15,40.56" style="fill:#283b8d"/><path d="M43.34,25.49a1.21,1.21,0,0,1,1.1,1.74,4.63,4.63,0,0,0-.23,2.65,4.13,4.13,0,0,0,1.72,2.52,1.1,1.1,0,0,1,.52,1.32,1.77,1.77,0,0,1-.87.9,1.3,1.3,0,0,1-1-.16,6.68,6.68,0,0,1-2.38-8.22,1.21,1.21,0,0,1,1.16-.75" style="fill:#283b8d"/><path d="M48.46,33.37a1.2,1.2,0,0,1,1.23,1.23,1.23,1.23,0,1,1-2.45,0,1.18,1.18,0,0,1,1.22-1.24" style="fill:#283b8d"/></svg>