<svg id="Layer_1" data-name="Layer 1" xmlns="http://www.w3.org/2000/svg" viewBox="0 0 69.32 63.78"><path d="M45,3.05H6.43a.84.84,0,0,0,0,.26C7.49,5.22,8.51,7.14,9.59,9a1,1,0,0,0,.77.36c10.21,0,20.41,0,30.61,0a.9.9,0,0,0,.91-.58c.72-1.38,1.48-2.74,2.22-4.11.29-.53.57-1.07.89-1.69M63.49,20.2H30.15V60.74H63.49ZM28.57,56.55V20c0-1.3.1-1.41,1.38-1.41H44.66c.28,0,.57,0,.85-.05V5.46c-.22.37-.35.57-.46.77-.7,1.29-1.42,2.56-2.07,3.86a1.43,1.43,0,0,1-1.46.86c-10,0-20.07-.09-30.1,0-2,0-3.17-.47-3.87-2.35a23,23,0,0,0-1.62-3l-.12,0V56.55Zm0,1.63h-23c-1.15,0-1.34-.19-1.34-1.32V2.77c0-1.17.16-1.34,1.32-1.34H45.79c1.17,0,1.34.17,1.34,1.32V18.6H63.72c1.27,0,1.4.13,1.4,1.41V61c0,1.26-.14,1.4-1.41,1.4H30c-1.32,0-1.41-.1-1.41-1.45V58.18" style="fill:#283b8d"/><path d="M18.22,49c-.23.69.35,1.82-.81,1.83s-.57-1.18-.78-1.68a18.66,18.66,0,0,1-2.28-1.25,4.62,4.62,0,0,1-1.87-3.64c0-.49.08-.92.66-1s.81.3.86.86A3.48,3.48,0,0,0,20.34,46a3.28,3.28,0,0,0,.27-3.45,3.21,3.21,0,0,0-2.87-1.93A5.52,5.52,0,0,1,13.65,39,5,5,0,0,1,16,30.76c.52-.14.72-.33.65-.84,0-.17-.06-.4,0-.51s.5-.62.74-.61.61.37.71.65a3.72,3.72,0,0,1,0,1.16,5.1,5.1,0,0,1,4.09,4,1.87,1.87,0,0,1,0,1,1.11,1.11,0,0,1-.71.65c-.22,0-.54-.31-.72-.56s-.09-.48-.13-.72a3.46,3.46,0,1,0-3.51,4,5.06,5.06,0,0,1,5.24,4.38c.3,2.83-1.3,4.92-4.23,5.63" style="fill:#283b8d"/><path d="M43.31,28.68c-.41.13-.69.21-1,.31A12.37,12.37,0,1,0,47,28.16a2.68,2.68,0,0,0-2.56,1.72,2.72,2.72,0,0,0,.48,3,2.87,2.87,0,0,0,4.5-.25c.34-.42.7-.68,1.2-.31s.37.79.06,1.23a4.45,4.45,0,0,1-7.41-4.91M60.7,40.45a13.88,13.88,0,1,1-14-13.88,13.84,13.84,0,0,1,14,13.88" style="fill:#283b8d"/><path d="M41.26,35.9a2.94,2.94,0,0,1,2.94,2.82c0,.48-.14.84-.67.89s-.76-.23-.85-.72c-.17-1-.66-1.43-1.4-1.46s-1.24.44-1.47,1.44c-.11.5-.37.83-.92.73s-.68-.51-.64-1a3,3,0,0,1,3-2.7" style="fill:#283b8d"/><path d="M49.44,38.78a3,3,0,0,1,6-.17c.05.5-.11.91-.65,1s-.81-.24-.91-.74c-.18-.94-.66-1.42-1.41-1.43A1.46,1.46,0,0,0,51,38.83c-.09.51-.33.84-.88.78a.74.74,0,0,1-.68-.83" style="fill:#283b8d"/></svg>