<svg id="Layer_1" data-name="Layer 1" xmlns="http://www.w3.org/2000/svg" viewBox="0 0 69.32 63.78"><path d="M58.57,37.79l-.13,0q.93,9.75,1.86,19.53h1.92c.11,0,.3,0,.32-.09.26-.73.88-1.35.64-2.22q-1.41-5.25-2.81-10.51l-1.8-6.74M9,57.36c.63-6.58,1.25-13.06,1.86-19.54C9.21,43.6,7.62,49.38,6.16,55.2c-.16.6.4,1.38.64,2.08,0,0,.18.07.28.07H9M35.64,8.47h9.89v-6H35.64ZM4,63.15a1.21,1.21,0,0,1-.62-1.22c0-.63,0-1.27,0-1.9a9.16,9.16,0,0,1,.49-3.71A1.48,1.48,0,0,0,3.79,55a1.4,1.4,0,0,1-.22-.56,2.11,2.11,0,0,1,.07-1.13c.18-.26.66-.32,1-.47l.13.17c.32-1.17.64-2.34,1-3.51Q8.86,37.75,12,26a2,2,0,0,1,.83-1Q23,18.84,33.14,12.75a1.07,1.07,0,0,0,.6-1.06c0-3.23,0-6.47,0-9.7C33.73.9,34,.64,35.1.64c3.7,0,7.41,0,11.11,0,.93,0,1.23.29,1.24,1.24V9.14c0,.92-.34,1.24-1.27,1.24H35.61c0,.64,0,1.22,0,1.8,0,.16.24.35.42.45,2.36,1.44,4.73,2.86,7.09,4.28.84.51,1.08,1,.75,1.54s-.87.56-1.7.06c-2.33-1.41-4.67-2.81-7-4.23a.87.87,0,0,0-1,0q-9.88,6-19.79,11.92a1.13,1.13,0,0,0-.61,1c-.24,2.77-.52,5.54-.79,8.31l-.78,8.26c-.26,2.79-.54,5.58-.8,8.37-.16,1.72-.32,3.43-.48,5.18H22.8c.21-1.15.42-2.3.65-3.45.05-.25.13-.6.31-.69a1.35,1.35,0,0,1,1-.17,1.17,1.17,0,0,1,.49.92c-.08.89-.29,1.76-.45,2.64,0,.23-.07.47-.11.75H44.63c-.16-.91-.32-1.79-.48-2.68-.55-3-1.1-6-1.68-9A1,1,0,0,0,42,45a14.22,14.22,0,0,1-7.16-5l-.15-.2c-.33.38-.62.74-.93,1.08A13.73,13.73,0,0,1,27.46,45a.76.76,0,0,0-.62.69c-.22,1.32-.47,2.64-.72,4-.13.66-.54,1-1.08.9a.9.9,0,0,1-.74-1.19c.3-1.7.64-3.39.95-5.09a1,1,0,0,1,.87-.81,12.34,12.34,0,0,0,7.14-4.88,2,2,0,0,0,.47-1.46,9,9,0,0,1,0-1.16c0-.81.33-1.22,1-1.21s.92.41.93,1.24a4.42,4.42,0,0,1,0,.73,2.73,2.73,0,0,0,.78,2.27,12.37,12.37,0,0,0,6.81,4.46,1.15,1.15,0,0,1,1,1q1,5.4,2,10.78c.13.7.26,1.39.4,2.12H58.42c-.12-1.31-.23-2.59-.35-3.86L57.26,45q-.4-4.16-.8-8.31c-.27-2.73-.52-5.46-.78-8.19a13.63,13.63,0,0,0-.16-1.58,1.11,1.11,0,0,0-.47-.62c-2.76-1.68-5.53-3.34-8.3-5a4.52,4.52,0,0,1-.52-.32A.9.9,0,0,1,46,19.68a.88.88,0,0,1,1.18-.32,13.35,13.35,0,0,1,1.15.68c2.72,1.63,5.43,3.28,8.15,4.9a1.86,1.86,0,0,1,.92,1.21q3.51,13.23,7.06,26.46c0,.11.08.22.13.38a1.08,1.08,0,0,1,1.34.51v.74a4.6,4.6,0,0,0-.56,1.59,8.85,8.85,0,0,0,.56,2.07v5.25H51.27c-.43-.29-.75-.66-.56-1.22s.67-.62,1.2-.62H64.06V59.26H5.27v2.06H47c.53,0,1,.07,1.19.62s-.11.93-.56,1.22Z" style="fill:#283b8d"/><path d="M33.62,21.52c0,.63,0,1.24,0,1.84s-.36,1.06-1.1,1.07-1.21,0-1.82,0v2a.68.68,0,0,0,.15,0h1.58c.87,0,1.18.31,1.2,1.17,0,.58,0,1.16,0,1.75h2.1c0-.64,0-1.24,0-1.85s.36-1.06,1.1-1.06h1.83V24.43c-.61,0-1.17,0-1.74,0-.86,0-1.18-.31-1.19-1.16,0-.58,0-1.16,0-1.75Zm4,6.84v1.77c0,.88-.33,1.21-1.22,1.22-1.14,0-2.28,0-3.42,0-.85,0-1.18-.34-1.19-1.19V28.36c-.62,0-1.21,0-1.79,0-.84,0-1.14-.31-1.15-1.13V23.75c0-.86.3-1.15,1.18-1.16.57,0,1.13,0,1.76,0V20.83c0-.86.33-1.21,1.16-1.23,1.18,0,2.36,0,3.54,0,.77,0,1.11.37,1.13,1.13,0,.59,0,1.18,0,1.85.65,0,1.25,0,1.86,0s1.08.33,1.08,1.08q0,1.83,0,3.66a.91.91,0,0,1-1,1c-.61,0-1.22,0-1.94,0" style="fill:#283b8d"/></svg>