<svg id="Layer_1" data-name="Layer 1" xmlns="http://www.w3.org/2000/svg" viewBox="0 0 69.32 63.78"><path d="M34.65,47a2.78,2.78,0,1,0-2.77-2.82A2.82,2.82,0,0,0,34.65,47m16.84-5.57a3.9,3.9,0,1,0-3.9-3.89,3.94,3.94,0,0,0,3.9,3.89M17.84,33.67a3.9,3.9,0,1,0,3.9,3.89,3.94,3.94,0,0,0-3.9-3.89M40.74,57A6.1,6.1,0,0,0,31,51.59,6.15,6.15,0,0,0,28.55,57ZM9.47,57H25.2a9.87,9.87,0,0,1,.73-4.22,2.06,2.06,0,0,0,.13-1.07,8.34,8.34,0,0,0-16.25-.83c-.56,2-.23,4.05-.34,6.12m34.66,0H59.91c-.07-1.79,0-3.55-.21-5.26a8.33,8.33,0,0,0-16.32-.57,2.38,2.38,0,0,0-.09,1.31A10.52,10.52,0,0,1,44.13,57m19.06,2.15A2.08,2.08,0,0,1,61,60.42q-26.4,0-52.8,0a1.87,1.87,0,0,1-2.08-2.06c.07-1.78,0-3.56,0-5.34a11.52,11.52,0,0,1,6-10.08c.16-.1.32-.18.49-.27A7.27,7.27,0,0,1,22.78,32.26a7.31,7.31,0,0,1,.27,10.39A11.89,11.89,0,0,1,28.81,49l1.05-.69a.58.58,0,0,0,.1-.12,6.15,6.15,0,1,1,9.39,0l1.17.79a11.87,11.87,0,0,1,5.78-6.38A7.24,7.24,0,0,1,44.41,36a7,7,0,0,1,2.74-4.25,7.26,7.26,0,0,1,9.63,10.8,34,34,0,0,1,2.83,2.21,11.1,11.1,0,0,1,3.48,6.91,1.63,1.63,0,0,0,.1.25Z" style="fill:#283b8d"/><path d="M44.24,15.59h-.1c0-1.37,0-2.74,0-4.12,0-.33-.1-.46-.44-.55a8.62,8.62,0,0,1-5.38-3.84.71.71,0,0,0-.71-.38c-2,0-3.94,0-5.9,0a.79.79,0,0,0-.75.42,8.59,8.59,0,0,1-5.29,3.79c-.39.1-.5.23-.49.62,0,2.41,0,4.82,0,7.24a15.87,15.87,0,0,0,.34,3.3,13.62,13.62,0,0,0,8.7,10,1,1,0,0,0,.68,0,13.38,13.38,0,0,0,9-10.71,48.89,48.89,0,0,0,.36-5.82M39.57,3.36a2.67,2.67,0,0,1,1.3,1.37,5.43,5.43,0,0,0,4.86,3.09,1.66,1.66,0,0,1,1.75,1.8c0,3.27,0,6.53,0,9.8A17.24,17.24,0,0,1,35.26,35.55a2.18,2.18,0,0,1-1.24,0c-6.81-2.34-10.8-7.1-12-14.18a13.44,13.44,0,0,1-.14-2.11c0-3.19,0-6.38,0-9.58a1.68,1.68,0,0,1,1.8-1.86,5.43,5.43,0,0,0,4.81-3.08,2.62,2.62,0,0,1,1.29-1.37Z" style="fill:#283b8d"/><path d="M33.17,20.4a3.72,3.72,0,0,1,.39-.57q2.25-2.28,4.52-4.53a1.73,1.73,0,0,1,2.48-.14,1.7,1.7,0,0,1-.11,2.52l-6,6a1.7,1.7,0,0,1-2.68,0l-2.87-2.88a1.68,1.68,0,1,1,2.38-2.36l1.91,1.94" style="fill:#283b8d"/></svg>