<svg id="Layer_1" data-name="Layer 1" xmlns="http://www.w3.org/2000/svg" viewBox="0 0 69.32 63.78"><path d="M55.83,17c1.82-.76,3.49-1.44,5.15-2.16a.64.64,0,0,0,.3-.51A15.7,15.7,0,0,0,61,12.35a17.55,17.55,0,0,0-1.48-4.28L55.83,17M12.69,10.69l.06.22,9.5,1.85L18.17,7.2l-5.48,3.49m39.1.24c.77,1.88,1.53,3.72,2.35,5.69,1.3-3.11,2.55-6.11,3.86-9.23a17.79,17.79,0,0,0-6.21,3.54M12.34,12.55a30.79,30.79,0,0,0,4.21,5.8l5.37-3.93-9.58-1.87m38.23-.15c-2.34,2.69-1.91,7.72.24,12,0-.05.08-.09.11-.14.73-1.76,1.47-3.51,2.19-5.27a.75.75,0,0,0,0-.55c-.82-2-1.66-4-2.51-6.09m1.85,12.7A18.36,18.36,0,0,0,58.07,22a8.26,8.26,0,0,0,3.17-5.45c-.11,0-.18.05-.24.08-1.93.79-3.85,1.57-5.77,2.39a1,1,0,0,0-.48.53c-.48,1.07-.92,2.16-1.38,3.25-.3.72-.59,1.44-.95,2.29M31.16,14.49c-.23-.32-.35-.5-.48-.67L25.24,6.39c-.83-1.13-.84-1.17-2.23-.82-1.06.26-2.11.63-3.23,1,1.39,1.89,2.73,3.62,3.95,5.43a3,3,0,0,0,2.48,1.57,9.2,9.2,0,0,1,1.27.25l3.68.7M31,16.24a3.66,3.66,0,0,0-.4-.15C28.7,15.73,26.82,15.4,25,15a1.6,1.6,0,0,0-1.5.37c-.59.49-1.23.92-1.85,1.37l-3.86,2.84a18.49,18.49,0,0,0,4,2.85.76.76,0,0,0,.95-.07c2-1.52,4.09-3,6.14-4.51L31,16.24M13.22,31.76c-2.14,5,.74,15.11,5,17.64,0-.11,0-.2,0-.3a7.26,7.26,0,0,0-1.08-3.63,2.69,2.69,0,0,1-.27-2.53c.28-.74.6-1.45.91-2.17.37-.89.79-1.76,1.12-2.66.25-.67.11-.92-.54-1.2a6.59,6.59,0,0,0-1.05-.38,3.92,3.92,0,0,1-2.75-2.21c-.43-.86-.92-1.68-1.39-2.56m10.91-8.42a12.31,12.31,0,0,0,4.44.38,20.33,20.33,0,0,0,8-2.76c1.46-.84,2.84-1.8,4.36-2.77a2.69,2.69,0,0,0-.34-.13c-2.33-.46-4.66-.93-7-1.37a1,1,0,0,0-.63.22c-1.18.85-2.35,1.72-3.53,2.58l-5.26,3.85m22.54,7.71a17.55,17.55,0,0,0-7.11-9.26.87.87,0,0,0-1.1,0,23.75,23.75,0,0,1-8.65,3.45,2.6,2.6,0,0,0-.89.24c-.56.33-1.08.73-1.6,1.11a7,7,0,0,0-2.27,2.6,3.4,3.4,0,0,0,3.27,5.1c1.35,0,2.69-.32,4-.47A2.12,2.12,0,0,1,35,35.59a11.78,11.78,0,0,1,.36,2.5c.06,1.58,0,3.16,0,4.73a16.81,16.81,0,0,0,.38,2.91c.17.78.72,1,1.49.82a4.48,4.48,0,0,0,.72-.28,5.7,5.7,0,0,0,3.25-6.6,6.35,6.35,0,0,1,3-7.09c.81-.52,1.63-1,2.44-1.53m.45,1.63c-1,.68-1.92,1.29-2.81,2-1.53,1.17-1.67,2.79-1.45,4.54a9.64,9.64,0,0,1,.19,3.39c-.6,2.59-3.5,5.41-5.9,5.69a2.44,2.44,0,0,1-2.82-1.63,12.19,12.19,0,0,1-.59-3.22c-.12-2-.08-4.06-.15-6.09-.06-1.83-.29-1.94-2.05-1.69a20.87,20.87,0,0,1-4.16.3,4.5,4.5,0,0,1-4.31-4,6.07,6.07,0,0,1,1.69-5.31c.36-.41.7-.84,1-1.23a14.83,14.83,0,0,1-6.67-2.58A17.57,17.57,0,0,0,14,29.44a.58.58,0,0,0,0,.43c.73,1.28,1.48,2.55,2.2,3.84a2.29,2.29,0,0,0,1.47,1.16,9.88,9.88,0,0,1,1.6.59,2.27,2.27,0,0,1,1.34,3c-.34,1-.83,2-1.26,3a8.32,8.32,0,0,1-.41.85,2.75,2.75,0,0,0,0,3,8.31,8.31,0,0,1,.95,5.15.7.7,0,0,0,.28.59c1,.59,2,1.14,3.05,1.67.61.32.83.69.61,1.2s-.65.64-1.3.34C16,51.26,12,46.25,11,39.09c-.93-6.72,1.32-12.39,6.3-17l.35-.32c-.14-.13-.25-.25-.38-.36A31.64,31.64,0,0,1,10,11.83a.9.9,0,0,1,.21-1.17c4-3.38,8.31-6.06,13.54-6.95,4.69-.8,8.73.69,12.28,3.73a.77.77,0,0,1,.09,1.2c-.35.4-.75.43-1.24,0A15.75,15.75,0,0,0,30.43,6a11.59,11.59,0,0,0-3.93-.77c.12.2.2.35.29.48,2.18,3,4.35,5.94,6.55,8.9a1.37,1.37,0,0,0,.74.48c2.32.48,4.65.92,7.1,1.26l-2.79-4c-.09-.13-.2-.24-.29-.38a.79.79,0,0,1,.18-1.14.76.76,0,0,1,1.15.14,22.79,22.79,0,0,1,1.94,2.68,14.71,14.71,0,0,0,4.5,5.25,13,13,0,0,1,1.76,1.79c-.11-.95-.24-1.71-.3-2.47a10.29,10.29,0,0,1,4.54-9.51,21.66,21.66,0,0,1,7.28-3.4.87.87,0,0,1,1.1.45A19.22,19.22,0,0,1,63,15.9a10.22,10.22,0,0,1-4.61,8,21.91,21.91,0,0,1-6.1,3l-.42.15c.3.87.63,1.71.89,2.56a23.75,23.75,0,1,1-46,11.5,23.17,23.17,0,0,1-.16-8.22c.12-.73.42-1,1-.9s.8.48.69,1.21a21.12,21.12,0,0,0,2.06,13.13A21.41,21.41,0,0,0,25.92,58.18,22.05,22.05,0,0,0,43.32,18.9a.55.55,0,0,0-.85,0c-.59.52-1.22,1-1.87,1.5.56.42,1.12.82,1.64,1.26a18.74,18.74,0,0,1,7,16.17A19.26,19.26,0,0,1,28.1,55.67c-.62-.06-.94-.4-.89-.94s.44-.8,1.06-.74A17.43,17.43,0,0,0,47.12,32.68" style="fill:#283b8d"/></svg>