<svg id="Layer_1" data-name="Layer 1" xmlns="http://www.w3.org/2000/svg" viewBox="0 0 69.32 63.78"><path d="M14.13,12.24a4,4,0,0,0-2.2,2,2.27,2.27,0,0,0,.8,2.62c.37.35,1.12,1.21,2.07.56.78-.55,1.72-.73,1.88-2,.24-2-.94-2.62-2.55-3.17M62.41,9.68a7.48,7.48,0,0,0-7.19-.35,6.09,6.09,0,0,0-3.74,3.92A10.94,10.94,0,0,0,62.41,9.68M46,1.2c-.58,4.58.1,8.44,4.2,11.14a5.16,5.16,0,0,0,.52-5.61C49.72,4.44,47.8,3,46,1.2M33.43,53.55a17,17,0,0,1-2.87-10.64A11.16,11.16,0,0,1,33.1,36.1c1.68-2,3.83-3.39,5.81-5a31.76,31.76,0,0,0,3.39-2.94,8.94,8.94,0,0,0,2.12-6.31,14.62,14.62,0,0,0-2.83-8.27c-.38-.52-.81-1-1.37-1.7a14.66,14.66,0,0,0-.92,1.17C37.85,15.52,36.39,18,35,20.48c-1.27,2.24-2.48,4.5-3.69,6.77-.21.39-.51.95-.38,1.29,1,2.52-.2,4.61-1.16,6.79s-2.86,3.3-4.89,4.14A2.71,2.71,0,0,1,21,37.36a8.39,8.39,0,0,1,.37-4.73,9.44,9.44,0,0,1,5-5.23,6.55,6.55,0,0,0,3.27-2.83c2.2-3.75,4.67-7.35,7-11a10.73,10.73,0,0,0,.71-1.61c-6.76-1.31-18.09,5.8-20,17.29A21.16,21.16,0,0,0,33.43,53.55m6.21.57c11.23.15,20.58-9.42,20.65-21.07.07-10.55-7.79-19.44-16.18-20.59A18.27,18.27,0,0,1,47,20.77c.4,5.67-2.28,10-7,12.87a19.59,19.59,0,0,0-5.24,4.72,7.57,7.57,0,0,0-1.55,3.47,13.79,13.79,0,0,0,4.38,12.48c3.24-5.67,6.41-11.21,9.55-16.72-2.27-2.43-2.26-2.42-.35-5.3Q48.43,29.7,50.05,27c.9-1.47.88-1.49,2.94-1.09-1.21,2.51-3.4,4.51-4.16,7.6,2.2-.28,2.06-2.21,2.93-3.24s1.68-2.36,2.54-3.59l1.63,1c-.71,2.91-3.46,4.62-4,8.16,2.82-2.18,3.71-5.09,5.73-7.54.52,1.52.65,2.54-.15,3.67-1.31,1.86-2.45,3.83-3.71,5.73-.43.65-.9,1.54-1.54,1.74a8,8,0,0,1-2.78-.1l-9.8,14.79M12.9,5.73a12.74,12.74,0,0,0-4.14,6.09A29.39,29.39,0,0,0,6.91,22.57a74.25,74.25,0,0,0,.5,8.67,69.85,69.85,0,0,0,2,10.13c1.88,6.25,4.87,11.8,10.41,15.81,6.5,4.7,14.12,6.48,21.28,4.76,9.07-2.2,15.78-7.79,19.19-16.7.71-1.86,2-3.88,1.06-6.29-4.3,12.59-13.94,18.54-26.82,17A21,21,0,0,1,21.7,49.1a22.71,22.71,0,0,1-6.22-12.86A23.75,23.75,0,0,1,34.06,9.93c-9.89.38-16.92,5.41-22,13.94-3.22-6.33-3-12.26.81-18.14" style="fill:#283b8d"/><path d="M12.9,5.73c-3.85,5.88-4,11.81-.81,18.14,5.05-8.53,12.08-13.56,22-13.94A23.75,23.75,0,0,0,15.48,36.24,22.71,22.71,0,0,0,21.7,49.1a21,21,0,0,0,12.85,6.84c12.88,1.55,22.52-4.4,26.83-17,.94,2.41-.36,4.43-1.07,6.29-3.41,8.91-10.12,14.5-19.19,16.7-7.15,1.72-14.78-.06-21.28-4.76-5.53-4-8.53-9.56-10.41-15.81a69.85,69.85,0,0,1-2-10.13,74.25,74.25,0,0,1-.5-8.67A29.48,29.48,0,0,1,8.76,11.81,12.76,12.76,0,0,1,12.9,5.73" style="fill:#283b8d"/><path d="M39.64,54.12l9.8-14.79a8,8,0,0,0,2.78.1c.64-.2,1.11-1.09,1.54-1.74,1.26-1.9,2.4-3.87,3.71-5.73.8-1.13.67-2.15.15-3.67-2,2.45-2.91,5.36-5.73,7.54.58-3.54,3.33-5.25,4-8.16l-1.63-1c-.86,1.23-1.6,2.49-2.54,3.59s-.73,3-2.93,3.24c.76-3.09,2.94-5.09,4.16-7.6-2.06-.4-2-.38-2.94,1.09q-1.62,2.67-3.33,5.27c-1.91,2.88-1.92,2.87.35,5.3-3.14,5.51-6.31,11-9.55,16.72a13.79,13.79,0,0,1-4.38-12.48,7.57,7.57,0,0,1,1.55-3.47,19.44,19.44,0,0,1,5.24-4.72c4.77-2.92,7.45-7.21,7-12.87a18.23,18.23,0,0,0-2.87-8.31c8.39,1.15,16.25,10,16.18,20.59-.07,11.65-9.42,21.22-20.65,21.07" style="fill:#283b8d"/><path d="M33.43,53.55A21.16,21.16,0,0,1,17.37,29.23c1.92-11.49,13.25-18.61,20-17.29a10.73,10.73,0,0,1-.71,1.61c-2.34,3.67-4.81,7.27-7,11a6.55,6.55,0,0,1-3.27,2.83,9.44,9.44,0,0,0-5,5.23A8.39,8.39,0,0,0,21,37.36a2.71,2.71,0,0,0,3.88,2.11c2-.84,3.92-1.93,4.89-4.14s2.12-4.27,1.16-6.79c-.13-.34.17-.9.38-1.29C32.5,25,33.71,22.72,35,20.48c1.41-2.49,2.87-5,4.32-7.43a14.66,14.66,0,0,1,.92-1.17c.56.7,1,1.18,1.37,1.7a14.62,14.62,0,0,1,2.83,8.27,9,9,0,0,1-2.12,6.31,31.76,31.76,0,0,1-3.39,2.94c-2,1.61-4.13,3-5.81,5a11.16,11.16,0,0,0-2.54,6.81,17,17,0,0,0,2.87,10.64" style="fill:#283b8d"/><path d="M46,1.2C47.8,3,49.72,4.44,50.73,6.73a5.16,5.16,0,0,1-.52,5.61C46.11,9.64,45.43,5.78,46,1.2" style="fill:#283b8d"/><path d="M62.41,9.68a10.94,10.94,0,0,1-10.93,3.57,6.09,6.09,0,0,1,3.74-3.92,7.48,7.48,0,0,1,7.19.35" style="fill:#283b8d"/><path d="M14.13,12.24c1.61.55,2.79,1.19,2.55,3.17-.16,1.28-1.1,1.46-1.88,2-1,.66-1.7-.2-2.07-.55a2.27,2.27,0,0,1-.8-2.62,4,4,0,0,1,2.2-2" style="fill:#283b8d"/></svg>