<svg id="Layer_1" data-name="Layer 1" xmlns="http://www.w3.org/2000/svg" viewBox="0 0 69.32 63.78"><path d="M4.19,13.82v40H33.37a7.71,7.71,0,0,1,0-1.08,1.48,1.48,0,0,0-.73-1.5,12.07,12.07,0,0,0-7.5-2.54c-4.52,0-9,0-13.57,0-1.54,0-1.87-.33-1.87-1.84v-33ZM33.37,48.36v-.3q0-17.27,0-34.53a1.3,1.3,0,0,0-.43-.84,11.86,11.86,0,0,0-7.86-2.78H12.33V46.12h.74c4.12,0,8.23,0,12.35,0a16.44,16.44,0,0,1,4.12.63,33.32,33.32,0,0,1,3.83,1.58M57,46.12V9.94l-.3,0c-4.28,0-8.57,0-12.86,0a11.4,11.4,0,0,0-7.46,2.8,1.25,1.25,0,0,0-.39.85q0,17.18,0,34.33c0,.18,0,.35,0,.61a15.35,15.35,0,0,1,9.24-2.42c2.39.08,4.79,0,7.18,0H57m-55.42-34a1.62,1.62,0,0,1,1.69-.91c2.12,0,4.25,0,6.46,0,0-.84,0-1.63,0-2.42a1.29,1.29,0,0,1,1.47-1.46c4.87,0,9.74,0,14.61,0a13.92,13.92,0,0,1,8.79,3.3c1-.62,2-1.3,3-1.84A13.66,13.66,0,0,1,43.9,7.33H58.05c1.12,0,1.56.45,1.56,1.57,0,.71,0,1.42,0,2.13,0,0,0,.08.08.18h6.42c1.21,0,1.64.42,1.64,1.62v42c0,1.28-.4,1.68-1.71,1.68H56.62c-1,0-1.52-.48-1.53-1.28s.55-1.3,1.5-1.3c2.61,0,5.22,0,7.82,0h.73v-40H59.61V47c0,1.38-.37,1.75-1.77,1.75-4.54,0-9.09,0-13.64,0a12.07,12.07,0,0,0-7.6,2.6,1.34,1.34,0,0,0-.66,1.33,10.23,10.23,0,0,1,0,1.25h.72c2.67,0,5.34,0,8,0A1.27,1.27,0,0,1,46,54.94a1.28,1.28,0,0,1-.84,1.44,1.88,1.88,0,0,1-.63.07q-20.74,0-41.5,0a1.55,1.55,0,0,1-1.49-.92Z" style="fill:#283b8d"/><path d="M46.46,25.43H42.59c-.9,0-1.45-.48-1.46-1.26s.54-1.31,1.48-1.31q3.87,0,7.74,0c.95,0,1.51.49,1.5,1.29s-.56,1.28-1.51,1.29H46.46" style="fill:#283b8d"/><path d="M46.46,33.18H42.59a1.3,1.3,0,1,1,0-2.58h7.87a1.3,1.3,0,1,1,0,2.58H46.46" style="fill:#283b8d"/><path d="M22.86,22.84h3.87a1.28,1.28,0,0,1,1.46,1.27c0,.81-.55,1.3-1.49,1.3H19c-.94,0-1.5-.49-1.49-1.3S18,22.85,19,22.85h3.87" style="fill:#283b8d"/><path d="M22.87,30.6h3.87a1.3,1.3,0,1,1,0,2.58H18.88a1.26,1.26,0,0,1-1.41-1.31,1.27,1.27,0,0,1,1.4-1.27h4" style="fill:#283b8d"/><path d="M22.83,40.94c-1.29,0-2.58,0-3.87,0-.94,0-1.5-.49-1.49-1.3a1.27,1.27,0,0,1,1.45-1.28h7.81a1.28,1.28,0,0,1,1.46,1.27c0,.81-.55,1.31-1.49,1.31-1.29,0-2.58,0-3.87,0" style="fill:#283b8d"/></svg>