<svg id="Layer_1" data-name="Layer 1" xmlns="http://www.w3.org/2000/svg" viewBox="0 0 16.41 16.45"><path d="M15.79,13.67a11.52,11.52,0,0,0-1.21.24h0l-.11,0L7.1,15.81h0a.75.75,0,0,1-.44,0L1,11.73l0,0a.61.61,0,0,1-.16-.12h0a.63.63,0,0,1-.2-.47.67.67,0,0,1,.62-.68h0a.44.44,0,0,1,.2,0l.08,0,.1,0,.05,0h0l.6.43h0l3.43,2.23.09,0a1.48,1.48,0,0,0,.43,0h0c.16,0,.89-.23,2.18-.57h.07l.81-.22.84-.22.07,0A1.23,1.23,0,0,0,9.92,9.9H7.69a.3.3,0,0,1-.31-.3.31.31,0,0,1,.31-.31h3.46a3.53,3.53,0,0,1,2.1.73l.42.31a4.34,4.34,0,0,0,2.12,1v2.34Zm.56-2.82a.3.3,0,0,0-.25-.12A3.38,3.38,0,0,1,14,9.81L13.6,9.5a4.09,4.09,0,0,0-2.45-.85H7.69a.93.93,0,0,0,0,1.85H9.84a.62.62,0,0,1,.5.6.61.61,0,0,1-.29.52l-.8.22c-.28.06-.56.13-.82.21l-.06,0-2.14.56H6.06L2.68,10.44,2.06,10l0,0-.1-.05a.7.7,0,0,0-.2-.08l-.16,0a1.07,1.07,0,0,0-.4,0A1.29,1.29,0,0,0,0,11.1,1.27,1.27,0,0,0,.38,12h0a1.29,1.29,0,0,0,.3.22L6.28,16.3l.09,0,0,0h0a1.46,1.46,0,0,0,.49.09l.29,0h0l7.35-1.86h0l.11,0a6.6,6.6,0,0,1,1.36-.23.31.31,0,0,0,.31-.31V11.09A.34.34,0,0,0,16.35,10.85Z"/><path d="M5.67,4.91a3.35,3.35,0,0,1,.07-.53A4.6,4.6,0,0,1,10,.62,4.56,4.56,0,0,1,5.67,4.91ZM9.05,6.63a3.62,3.62,0,0,1-4.74-.07l0,0,0,0,0,0,0,0-.09-.09,0-.05A3.63,3.63,0,0,1,4,1.52,3.63,3.63,0,0,1,4.24,6a.3.3,0,0,0,0,.39.32.32,0,0,0,.4,0A3.59,3.59,0,0,1,9.05,6.63ZM10.58.32v0a.31.31,0,0,0-.3-.3h0A5.21,5.21,0,0,0,5.43,3.24,4.16,4.16,0,0,0,4.25.94L4.18.88s0,0,0,0a.33.33,0,0,0-.42,0h0a4.24,4.24,0,0,0-.16,5.81v0L1.7,8.56,2,8.88,3.89,7h0a4.25,4.25,0,0,0,5.81-.16l0,0a.32.32,0,0,0,0-.42l0,0A4.22,4.22,0,0,0,7.22,5.19,5.17,5.17,0,0,0,10.58.32Z"/></svg>