<svg id="Layer_1" data-name="Layer 1" xmlns="http://www.w3.org/2000/svg" viewBox="0 0 22.75 12.49"><path d="M2.35,5.77A.75.75,0,0,1,2.93,6a.82.82,0,0,1,.24.59.76.76,0,0,1-.24.58.78.78,0,0,1-.58.24.75.75,0,0,1-.58-.23.82.82,0,0,1-.24-.59A.75.75,0,0,1,1.76,6,.81.81,0,0,1,2.35,5.77Z" style="fill:#221a16"/><path d="M3.14,10l.24,2a.39.39,0,0,1-.39.45.4.4,0,0,1-.4-.33l-.24-1.3-.24,1.3a.4.4,0,0,1-.4.33.41.41,0,0,1-.4-.45l.25-2L1.4,8.87l-1,.69a.28.28,0,0,1-.38-.05.27.27,0,0,1,0-.37L1.38,7.92a.4.4,0,0,1,.29-.12H3.39l1-.69a.27.27,0,0,1,.38,0,.29.29,0,0,1,0,.37L3.3,8.87Z" style="fill:#221a16"/><path d="M3.83,6.91,5.41,3.69a.41.41,0,0,1,.36-.23H9.12a.4.4,0,0,1,.36.22L11,6.78a.53.53,0,0,1-.17.69.55.55,0,0,1-.81-.19L9,5.23,8.79,7.32,9.3,11.7a.71.71,0,0,1-.7.79h0a.7.7,0,0,1-.7-.62L7.46,8.36l-.41,3.51a.72.72,0,0,1-.71.62.71.71,0,0,1-.7-.79l.5-4.37L5.9,5.24,4.8,7.4a.53.53,0,0,1-.71.24A.54.54,0,0,1,3.83,6.91Z"/><path d="M7.43,0A1.56,1.56,0,0,1,8,.11a1.4,1.4,0,0,1,.47.32,1.39,1.39,0,0,1,.32.48,1.38,1.38,0,0,1,.12.56A1.34,1.34,0,0,1,8.79,2a1.39,1.39,0,0,1-.32.48A1.27,1.27,0,0,1,8,2.83a1.51,1.51,0,0,1-1.13,0,1.39,1.39,0,0,1-.48-.32A1.75,1.75,0,0,1,6.07,2,1.51,1.51,0,0,1,6,1.47,1.55,1.55,0,0,1,6.07.91,1.75,1.75,0,0,1,6.39.43a1.47,1.47,0,0,1,1-.43Z"/><path d="M14.13,0a1.47,1.47,0,0,1,1,.43,1.55,1.55,0,0,1,.32.48,1.55,1.55,0,0,1,.11.56,1.51,1.51,0,0,1-.11.56,1.55,1.55,0,0,1-.32.48,1.39,1.39,0,0,1-.48.32,1.55,1.55,0,0,1-.56.11,1.51,1.51,0,0,1-.56-.11,1.39,1.39,0,0,1-.48-.32A1.39,1.39,0,0,1,12.77,2a1.33,1.33,0,0,1-.11-.56,1.36,1.36,0,0,1,.11-.56,1.39,1.39,0,0,1,.32-.48,1.55,1.55,0,0,1,.48-.32A1.51,1.51,0,0,1,14.13,0Z"/><path d="M10.23,6.71l2.35-3.08a.44.44,0,0,1,.34-.17h2.39a.44.44,0,0,1,.34.17L18,6.68a.49.49,0,0,1-.09.71.5.5,0,0,1-.65,0L15.61,5.42l.75,3.26h-1l.1,3.27a.5.5,0,0,1-.49.52h0a.51.51,0,0,1-.5-.45l-.28-3-.28,3a.48.48,0,0,1-.49.45.49.49,0,0,1-.5-.51L13,8.69h-1l.72-3.25L11,7.38a.5.5,0,0,1-.65,0h0A.49.49,0,0,1,10.23,6.71Z"/><path d="M17.42,6.89l1.83.93h1.44a.39.39,0,0,1,.18,0l1.75.88a.33.33,0,0,1,0,.48c-.1.12-.25.11-.41.07l-1.39-.48.55,2h-.59l0,1.32a.32.32,0,0,1-.31.31h0a.31.31,0,0,1-.31-.28L20,10.86l-.13,1.33a.32.32,0,0,1-.32.28.31.31,0,0,1-.31-.31l0-1.31h-.59l.53-2L17.42,7.45Z"/><path d="M19.89,5.84a.78.78,0,0,1,.58.24.77.77,0,0,1,.25.58.83.83,0,0,1-1.41.59.82.82,0,0,1,0-1.16A.79.79,0,0,1,19.89,5.84Z" style="fill:#221a16"/></svg>