<svg id="Layer_1" data-name="Layer 1" xmlns="http://www.w3.org/2000/svg" viewBox="0 0 61.39 43.62"><path d="M35.2,15.33c-2.13-2-14.33-8.91-30.87-1.61v5.11l.3,34.11,25.15-.22c.87.74,2.93,1.25,5.33,1.23s4.45-.57,5.31-1.32l25.3-.22-.3-34.12V13.18c-16-6.88-28.63.66-30.22,2.15m-2,34.92c0-1.34-11.89-9.09-25.45-.4L7.51,16.58A21.13,21.13,0,0,1,17.83,14C26.17,13.92,33,16.6,33,21.68Zm29.54-.88c-13.71-8.46-25.45-.49-25.43.85l-.25-28.58c0-5.08,6.68-7.87,15-8A21.2,21.2,0,0,1,62.5,16.1Z" transform="translate(-4.33 -10.33)" style="fill:#2d3b8e"/></svg>