<svg id="Layer_1" data-name="Layer 1" xmlns="http://www.w3.org/2000/svg" viewBox="0 0 52.23 51.85"><path d="M60.77,32.05c-.69,2-1.52,4-3.4,5.2a4.92,4.92,0,0,1-1.72.37c.26-.53.38-1.23.8-1.58a6.78,6.78,0,0,0-2.16-11.93,6.86,6.86,0,0,0-8.67,5,6.94,6.94,0,0,0,6.18,8.33c.25,0,.55,0,.75.06a7.2,7.2,0,0,1,1,.71c-.33.26-.72.79-1,.73-1.69-.43-3.35-1-5-1.49a3.87,3.87,0,0,1-.57-.32c-.38.36-.69.87-1.12,1-.65.2-1.6.46-2,.15a5,5,0,0,0-4.94-.51c-3.28,1.39-6.4,3.17-9.66,4.82.65,1.2,1.56,2.15,1.59,3.14,0,.84-.94,1.72-1.57,2.75,1,1.12,1.44,3,3.47,3.66a3.08,3.08,0,0,1,1.57,1.57,2.09,2.09,0,0,1-.09,1.88,28,28,0,0,1-3.65,3.65,1.91,1.91,0,0,1-1.8,0,4.32,4.32,0,0,1-2.15-3c-.16-1-1.14-1.75-1.64-2.68a3.64,3.64,0,0,1-.14-1.34c.46.16,1,.21,1.34.53a20.8,20.8,0,0,1,1.7,2.25l2.25-2.58-4.32-6.27c-.26-.37-.53-.73-.94-1.27l-2.6,2.26a22.42,22.42,0,0,1,1.4,2.09c.16.32,0,.79,0,1.2-.4-.11-.9-.1-1.16-.35a12.44,12.44,0,0,1-1.28-1.68,43.28,43.28,0,0,1-4.22,2.39,2.29,2.29,0,0,1-2-.27c-2-1.89-4-3.9-5.89-5.93-.33-.34-.61-1.15-.43-1.46,1.06-1.84,2.22-3.62,3.43-5.37s2.59-3.22,3.63-5c1.95-3.32,3.74-6.73,5.51-10.14a6.9,6.9,0,0,0,.12-6.91c-1.06-2,1.25-2.67,2.16-3.85a1.62,1.62,0,0,1,2.43-.34,10.44,10.44,0,0,1,1.84,1.8c.21.26.1.77.13,1.17-.41-.06-.91,0-1.21-.2A14.53,14.53,0,0,1,25,12.88c-.19,0-.31,0-.38.09-2.3,2-2.3,2-.15,4.14q9.42,9.41,18.85,18.81a10.25,10.25,0,0,1,1,1.43l1.3-1c-.88-4.24-3.84-6.87-6.67-9.62S33.14,20.93,30.23,18a5.77,5.77,0,0,1-.89-1c-.12-.21-.16-.69,0-.79a1.51,1.51,0,0,1,.93-.21c.16,0,.36.2.47.35.94,1.3,2,1.45,3.48.8a3.24,3.24,0,0,1,2.68.75c1.78,1.5,3.35,3.24,5,4.9,1.42,1.43,1,2.94,0,4.5l2,2c.16-.4.3-.72.41-1a8.38,8.38,0,0,1,16.16.42,4.27,4.27,0,0,0,.29.66ZM33.9,18.59,41.29,26c-.22-.88-.18-1.7-.58-2.13a69.91,69.91,0,0,0-5-4.93C35.34,18.61,34.5,18.71,33.9,18.59ZM10.21,43.36l6.09,6.16.75-.72-6.18-6.24Zm17.86,3.5c1.38-1.06,1.32-1.41-.42-3.31l-1.32.77Z" transform="translate(-8.55 -7.65)" style="fill:#2d3b8e"/><path d="M60.77,18.66a11.44,11.44,0,0,1-1.89.36c-2.63,0-5.27.1-7.9,0a5.75,5.75,0,0,0-4.44,1.48A12,12,0,0,1,45,21.66c-1,.62-1.45.37-1.52-.83,0-.55,0-1.09,0-1.6C41,18.81,41,18.81,41,16.35s0-4.76,0-7.14c0-1.06.29-1.56,1.46-1.56,5.62,0,11.25,0,16.87,0A7.45,7.45,0,0,1,60.77,8ZM42.64,9.3v8.11c1.52-.12,2.64.26,2.47,2.26,2.19-2.7,5.06-2.22,7.83-2.19h6.15V9.3Z" transform="translate(-8.55 -7.65)" style="fill:#2d3b8e"/><path d="M49.13,30.54V27.36c0-1.06.48-1.41,1.44-.89,2,1.09,4,2.19,5.94,3.33.91.53.9,1.16,0,1.69-2,1.12-4,2.23-5.94,3.34-.9.5-1.35.16-1.37-.8,0-1.16,0-2.33,0-3.49Z" transform="translate(-8.55 -7.65)" style="fill:#2d3b8e"/><path d="M50.85,11c1.72,0,3.44-.05,5.16,0,.47,0,.93.48,1.39.74-.43.26-.86.73-1.3.74q-5.24.09-10.47,0c-.42,0-.83-.51-1.24-.79.43-.24.86-.67,1.3-.69,1.72-.08,3.44,0,5.16,0Z" transform="translate(-8.55 -7.65)" style="fill:#2d3b8e"/><path d="M48.85,14.26c1.16,0,2.33,0,3.49,0,.3,0,.58.41.88.62-.28.28-.56.8-.85.81q-3.55.1-7.13,0c-.29,0-.56-.46-.85-.7.32-.26.63-.7,1-.72,1.15-.1,2.32,0,3.49,0Z" transform="translate(-8.55 -7.65)" style="fill:#2d3b8e"/></svg>