<svg id="Layer_1" data-name="Layer 1" xmlns="http://www.w3.org/2000/svg" viewBox="0 0 69.32 63.78"><g style="isolation:isolate"><path d="M50.7,39.45c.89,1.82,4.88,11.35,4.86,12.71-.06,7.45-10,7.36-9.94-.09,0-1.36,4.17-11.27,5.08-12.62m5.92-5c0-1,0-2.74.05-5.74,0-3.64-3.24-6.81-7.62-6.85l-10.24-.09,0-3.19a1.66,1.66,0,0,0-1.65-1.68l-4,0,0-2A3,3,0,0,0,34,14l8.52.08A3.06,3.06,0,1,0,45,9.22a3,3,0,0,0-2.45,1.28l-8.45-.07a2.93,2.93,0,0,0-4.88,0l-9.33-.08A3,3,0,0,0,17.47,9a3.08,3.08,0,1,0,2.35,4.94l9.4.08a3.05,3.05,0,0,0,.89.79l0,2.05-4.25,0a1.66,1.66,0,0,0-1.68,1.65l0,3.19L11.7,21.53l-.09,10,13.84.12c1.33,2.73,3.12,4.1,5.84,4.12a6.8,6.8,0,0,0,6.36-4l5,0c1.48,0,2,1,2.17,2.81a1.61,1.61,0,0,0-.75,1.34,1.66,1.66,0,0,0,1.65,1.68L56,37.67a1.66,1.66,0,0,0,.6-3.22" style="fill:#2d3b8e"/></g></svg>