<svg id="Layer_1" data-name="Layer 1" xmlns="http://www.w3.org/2000/svg" viewBox="0 0 5.14 3.85"><path d="M3.91,3.85H1.25A1.3,1.3,0,0,1,0,2.56V1.35A1.35,1.35,0,0,1,1.25,0H3.91A1.35,1.35,0,0,1,5.14,1.35V2.56A1.28,1.28,0,0,1,3.91,3.85ZM1.25.32a1,1,0,0,0-.93,1V2.56a1,1,0,0,0,.93,1H3.91a1,1,0,0,0,.91-1V1.35a1,1,0,0,0-.91-1Zm.93,2.45a.38.38,0,0,1-.19,0,.21.21,0,0,1-.11-.18V1.31A.21.21,0,0,1,2,1.12a.31.31,0,0,1,.31,0l1.15.63A.27.27,0,0,1,3.59,2a.19.19,0,0,1-.1.17h0L2.3,2.75Zm0-.31Zm0,0Zm0-1v1l1-.48Zm-.05,0Z" style="fill:#7e8080"/></svg>