<svg id="Layer_1" data-name="Layer 1" xmlns="http://www.w3.org/2000/svg" viewBox="0 0 5.21 4.16"><path d="M1.7,4.16A3.26,3.26,0,0,1,.83,4a2.41,2.41,0,0,1-.56-.22L.09,3.71A.18.18,0,0,1,0,3.55V3.46l.07,0a.27.27,0,0,1,.17,0A1.81,1.81,0,0,0,1,3.3l.19-.08a1.09,1.09,0,0,1-.63-.65.18.18,0,0,1,0-.19h0a1.21,1.21,0,0,1-.38-.72s0-.09,0-.14a.21.21,0,0,1,.11-.16h0A1.09,1.09,0,0,1,.32.27.19.19,0,0,1,.47.18.21.21,0,0,1,.63.25a2.72,2.72,0,0,0,1.65.9.59.59,0,0,1,0-.27A1,1,0,0,1,2.53.43,1.19,1.19,0,0,1,3.35,0a1.15,1.15,0,0,1,.49.08,1.29,1.29,0,0,1,.32.19h0A1.77,1.77,0,0,0,4.62.1a.2.2,0,0,1,.17,0l0,0L4.94.2,4.89.31h0a1,1,0,0,1-.07.18l0,0h0a.45.45,0,0,1,.28,0l.08.05V.62A.19.19,0,0,1,5.06.8H5a1.66,1.66,0,0,1-.38.32l-.12.08a3,3,0,0,1-.8,2.15A2.88,2.88,0,0,1,1.7,4.16ZM.76,3.68l.16,0a2.62,2.62,0,0,0,2.58-.6,2.66,2.66,0,0,0,.71-2A.23.23,0,0,1,4.32,1L4.41.9l0-.3s0,0,0,0L4.18.61A.19.19,0,0,1,4,.56l0,0A.79.79,0,0,0,3.72.38,1,1,0,0,0,3.37.32.84.84,0,0,0,3,.42a.78.78,0,0,0-.26.22.78.78,0,0,0-.17.65v.08l-.06.08a.15.15,0,0,1-.15.05A3.23,3.23,0,0,1,.52.61a.89.89,0,0,0,.21.79l.11.09.27.22-.34.07a1,1,0,0,1-.24,0A.81.81,0,0,0,1,2.28l.09,0,.81.14-.8.18-.18,0A1,1,0,0,0,1.49,3h.1l.2,0-.13.24a1.29,1.29,0,0,1-.57.3A2,2,0,0,1,.76,3.68Zm-.06-1h0ZM4.4,1.11l.1.13s0,0,0,0ZM5,.82ZM4.1.3Z" style="fill:#7e8080"/></svg>