<svg id="Layer_1" data-name="Layer 1" xmlns="http://www.w3.org/2000/svg" viewBox="0 0 5.05 5.05"><path d="M2.53,3.74A1.22,1.22,0,1,1,3.74,2.52,1.22,1.22,0,0,1,2.53,3.74Zm0-2.1a.89.89,0,1,0,.89.88A.88.88,0,0,0,2.53,1.64Z" style="fill:#7e8080"/><path d="M3.47,5.05H1.58a1.63,1.63,0,0,1-.31,0A1.4,1.4,0,0,1,1,4.93,1.51,1.51,0,0,1,.7,4.78a2,2,0,0,1-.24-.19,2,2,0,0,1-.19-.24,1.51,1.51,0,0,1-.15-.28A1.4,1.4,0,0,1,0,3.78a1.63,1.63,0,0,1,0-.31V1.58a1.63,1.63,0,0,1,0-.31A1.4,1.4,0,0,1,.12,1,1.51,1.51,0,0,1,.27.7,1.43,1.43,0,0,1,.46.46,2,2,0,0,1,.7.27,1.51,1.51,0,0,1,1,.12,1.4,1.4,0,0,1,1.27,0a1.63,1.63,0,0,1,.31,0H3.47a1.63,1.63,0,0,1,.31,0,1.4,1.4,0,0,1,.29.09,1.51,1.51,0,0,1,.28.15,2,2,0,0,1,.24.19A2,2,0,0,1,4.78.7,1.51,1.51,0,0,1,4.93,1,1.4,1.4,0,0,1,5,1.27a1.63,1.63,0,0,1,0,.31V3.47a1.63,1.63,0,0,1,0,.31,1.4,1.4,0,0,1-.09.29,1.51,1.51,0,0,1-.15.28,2,2,0,0,1-.19.24,2,2,0,0,1-.24.19,1.51,1.51,0,0,1-.28.15A1.4,1.4,0,0,1,3.78,5,1.63,1.63,0,0,1,3.47,5.05ZM1.58.32a1,1,0,0,0-.24,0A1.09,1.09,0,0,0,1.1.42,1.51,1.51,0,0,0,.88.53L.69.69A1.46,1.46,0,0,0,.53.88a1.51,1.51,0,0,0-.11.22,1.09,1.09,0,0,0-.07.24,1,1,0,0,0,0,.24V3.47a1,1,0,0,0,0,.24A1.09,1.09,0,0,0,.42,4a1.51,1.51,0,0,0,.11.22,1.46,1.46,0,0,0,.16.19.9.9,0,0,0,.19.15.94.94,0,0,0,.22.12,1,1,0,0,0,.23.07l.25,0H3.47l.24,0A1.09,1.09,0,0,0,4,4.63a.94.94,0,0,0,.22-.12.9.9,0,0,0,.19-.15,1.46,1.46,0,0,0,.16-.19A1.51,1.51,0,0,0,4.63,4a1.09,1.09,0,0,0,.07-.24,1,1,0,0,0,0-.24V1.58a1,1,0,0,0,0-.24,1.09,1.09,0,0,0-.07-.24A1.51,1.51,0,0,0,4.52.88,1.46,1.46,0,0,0,4.36.69L4.17.53A1.51,1.51,0,0,0,4,.42,1.09,1.09,0,0,0,3.71.35l-.24,0Z" style="fill:#7e8080"/><path d="M3.93,1.67a.44.44,0,1,1,.44-.44A.44.44,0,0,1,3.93,1.67Zm0-.55a.11.11,0,0,0-.11.11.11.11,0,0,0,.11.12.12.12,0,0,0,.12-.12A.11.11,0,0,0,3.93,1.12Z" style="fill:#7e8080"/></svg>