<svg id="Layer_1" data-name="Layer 1" xmlns="http://www.w3.org/2000/svg" xmlns:xlink="http://www.w3.org/1999/xlink" viewBox="0 0 98.5 86"><defs><clipPath id="clip-path"><rect x="0.04" y="0.15" width="98.43" height="85.69" style="fill:none"/></clipPath><clipPath id="clip-path-2"><rect x="0.04" y="-0.08" width="98.5" height="86" style="fill:none"/></clipPath><clipPath id="clip-path-3"><rect x="24.54" y="22.74" width="52.78" height="47.26" style="fill:none"/></clipPath><clipPath id="clip-path-4"><rect x="24.54" y="22.67" width="53" height="47.5" style="fill:none"/></clipPath></defs><g style="clip-path:url(#clip-path)"><g style="isolation:isolate"><g style="clip-path:url(#clip-path-2)"><path d="M68.28,76,23.18,69.4A17.44,17.44,0,0,1,8.28,52.15V25.51a17.44,17.44,0,0,1,15-17.26l45.1-6.41A17.44,17.44,0,0,1,88.26,19.1V58.79A17.43,17.43,0,0,1,68.28,76" style="fill:#2b3990"/><path d="M83.49,41.69A1.52,1.52,0,0,1,82,40.18V38.65a1.52,1.52,0,0,1,3,0v1.53a1.52,1.52,0,0,1-1.52,1.51" style="fill:#fff"/><path d="M83.49,33.32A1.51,1.51,0,0,1,82,31.81V21.47A13.84,13.84,0,0,0,66.18,7.76L60,8.63a1.51,1.51,0,0,1-.42-3l6.14-.88A16.89,16.89,0,0,1,85,21.47V31.81a1.51,1.51,0,0,1-1.52,1.51" style="fill:#fff"/><path d="M32.49,5l-.23,0-4.71-.69a1.51,1.51,0,1,1,.44-3L32.7,2a1.51,1.51,0,0,1-.21,3"/><path d="M19,77.74A18.94,18.94,0,0,1,0,58.79V19.11A18.94,18.94,0,0,1,21.75.36l.76.11a1.51,1.51,0,1,1-.45,3l-.75-.11A15.93,15.93,0,0,0,3.06,19.11V58.79A15.93,15.93,0,0,0,21.23,74.56L32,73a1.52,1.52,0,0,1,.43,3L21.65,77.55a18.44,18.44,0,0,1-2.67.19"/><path d="M48.5,77.66a1.24,1.24,0,0,1-2.47,0,1.24,1.24,0,1,1,2.47,0" style="fill:#c2c2c2"/><path d="M43.77,78.38a1.24,1.24,0,1,1-1.23-1.24,1.23,1.23,0,0,1,1.23,1.24" style="fill:#c2c2c2"/><path d="M39,79.12a1.24,1.24,0,1,1-1.23-1.24A1.23,1.23,0,0,1,39,79.12" style="fill:#c2c2c2"/><path d="M34.27,79.86A1.24,1.24,0,1,1,33,78.63a1.24,1.24,0,0,1,1.23,1.23" style="fill:#c2c2c2"/><path d="M29.52,80.6a1.24,1.24,0,1,1-1.23-1.23,1.23,1.23,0,0,1,1.23,1.23" style="fill:#c2c2c2"/><path d="M53.4,80.77a1.24,1.24,0,1,1-1.23-1.23,1.23,1.23,0,0,1,1.23,1.23" style="fill:#c2c2c2"/><path d="M48.67,81.49a1.24,1.24,0,1,1-1.23-1.23,1.23,1.23,0,0,1,1.23,1.23" style="fill:#c2c2c2"/><path d="M43.92,82.24A1.24,1.24,0,1,1,42.68,81a1.23,1.23,0,0,1,1.24,1.24" style="fill:#c2c2c2"/><path d="M39.17,83a1.24,1.24,0,1,1-1.24-1.24A1.23,1.23,0,0,1,39.17,83" style="fill:#c2c2c2"/><path d="M98.44,11.51a1.19,1.19,0,0,1-2.38-.09,1.19,1.19,0,0,1,2.38.09" style="fill:#c2c2c2"/><path d="M93.85,12.71a1.18,1.18,0,0,1-1.23,1.14,1.17,1.17,0,0,1-1.14-1.23,1.19,1.19,0,0,1,1.23-1.14,1.2,1.2,0,0,1,1.14,1.23" style="fill:#c2c2c2"/><path d="M98.44,15.22A1.19,1.19,0,1,1,97.3,14a1.2,1.2,0,0,1,1.14,1.23" style="fill:#c2c2c2"/><path d="M93.85,16.42a1.19,1.19,0,1,1-1.14-1.23,1.19,1.19,0,0,1,1.14,1.23" style="fill:#c2c2c2"/><path d="M98.46,19a1.19,1.19,0,0,1-2.37-.08,1.2,1.2,0,0,1,1.23-1.15A1.18,1.18,0,0,1,98.46,19" style="fill:#c2c2c2"/><path d="M93.87,20.21A1.19,1.19,0,1,1,92.73,19a1.17,1.17,0,0,1,1.14,1.22" style="fill:#c2c2c2"/><path d="M98.44,22.8a1.2,1.2,0,0,1-1.23,1.14,1.17,1.17,0,0,1-1.14-1.23,1.19,1.19,0,0,1,2.37.09" style="fill:#c2c2c2"/><path d="M93.85,24a1.19,1.19,0,1,1-1.14-1.23A1.2,1.2,0,0,1,93.85,24" style="fill:#c2c2c2"/><path d="M98.46,26.59a1.19,1.19,0,1,1-2.37-.09,1.2,1.2,0,0,1,1.23-1.14,1.17,1.17,0,0,1,1.14,1.23" style="fill:#c2c2c2"/><path d="M93.87,27.79a1.17,1.17,0,0,1-1.23,1.14A1.19,1.19,0,0,1,91.5,27.7a1.2,1.2,0,0,1,1.23-1.14,1.18,1.18,0,0,1,1.14,1.23" style="fill:#c2c2c2"/><path d="M98.44,30.37a1.19,1.19,0,1,1-1.14-1.23,1.2,1.2,0,0,1,1.14,1.23" style="fill:#c2c2c2"/><path d="M93.85,31.57a1.17,1.17,0,0,1-1.23,1.14,1.19,1.19,0,1,1,1.23-1.14" style="fill:#c2c2c2"/><path d="M58.15,80a1.24,1.24,0,1,1-1.23-1.23A1.24,1.24,0,0,1,58.15,80" style="fill:#c2c2c2"/><path d="M63.05,83.15a1.24,1.24,0,1,1-1.23-1.24,1.23,1.23,0,0,1,1.23,1.24" style="fill:#c2c2c2"/><path d="M58.32,83.87a1.24,1.24,0,1,1-1.24-1.24,1.23,1.23,0,0,1,1.24,1.24" style="fill:#c2c2c2"/><path d="M53.57,84.61a1.24,1.24,0,1,1-1.24-1.23,1.24,1.24,0,0,1,1.24,1.23" style="fill:#c2c2c2"/></g></g></g><g style="clip-path:url(#clip-path-3)"><g style="isolation:isolate"><g style="clip-path:url(#clip-path-4)"><path d="M40.42,49.83a1.82,1.82,0,0,1-.2,1.6l-2.83-2.38a3.34,3.34,0,0,1,.91-.44,1.58,1.58,0,0,1,1.49.38,2.07,2.07,0,0,1,.63.84m-6.24-.36A1.41,1.41,0,0,1,33,49.11a1.8,1.8,0,0,1-.62-1,1.52,1.52,0,0,1,.26-1.18L35.2,49a2.79,2.79,0,0,1-1,.44m4-2.27a7.51,7.51,0,0,0-1.83,1l-2.79-2.33a1.59,1.59,0,0,1,1.26-.37,2.32,2.32,0,0,1,.93.39l.82-1a2.76,2.76,0,0,0-2.05-.66,3.26,3.26,0,0,0-1.82.9l-.77-.65-.24.3-.45.53-.2.24.76.63a2.91,2.91,0,0,0,.43,4,2.51,2.51,0,0,0,2,.67,4.46,4.46,0,0,0,2-1l3.08,2.58a1.84,1.84,0,0,1-1.58.49,3.49,3.49,0,0,1-1.33-.7l-.83,1a4.08,4.08,0,0,0,1.8,1,3.15,3.15,0,0,0,2.8-1l1.11.93.2-.24.44-.53.25-.29-1.13-1a4.34,4.34,0,0,0,.64-1.61,3.06,3.06,0,0,0-1.31-2.75,2.32,2.32,0,0,0-2.2-.55" style="fill:#d1d1d1"/><path d="M43.19,22.74S24.54,34,24.54,70h1.63c0-32.83,16.7-43.08,16.7-43.08L56.37,40.1S35.44,55.64,35.44,70h1.32c0-15.75,24.59-29.1,24.59-29.1Z" style="fill:#d1d1d1"/><path d="M50.84,23.7a22.39,22.39,0,0,0-3.65,3l2,2a15.08,15.08,0,0,1,1.31-1L64.4,41.67S40,55.93,40,70h1.29c0-15.43,28-27.54,28-27.54Z" style="fill:#54d3bd"/><path d="M57.6,23.7a22.14,22.14,0,0,0-3.66,3l2,2a15.08,15.08,0,0,1,1.31-1L72.44,42.64S42.62,55.93,42.62,70H43.9c0-15.43,33.42-26.58,33.42-26.58Z" style="fill:#d1d1d1"/></g></g></g></svg>